<svg width="180" height="150" viewBox="0 0 180 150" fill="none" xmlns="http://www.w3.org/2000/svg">
<rect width="180" height="150" fill="#E5E5E5"/>
<g opacity="0.2">
<path opacity="0.2" d="M62.3096 137.88C62.4 138.341 62.5202 138.792 62.669 139.229C64.9813 138.099 67.3192 137.017 69.6826 135.981C69.6627 135.859 69.6427 135.73 69.6178 135.604C69.3797 134.303 68.8715 133.101 68.1438 132.12C67.1989 130.879 65.9812 130.279 64.7967 130.645C63.6122 131.011 62.7521 132.265 62.3595 133.914C62.066 135.208 62.0488 136.575 62.3096 137.88V137.88Z" fill="#3F3D56"/>
<path opacity="0.2" d="M65.6321 135.412C67.6622 134.848 68.8161 131.653 68.2095 128.275C67.6029 124.897 65.4654 122.616 63.4353 123.179C61.4053 123.743 60.2513 126.939 60.8579 130.317C61.4645 133.695 63.602 135.976 65.6321 135.412Z" fill="#3F3D56"/>
<path opacity="0.2" d="M64.2075 127.96C66.2376 127.396 67.3916 124.201 66.785 120.823C66.1783 117.445 64.0409 115.164 62.0108 115.728C59.9807 116.292 58.8267 119.487 59.4334 122.865C60.04 126.243 62.1774 128.524 64.2075 127.96Z" fill="#3F3D56"/>
<path opacity="0.2" d="M62.78 120.513C64.8101 119.949 65.9641 116.754 65.3575 113.376C64.7509 109.998 62.6134 107.717 60.5833 108.281C58.5532 108.845 57.3993 112.04 58.0059 115.418C58.6125 118.796 60.75 121.077 62.78 120.513Z" fill="#3F3D56"/>
<path opacity="0.2" d="M61.3526 113.064C63.3827 112.5 64.5366 109.305 63.93 105.927C63.3234 102.549 61.1859 100.268 59.1558 100.832C57.1258 101.396 55.9718 104.591 56.5784 107.969C57.185 111.347 59.3225 113.628 61.3526 113.064Z" fill="#3F3D56"/>
<path opacity="0.2" d="M64.1712 51.7117C64.5173 50.7461 64.8096 49.752 65.0462 48.7365L55.0647 49.7131L65.4688 46.5827C65.9659 43.3288 65.9029 39.9808 65.2841 36.7593C64.7415 33.9074 63.7689 31.2093 62.4177 28.8083L50.2403 42.3496L60.7824 26.3214C56.4787 20.6069 49.9691 17.8883 43.4994 19.9076C33.8323 22.9138 27.9083 35.3359 30.2673 47.6524C31.205 52.6273 33.4529 57.0696 36.6538 60.2731C36.116 61.7768 35.7073 63.3469 35.4344 64.9572L49.4784 69.331L35.1017 67.7814C34.9297 70.2778 35.0802 72.7924 35.5475 75.2296C36.4868 80.2042 38.7352 84.6461 41.9357 87.8503C40.2537 92.5472 39.8654 97.8033 40.8311 102.803C43.19 115.119 52.9386 122.665 62.6057 119.661C72.2728 116.657 78.1968 104.234 75.8379 91.9179C74.8986 86.9434 72.6502 82.5015 69.4497 79.2972C71.1317 74.6003 71.52 69.3443 70.5543 64.3448C69.6192 59.3662 67.3724 54.9194 64.1712 51.7117Z" fill="#496294"/>
<path opacity="0.1" d="M35.5508 75.2214C36.4901 80.1959 38.7385 84.6378 41.939 87.8421C40.257 92.539 39.8687 97.795 40.8344 102.794C43.1933 115.111 52.9419 122.657 62.609 119.652C72.2761 116.648 78.2002 104.226 75.8412 91.9096C74.9019 86.9351 72.6535 82.4932 69.453 79.289C71.0734 74.7662 35.0717 72.7241 35.5508 75.2214Z" fill="black"/>
</g>
<g opacity="0.2">
<path opacity="0.2" d="M107.175 135.606C107.114 136.145 107.09 136.689 107.103 137.232C110.004 137.29 112.915 137.412 115.837 137.597C115.857 137.454 115.877 137.309 115.894 137.162C116.082 135.645 115.941 134.093 115.486 132.666C114.884 130.841 113.761 129.536 112.355 129.283C110.95 129.031 109.579 129.892 108.589 131.427C107.827 132.638 107.338 134.081 107.175 135.606Z" fill="#3F3D56"/>
<path opacity="0.2" d="M116.903 128.494C117.356 124.574 115.771 121.047 113.363 120.617C110.955 120.186 108.635 123.015 108.182 126.935C107.729 130.855 109.314 134.382 111.722 134.813C114.13 135.243 116.45 132.414 116.903 128.494Z" fill="#3F3D56"/>
<path opacity="0.2" d="M117.905 119.818C118.358 115.898 116.773 112.371 114.365 111.94C111.957 111.51 109.638 114.339 109.185 118.259C108.731 122.179 110.316 125.706 112.725 126.137C115.133 126.567 117.452 123.738 117.905 119.818Z" fill="#3F3D56"/>
<path opacity="0.2" d="M118.907 111.144C119.36 107.224 117.775 103.697 115.367 103.266C112.959 102.836 110.64 105.665 110.187 109.585C109.733 113.505 111.318 117.032 113.727 117.462C116.135 117.893 118.454 115.064 118.907 111.144Z" fill="#3F3D56"/>
<path opacity="0.2" d="M119.911 102.468C120.364 98.5479 118.779 95.021 116.371 94.5905C113.963 94.1599 111.644 96.9889 111.19 100.909C110.737 104.829 112.322 108.356 114.73 108.787C117.139 109.217 119.458 106.388 119.911 102.468Z" fill="#3F3D56"/>
<path opacity="0.2" d="M138.726 45.2318C139.432 44.3935 140.089 43.4948 140.693 42.5421L129.509 38.1724L141.884 40.5C143.444 37.4962 144.494 34.1283 144.972 30.6022C145.449 27.076 145.343 23.4659 144.66 19.9924L126.8 27.7387L143.749 16.4628C142.669 13.1195 141.048 10.0886 138.985 7.55867C136.923 5.02879 134.464 3.05421 131.761 1.75794C129.058 0.461668 126.169 -0.128517 123.275 0.0241518C120.381 0.17682 117.543 1.06907 114.938 2.64532C112.333 4.22156 110.017 6.44803 108.134 9.18603C106.252 11.924 104.842 15.1149 103.994 18.5598C103.146 22.0047 102.878 25.6299 103.205 29.2096C103.533 32.7892 104.45 36.2465 105.899 39.3662C104.803 40.6683 103.823 42.1132 102.976 43.6759L116.735 55.9407L101.645 46.4897C100.058 50.3833 99.2759 54.7077 99.3706 59.0717C99.4653 63.4356 100.433 67.7013 102.187 71.4828C99.3218 74.8806 97.2828 79.2128 96.3035 83.9839C95.3243 88.755 95.4443 93.7726 96.6499 98.4629C97.8555 103.153 100.098 107.327 103.121 110.507C106.144 113.687 109.825 115.745 113.744 116.445C117.663 117.146 121.662 116.461 125.283 114.468C128.903 112.476 132 109.256 134.219 105.178C136.438 101.1 137.689 96.3273 137.83 91.4063C137.971 86.4853 136.995 81.6144 135.015 77.3504C138.44 73.2895 140.667 67.915 141.341 62.09C142.014 56.265 141.093 50.3277 138.726 45.2318V45.2318Z" fill="#496294"/>
<path opacity="0.1" d="M99.5739 54.6249C98.8937 60.4499 99.8146 66.3899 102.187 71.4828C99.3218 74.8806 97.2828 79.2128 96.3035 83.9839C95.3243 88.755 95.4443 93.7726 96.6499 98.4629C97.8555 103.153 100.098 107.327 103.121 110.507C106.144 113.687 109.825 115.745 113.744 116.445C117.663 117.146 121.662 116.461 125.283 114.468C128.903 112.476 132 109.256 134.219 105.178C136.438 101.1 137.689 96.3273 137.83 91.4063C137.971 86.4853 136.995 81.6144 135.015 77.3504C138.325 73.4297 99.9116 51.7097 99.5739 54.6249Z" fill="black"/>
</g>
<path opacity="0.1" d="M90 150C139.706 150 180 147.128 180 143.586C180 140.044 139.706 137.172 90 137.172C40.2944 137.172 0 140.044 0 143.586C0 147.128 40.2944 150 90 150Z" fill="#496294"/>
<path d="M148.841 141.002C151.166 141.002 153.05 140.551 153.05 139.994C153.05 139.438 151.166 138.987 148.841 138.987C146.517 138.987 144.632 139.438 144.632 139.994C144.632 140.551 146.517 141.002 148.841 141.002Z" fill="#496294"/>
<path d="M148.771 140.367C149.042 140.367 149.262 140.009 149.262 139.568C149.262 139.127 149.042 138.77 148.771 138.77C148.5 138.77 148.28 139.127 148.28 139.568C148.28 140.009 148.5 140.367 148.771 140.367Z" fill="#3F3D56"/>
<path d="M148.771 139.39C149.042 139.39 149.262 139.033 149.262 138.592C149.262 138.151 149.042 137.793 148.771 137.793C148.5 137.793 148.28 138.151 148.28 138.592C148.28 139.033 148.5 139.39 148.771 139.39Z" fill="#3F3D56"/>
<path d="M148.771 138.416C149.042 138.416 149.262 138.058 149.262 137.617C149.262 137.176 149.042 136.819 148.771 136.819C148.5 136.819 148.28 137.176 148.28 137.617C148.28 138.058 148.5 138.416 148.771 138.416Z" fill="#3F3D56"/>
<path d="M148.771 137.441C149.042 137.441 149.262 137.084 149.262 136.643C149.262 136.202 149.042 135.844 148.771 135.844C148.5 135.844 148.28 136.202 148.28 136.643C148.28 137.084 148.5 137.441 148.771 137.441Z" fill="#3F3D56"/>
<path d="M148.771 136.465C149.042 136.465 149.262 136.107 149.262 135.666C149.262 135.225 149.042 134.868 148.771 134.868C148.5 134.868 148.28 135.225 148.28 135.666C148.28 136.107 148.5 136.465 148.771 136.465Z" fill="#3F3D56"/>
<path d="M148.771 135.49C149.042 135.49 149.262 135.133 149.262 134.692C149.262 134.251 149.042 133.893 148.771 133.893C148.5 133.893 148.28 134.251 148.28 134.692C148.28 135.133 148.5 135.49 148.771 135.49Z" fill="#3F3D56"/>
<path d="M148.771 134.516C149.042 134.516 149.262 134.158 149.262 133.717C149.262 133.276 149.042 132.919 148.771 132.919C148.5 132.919 148.28 133.276 148.28 133.717C148.28 134.158 148.5 134.516 148.771 134.516Z" fill="#3F3D56"/>
<path d="M150.604 127.045C150.672 126.939 150.733 126.827 150.787 126.71L149.5 126.447L150.892 126.459C151.026 126.098 151.098 125.706 151.106 125.308C151.114 124.911 151.056 124.515 150.937 124.146L149.069 125.352L150.792 123.776C150.632 123.427 150.415 123.123 150.155 122.883C149.895 122.644 149.599 122.473 149.284 122.382C148.969 122.292 148.642 122.283 148.324 122.357C148.006 122.43 147.704 122.585 147.437 122.81C147.169 123.036 146.942 123.328 146.769 123.668C146.596 124.008 146.482 124.388 146.433 124.786C146.384 125.183 146.401 125.589 146.484 125.978C146.567 126.367 146.714 126.73 146.915 127.045C146.811 127.21 146.721 127.388 146.647 127.577L148.31 128.657L146.529 127.912C146.404 128.373 146.374 128.865 146.441 129.344C146.509 129.824 146.671 130.274 146.915 130.655C146.642 131.086 146.473 131.603 146.426 132.148C146.379 132.692 146.456 133.243 146.648 133.735C146.841 134.228 147.141 134.644 147.514 134.935C147.887 135.225 148.319 135.379 148.76 135.379C149.2 135.379 149.632 135.225 150.005 134.935C150.378 134.644 150.679 134.228 150.871 133.735C151.063 133.243 151.14 132.692 151.093 132.148C151.046 131.603 150.877 131.086 150.604 130.655C150.93 130.141 151.107 129.505 151.107 128.851C151.107 128.197 150.93 127.561 150.604 127.047V127.045Z" fill="#496294"/>
<path opacity="0.1" d="M146.412 128.849C146.411 129.503 146.586 130.139 146.911 130.653C146.639 131.084 146.469 131.601 146.422 132.146C146.375 132.69 146.452 133.241 146.645 133.733C146.837 134.226 147.137 134.642 147.511 134.932C147.884 135.223 148.316 135.377 148.756 135.377C149.197 135.377 149.628 135.223 150.002 134.932C150.375 134.642 150.675 134.226 150.868 133.733C151.06 133.241 151.137 132.69 151.09 132.146C151.043 131.601 150.873 131.084 150.601 130.653C150.919 130.157 146.412 128.522 146.412 128.849Z" fill="black"/>
<path d="M52.1867 149.106C55.2921 149.106 57.8096 148.504 57.8096 147.761C57.8096 147.019 55.2921 146.417 52.1867 146.417C49.0812 146.417 46.5638 147.019 46.5638 147.761C46.5638 148.504 49.0812 149.106 52.1867 149.106Z" fill="#496294"/>
<path d="M52.0919 148.256C52.4539 148.256 52.7473 147.779 52.7473 147.19C52.7473 146.602 52.4539 146.125 52.0919 146.125C51.7299 146.125 51.4364 146.602 51.4364 147.19C51.4364 147.779 51.7299 148.256 52.0919 148.256Z" fill="#3F3D56"/>
<path d="M52.0919 146.952C52.4539 146.952 52.7473 146.475 52.7473 145.887C52.7473 145.298 52.4539 144.821 52.0919 144.821C51.7299 144.821 51.4364 145.298 51.4364 145.887C51.4364 146.475 51.7299 146.952 52.0919 146.952Z" fill="#3F3D56"/>
<path d="M52.0919 145.649C52.4539 145.649 52.7473 145.172 52.7473 144.583C52.7473 143.995 52.4539 143.518 52.0919 143.518C51.7299 143.518 51.4364 143.995 51.4364 144.583C51.4364 145.172 51.7299 145.649 52.0919 145.649Z" fill="#3F3D56"/>
<path d="M52.0919 144.348C52.4539 144.348 52.7473 143.871 52.7473 143.282C52.7473 142.694 52.4539 142.217 52.0919 142.217C51.7299 142.217 51.4364 142.694 51.4364 143.282C51.4364 143.871 51.7299 144.348 52.0919 144.348Z" fill="#3F3D56"/>
<path d="M52.0919 143.044C52.4539 143.044 52.7473 142.567 52.7473 141.979C52.7473 141.39 52.4539 140.913 52.0919 140.913C51.7299 140.913 51.4364 141.39 51.4364 141.979C51.4364 142.567 51.7299 143.044 52.0919 143.044Z" fill="#3F3D56"/>
<path d="M52.0919 141.741C52.4539 141.741 52.7473 141.264 52.7473 140.675C52.7473 140.087 52.4539 139.61 52.0919 139.61C51.7299 139.61 51.4364 140.087 51.4364 140.675C51.4364 141.264 51.7299 141.741 52.0919 141.741Z" fill="#3F3D56"/>
<path d="M52.0919 140.439C52.4539 140.439 52.7473 139.962 52.7473 139.374C52.7473 138.785 52.4539 138.308 52.0919 138.308C51.7299 138.308 51.4364 138.785 51.4364 139.374C51.4364 139.962 51.7299 140.439 52.0919 140.439Z" fill="#3F3D56"/>
<path d="M54.544 130.459C54.6327 130.316 54.7138 130.167 54.7869 130.012L53.0684 129.66L54.9283 129.679C55.1073 129.196 55.2049 128.672 55.2152 128.141C55.2255 127.609 55.1482 127.081 54.9882 126.588L52.4928 128.197L54.7935 126.103C54.577 125.642 54.2865 125.241 53.9402 124.925C53.5939 124.609 53.199 124.385 52.7802 124.267C52.3614 124.148 51.9275 124.138 51.5054 124.237C51.0833 124.336 50.682 124.542 50.3264 124.841C49.9709 125.141 49.6686 125.528 49.4383 125.979C49.2081 126.43 49.0547 126.935 48.9879 127.463C48.921 127.99 48.942 128.529 49.0495 129.047C49.1571 129.564 49.3489 130.048 49.6131 130.469C49.4741 130.69 49.3542 130.928 49.2555 131.181L51.4897 132.629L49.1074 131.636C48.9398 132.25 48.8977 132.906 48.9848 133.545C49.0719 134.185 49.2856 134.787 49.6065 135.298C49.2429 135.873 49.0167 136.564 48.954 137.292C48.8912 138.019 48.9942 138.754 49.2514 139.413C49.5086 140.071 49.9094 140.626 50.4082 141.014C50.907 141.402 51.4835 141.608 52.0719 141.608C52.6603 141.608 53.2368 141.402 53.7356 141.014C54.2344 140.626 54.6352 140.071 54.8924 139.413C55.1496 138.754 55.2526 138.019 55.1899 137.292C55.1271 136.564 54.9009 135.873 54.5373 135.298C54.9716 134.61 55.2077 133.761 55.2077 132.887C55.2077 132.012 54.9716 131.163 54.5373 130.475L54.544 130.459Z" fill="#496294"/>
<path opacity="0.1" d="M48.9427 132.869C48.9406 133.743 49.175 134.593 49.6081 135.281C49.2445 135.857 49.0184 136.548 48.9556 137.275C48.8928 138.003 48.9959 138.738 49.2531 139.396C49.5102 140.054 49.9111 140.609 50.4099 140.997C50.9086 141.386 51.4852 141.591 52.0736 141.591C52.662 141.591 53.2385 141.386 53.7373 140.997C54.236 140.609 54.6369 140.054 54.8941 139.396C55.1512 138.738 55.2543 138.003 55.1915 137.275C55.1287 136.548 54.9026 135.857 54.539 135.281C54.9632 134.617 48.9427 132.432 48.9427 132.869Z" fill="black"/>
<path d="M81.7919 88.5372C81.3677 85.7772 80.8935 83.011 80.8153 80.2035C80.7688 78.5483 80.8619 76.8641 80.6906 75.2131C80.6057 74.4021 80.4577 73.6055 80.3113 72.809L79.7224 69.6207C79.7891 69.0095 79.77 68.3886 79.6658 67.7855C79.6068 67.4675 79.5284 67.1556 79.4312 66.8524C79.981 65.8902 80.4341 64.848 80.7804 63.749C80.9368 63.2524 81.0715 62.7248 81.01 62.1993C80.8902 61.1917 80.105 60.5276 79.3747 60.031C78.9322 59.731 78.4664 59.4414 77.9606 59.3938C77.607 59.3761 77.2548 59.4602 76.9316 59.6397C76.6084 59.8191 76.3229 60.089 76.0974 60.4283C75.9745 59.6126 76.0157 58.7718 76.2172 57.9807C75.783 57.7386 75.3455 57.511 74.9046 57.2897C74.8409 56.5747 74.8187 55.8549 74.8381 55.1359C74.8481 54.2731 74.8597 53.4021 74.8996 52.5373C76.0827 52.0003 77.1054 51.026 77.8304 49.7453C78.5553 48.4646 78.9479 46.9387 78.9555 45.3724C78.9555 45.2835 78.9555 45.1966 78.9555 45.1097C79.2779 44.3888 79.4819 43.5954 79.5555 42.7757C79.6292 41.9559 79.5711 41.1261 79.3847 40.3345C78.8972 38.2655 77.6229 36.5607 76.0874 35.5076C74.5519 34.4545 72.7719 34.0097 71.0102 33.931C70.4189 33.888 69.8257 33.9346 69.2434 34.0697C68.6203 34.2604 68.0165 34.538 67.4434 34.8973C66.5634 35.4021 65.6767 35.9545 65.0179 36.8255C63.875 38.3421 63.6189 40.5704 63.7436 42.6186C63.91 45.3083 64.632 47.911 65.4671 50.4145C65.7449 51.2421 66.041 52.0821 66.4985 52.7876C66.8529 53.3317 67.4684 53.3648 67.9575 52.9841C67.9187 53.645 67.9064 54.3079 67.9209 54.9704C67.0176 54.931 66.1375 55.1152 65.4122 55.7483C65.0795 56.0442 64.7634 56.5097 64.8366 57.0104C65.0588 57.0177 65.2718 57.1224 65.438 57.306C65.6041 57.4896 65.7129 57.7403 65.7449 58.0138C65.7815 58.4545 65.6035 58.8745 65.4305 59.2552C65.3556 59.4248 65.2808 59.5966 65.2043 59.7662C64.4889 60.7179 63.7553 61.9097 63.6904 63.091C63.5737 63.1048 63.4576 63.1262 63.3427 63.1552C62.6939 63.3041 62.0484 63.5793 61.4113 63.7862L56.7998 65.2966L55.6603 65.6897L53.8303 66.2897C52.6658 66.6704 51.4797 67.0614 50.4466 67.8269C49.4135 68.5924 48.5368 69.7945 48.3288 71.2428C48.2257 71.9628 48.2889 72.7117 48.1625 73.4255C48.1625 73.4586 48.1525 73.4897 48.1458 73.5207C48.0402 73.9725 47.898 74.4099 47.7216 74.8262C46.6885 77.5345 45.9532 80.4869 46.0913 83.4683C46.1762 85.2993 46.5904 87.0848 46.993 88.8476C47.4155 90.6503 47.8325 92.4531 48.244 94.2559C48.5153 95.5465 48.8594 96.8117 49.2738 98.0421C49.9836 100.013 51.0364 101.764 52.3564 103.167C52.7268 103.58 53.141 103.928 53.5874 104.201C54.2681 104.567 55.0113 104.717 55.7501 104.638C55.9497 104.621 56.146 104.594 56.3407 104.555C57.7697 104.274 59.1022 103.417 60.325 102.453C60.8362 102.05 61.3353 101.626 61.8222 101.181C61.884 101.876 61.9954 102.563 62.1549 103.233C62.263 103.694 62.3961 104.168 62.3529 104.646C62.293 105.312 61.9037 105.859 61.7024 106.483C61.2749 107.803 61.7141 109.274 61.7856 110.69C61.8538 112.016 61.5943 113.332 61.3863 114.637C61.0391 116.814 60.8338 119.023 60.7725 121.241C60.7706 122.081 60.7262 122.92 60.6394 123.753C60.4847 124.928 60.122 126.062 60.0588 127.25C59.9623 129.099 60.6044 130.91 60.5462 132.761C60.478 134.936 59.4516 137.048 59.8092 139.175C59.8542 139.442 59.9756 139.75 60.1719 139.819L60.0754 139.928C59.781 140.268 59.4948 140.894 59.8292 141.17C59.9061 141.227 59.9916 141.263 60.0804 141.277C60.5978 141.412 61.1185 141.534 61.6392 141.648C61.6277 142.246 61.6883 142.843 61.8189 143.419C61.9137 143.503 62.0102 143.58 62.1067 143.652C62.0335 143.897 62.0385 144.132 62.2115 144.273C62.2884 144.33 62.3739 144.367 62.4627 144.381C66.748 145.48 71.1244 145.932 75.4969 145.726C76.2787 145.688 77.0956 145.618 77.7627 145.121C78.4298 144.625 78.8806 143.568 78.5629 142.697C78.2817 141.927 77.5464 141.594 76.886 141.337L76.1107 141.039C76.21 140.82 76.268 140.576 76.2801 140.325C76.2922 140.074 76.2581 139.823 76.1806 139.591C75.8994 138.821 75.1641 138.488 74.5037 138.232L72.7187 137.543C72.4837 137.474 72.2629 137.345 72.0699 137.164C71.942 137.006 71.8241 136.836 71.7172 136.655C71.4596 136.289 71.1212 136.025 70.744 135.896C70.7239 135.425 70.7323 134.954 70.7689 134.485L71.268 126.993C71.3795 125.297 71.4893 123.567 71.1715 121.91C71.0434 121.237 70.8388 120.548 70.9636 119.874C71.1582 118.773 72.0898 118.161 72.7253 117.343C73.6836 116.102 73.9813 114.337 74.2009 112.657C75.1103 105.724 75.3959 98.6873 75.0527 91.6759C77.0497 90.9757 79.1051 90.5647 81.178 90.451C81.5307 90.4324 81.7037 90.2255 81.8135 89.8159C81.9233 89.4062 81.8567 88.9614 81.7919 88.5372ZM71.8353 88.9035C71.847 88.831 71.8603 88.7586 71.8702 88.6862L72.0083 88.9055L71.8353 88.9035Z" fill="url(#paint0_linear)"/>
<path d="M68.5913 50.9276C68.5481 51.6476 68.3434 52.3386 68.2686 53.0566C68.1837 53.8469 68.2586 54.6517 68.217 55.4483C68.1754 56.2448 67.9908 57.0828 67.5033 57.6021C70.3364 57.9072 73.1268 58.658 75.808 59.8365C74.9978 58.5952 74.9762 56.8614 74.9961 55.2683C75.0227 52.9117 75.056 50.5097 75.6749 48.2855C73.8291 47.7724 71.9178 47.7414 70.0619 48.1945C69.6593 48.2938 68.4399 48.2317 68.2586 48.6993C68.1272 49.0428 68.6213 50.4062 68.5913 50.9276Z" fill="#A1616A"/>
<path opacity="0.1" d="M68.5913 50.9276C68.5481 51.6476 68.3434 52.3386 68.2686 53.0566C68.1837 53.8469 68.2586 54.6517 68.217 55.4483C68.1754 56.2448 67.9908 57.0828 67.5033 57.6021C70.3364 57.9072 73.1268 58.658 75.808 59.8365C74.9978 58.5952 74.9762 56.8614 74.9961 55.2683C75.0227 52.9117 75.056 50.5097 75.6749 48.2855C73.8291 47.7724 71.9178 47.7414 70.0619 48.1945C69.6593 48.2938 68.4399 48.2317 68.2586 48.6993C68.1272 49.0428 68.6213 50.4062 68.5913 50.9276Z" fill="black"/>
<path d="M71.9451 136.666C72.0451 136.849 72.1563 137.023 72.2778 137.185C72.4651 137.365 72.6812 137.494 72.9116 137.563L74.6551 138.252C75.3022 138.509 76.0209 138.84 76.2954 139.61C76.6048 140.479 76.1639 141.536 75.5118 142.03C74.8597 142.525 74.0612 142.597 73.2976 142.634C69.0222 142.839 64.7429 142.388 60.5562 141.292C60.4698 141.276 60.3867 141.24 60.3116 141.184C59.9789 140.905 60.2634 140.28 60.5512 139.943C61.6741 138.619 62.8952 137.23 64.424 136.924C65.2275 136.761 66.0344 136.827 66.8329 136.589C67.4068 136.417 67.9492 136.121 68.5214 135.946C69.5878 135.621 71.1832 135.505 71.9451 136.666Z" fill="#46455B"/>
<path opacity="0.1" d="M71.9451 136.666C72.0451 136.849 72.1563 137.023 72.2778 137.185C72.4651 137.365 72.6812 137.494 72.9116 137.563L74.6551 138.252C75.3022 138.509 76.0209 138.84 76.2954 139.61C76.6048 140.479 76.1639 141.536 75.5118 142.03C74.8597 142.525 74.0612 142.597 73.2976 142.634C69.0222 142.839 64.7429 142.388 60.5562 141.292C60.4698 141.276 60.3867 141.24 60.3116 141.184C59.9789 140.905 60.2634 140.28 60.5512 139.943C61.6741 138.619 62.8952 137.23 64.424 136.924C65.2275 136.761 66.0344 136.827 66.8329 136.589C67.4068 136.417 67.9492 136.121 68.5214 135.946C69.5878 135.621 71.1832 135.505 71.9451 136.666Z" fill="black"/>
<path d="M63.1913 89.8697C62.331 92.6931 62.2782 95.7987 63.0416 98.6648C62.461 98.5862 62.2098 99.5628 62.2248 100.291C62.2454 101.305 62.369 102.311 62.5924 103.287C62.6989 103.75 62.8287 104.222 62.7871 104.698C62.7272 105.364 62.3479 105.91 62.1499 106.533C61.734 107.851 62.1616 109.32 62.2331 110.733C62.2996 112.059 62.0451 113.373 61.8405 114.677C61.5015 116.851 61.3013 119.056 61.2416 121.27C61.2404 122.11 61.1965 122.948 61.1102 123.78C60.9604 124.955 60.6111 126.087 60.5446 127.272C60.4497 129.118 61.0769 130.928 61.0203 132.778C60.9538 134.948 59.949 137.059 60.3 139.192C60.3499 139.492 60.4847 139.846 60.7325 139.85C63.2412 139.889 65.5852 139.022 68.0673 139.475C68.3201 132.333 68.5664 125.158 69.6976 118.146C70.6957 111.904 72.3876 105.732 72.2296 99.3683C72.1381 95.729 71.4427 92.16 71.0201 88.5559C68.3679 87.8235 65.5926 88.2892 63.1913 89.8697V89.8697Z" fill="#BBBDC8"/>
<path opacity="0.1" d="M63.1913 89.8697C62.331 92.6931 62.2782 95.7987 63.0416 98.6648C62.461 98.5862 62.2098 99.5628 62.2248 100.291C62.2454 101.305 62.369 102.311 62.5924 103.287C62.6989 103.75 62.8287 104.222 62.7871 104.698C62.7272 105.364 62.3479 105.91 62.1499 106.533C61.734 107.851 62.1616 109.32 62.2331 110.733C62.2996 112.059 62.0451 113.373 61.8405 114.677C61.5015 116.851 61.3013 119.056 61.2416 121.27C61.2404 122.11 61.1965 122.948 61.1102 123.78C60.9604 124.955 60.6111 126.087 60.5446 127.272C60.4497 129.118 61.0769 130.928 61.0203 132.778C60.9538 134.948 59.949 137.059 60.3 139.192C60.3499 139.492 60.4847 139.846 60.7325 139.85C63.2412 139.889 65.5852 139.022 68.0673 139.475C68.3201 132.333 68.5664 125.158 69.6976 118.146C70.6957 111.904 72.3876 105.732 72.2296 99.3683C72.1381 95.729 71.4427 92.16 71.0201 88.5559C68.3679 87.8235 65.5926 88.2892 63.1913 89.8697V89.8697Z" fill="black"/>
<path d="M74.2741 139.769C74.3741 139.952 74.4853 140.126 74.6068 140.288C74.7942 140.469 75.0102 140.598 75.2407 140.667L76.9841 141.356C77.6312 141.612 78.3499 141.943 78.6244 142.713C78.9338 143.582 78.493 144.639 77.8408 145.134C77.1887 145.628 76.3902 145.701 75.6266 145.738C71.3513 145.943 67.0719 145.492 62.8852 144.395C62.7988 144.38 62.7157 144.343 62.6407 144.288C62.3079 144.008 62.5924 143.383 62.8802 143.046C64.0031 141.722 65.2242 140.334 66.753 140.028C67.5566 139.864 68.3634 139.93 69.1619 139.692C69.7359 139.521 70.2782 139.225 70.8505 139.049C71.9168 138.724 73.5122 138.608 74.2741 139.769Z" fill="#46455B"/>
<path d="M64.0564 90.0745C63.4142 91.109 63.2246 92.4745 63.3111 93.7697C63.3976 95.0648 63.7486 96.3083 64.093 97.5352C63.6355 98.0586 63.7303 98.9607 63.7902 99.7304C64.0081 102.59 63.2096 105.443 63.3261 108.31C63.3743 109.517 63.5856 110.706 63.6355 111.912C63.6904 113.23 63.5556 114.548 63.4292 115.858C62.6216 124.242 62.1773 132.674 62.0983 141.118C62.0983 141.896 62.0884 142.686 62.2647 143.431C63.4741 144.538 64.993 144.687 66.4569 144.273C67.9209 143.859 69.2568 142.937 70.5693 142.026C71.2884 141.563 71.9703 141.016 72.6056 140.392C72.7999 140.221 72.9437 139.975 73.0148 139.692C73.1545 138.865 72.2296 138.49 71.6989 137.954C70.927 137.174 70.9386 135.73 71.0185 134.497L71.5009 127.016C71.6107 125.321 71.7172 123.594 71.4078 121.939C71.2813 121.268 71.0867 120.579 71.2032 119.905C71.3928 118.808 72.3044 118.196 72.925 117.379C73.8632 116.137 74.1527 114.377 74.369 112.701C75.3882 104.75 75.605 96.6725 75.0144 88.6552C73.7917 89.1828 72.3427 88.8952 71.0534 89.0193C69.7641 89.1435 68.4832 89.6793 67.1773 89.7228C66.0893 89.7538 64.7251 89.0069 64.0564 90.0745Z" fill="#BBBDC8"/>
<path d="M72.8651 53.1724C76.2645 53.1724 79.0203 49.7451 79.0203 45.5172C79.0203 41.2894 76.2645 37.8621 72.8651 37.8621C69.4656 37.8621 66.7098 41.2894 66.7098 45.5172C66.7098 49.7451 69.4656 53.1724 72.8651 53.1724Z" fill="#A1616A"/>
<path d="M76.3436 58.109C74.3712 56.9823 72.3146 56.0994 70.2033 55.4731C68.7161 55.0324 67.0176 54.7676 65.7749 55.8745C65.4421 56.1703 65.141 56.6359 65.2126 57.1365C65.4318 57.1456 65.6414 57.2512 65.8038 57.4346C65.9663 57.6181 66.071 57.8673 66.0993 58.1379C66.1359 58.5765 65.9628 58.9965 65.7932 59.3793L64.3575 62.6897C64.0824 63.286 63.846 63.9087 63.6505 64.5517C63.361 65.6028 63.2978 66.7283 63.2362 67.8372L63.0699 70.8414C62.9667 72.7345 62.8619 74.6359 63 76.5248C63.1031 77.9504 63.3427 79.3821 63.1797 80.7993C63.0482 81.9393 62.6606 83.009 62.4427 84.1304C62.0335 86.2407 62.2198 88.5538 61.4262 90.4904C61.7485 90.3053 62.1123 90.2644 62.456 90.3745C64.8649 90.9269 66.7597 93.2917 69.0987 94.1959C69.6893 93.1242 70.4895 92.3338 71.1499 91.3366C71.6411 90.589 71.9663 89.6945 72.0932 88.7421C72.5922 89.5697 73.0165 90.2152 73.3142 91.1752C73.3672 91.3985 73.458 91.6052 73.5804 91.7814C73.8948 92.1621 74.4122 92.0152 74.8331 91.8559C76.8965 91.0818 79.0297 90.6321 81.183 90.5173C81.529 90.4986 81.697 90.2917 81.8052 89.8821C81.9133 89.4724 81.8534 89.0297 81.7885 88.6076C81.3743 85.8497 80.9118 83.0876 80.8353 80.2841C80.7887 78.629 80.8802 76.951 80.7122 75.3C80.629 74.491 80.4843 73.6945 80.3412 72.9L79.1534 66.3352C79.0869 65.969 78.7708 65.729 78.636 65.3917C78.0904 64.0179 77.0473 63.0248 76.5083 61.6469C76.1012 60.5342 76.0424 59.2726 76.3436 58.109V58.109Z" fill="#46455B"/>
<path d="M67.7079 48.5814C67.7007 48.4742 67.7211 48.3669 67.7662 48.2751C67.832 48.1892 67.9145 48.1258 68.0057 48.091C68.2538 47.9445 68.4567 47.7015 68.5836 47.3987C68.7106 47.0959 68.7548 46.7499 68.7094 46.4131L69.2917 46.262L69.31 43.74C70.175 43.1441 71.3545 43.5952 72.168 42.8938C72.6255 42.4965 72.8601 41.822 73.1396 41.222C73.419 40.622 73.8349 40.0179 74.3906 39.9683C74.1995 40.5727 74.1176 41.222 74.1507 41.8702C74.1837 42.5184 74.3309 43.1497 74.5819 43.7193C75.1644 43.3526 75.6509 42.7871 75.9843 42.0889L76.2738 44.1579C76.2796 44.2855 76.3235 44.4057 76.3969 44.4951C76.5482 44.6338 76.7529 44.46 76.886 44.2883L77.6396 43.3676C77.9567 44.3573 78.1741 45.3921 78.2867 46.4483C79.5244 44.9545 79.9087 42.5545 79.4329 40.4938C78.9571 38.4331 77.7111 36.7262 76.2105 35.6731C74.71 34.62 72.9699 34.1772 71.2481 34.0986C70.6701 34.0565 70.0901 34.1031 69.5213 34.2372C68.911 34.4282 68.3204 34.7059 67.7612 35.0648C66.9011 35.5676 66.0327 36.12 65.3906 36.989C64.2726 38.5034 64.0214 40.7296 64.1445 42.782C64.3109 45.4717 65.0129 48.0682 65.8298 50.5676C66.1009 51.3951 66.3904 52.2331 66.8379 52.9386C67.5116 54 69.1669 53.1186 68.9556 51.0207C68.8092 49.5227 67.7079 50.1 67.7079 48.5814Z" fill="#3F3D56"/>
<path d="M70.037 89.5655C67.9609 94.8412 64.7728 99.3174 60.8124 102.517C59.6163 103.479 58.317 104.336 56.9179 104.617C56.7266 104.657 56.5353 104.683 56.3407 104.7C55.6192 104.774 54.8943 104.621 54.2329 104.255C53.795 103.981 53.3897 103.633 53.0285 103.221C51.7339 101.811 50.7052 100.064 50.0157 98.1041C49.6105 96.8738 49.2742 95.6101 49.0092 94.3221C48.6011 92.5207 48.1941 90.7186 47.7882 88.9159C47.3906 87.1531 46.9897 85.3697 46.9065 83.5366C46.7717 80.5593 47.4904 77.611 48.5002 74.9069C48.6724 74.4904 48.8112 74.0538 48.9144 73.6035C48.9144 73.5724 48.9261 73.5414 48.9311 73.5083C49.0508 72.7945 48.9893 72.0476 49.0974 71.3276C49.3004 69.8793 50.1588 68.6793 51.1669 67.9159C52.1751 67.1524 53.3296 66.7614 54.4758 66.3807L56.2608 65.7828L57.3688 65.4124L61.8754 63.9041C62.4993 63.6973 63.1298 63.4221 63.7636 63.2835C64.4706 63.1179 64.4656 63.2048 64.5205 64.0655C64.622 65.6255 64.5887 67.1586 64.8532 68.7041C65.1044 70.1793 65.547 71.6007 65.8797 73.049C66.7198 76.7048 66.8595 80.5531 67.5216 84.2669C67.673 85.1131 67.8826 86.0152 68.4299 86.5428C69.0571 87.1635 70.1135 87.3166 70.2799 88.289C70.3414 88.7214 70.1867 89.1641 70.037 89.5655Z" fill="#496294"/>
<path opacity="0.1" d="M56.9179 104.609C56.7266 104.648 56.5353 104.675 56.3407 104.692C55.6198 104.769 54.8949 104.618 54.2329 104.255C53.795 103.981 53.3897 103.633 53.0285 103.221C51.7339 101.811 50.7052 100.064 50.0157 98.1041C49.6105 96.8738 49.2742 95.6101 49.0092 94.3221C48.6011 92.5207 48.1941 90.7186 47.7882 88.9159C47.3906 87.1531 46.9897 85.3697 46.9065 83.5366C46.7717 80.5593 47.4904 77.611 48.5002 74.9069C48.6724 74.4904 48.8112 74.0538 48.9144 73.6035C48.9144 73.5724 48.9261 73.5414 48.9311 73.5083C51.646 74.1021 54.9033 80.5614 56.5836 89.0255C57.8213 95.3545 57.8745 101.183 56.9179 104.609Z" fill="black"/>
<path opacity="0.1" d="M61.8255 82.3386L61.3713 82.4359C60.9039 80.909 60.4381 79.38 59.8908 77.8945C59.6063 77.1186 59.2985 76.3531 59.059 75.5524C58.1606 72.478 58.3137 68.8304 56.6484 66.298C56.5296 66.1099 56.394 65.9391 56.2442 65.789L57.3521 65.4186C58.3223 67.3264 59.0066 69.4371 59.3717 71.6483C59.5514 72.7283 59.6529 73.8331 59.9457 74.8717C60.1947 75.6596 60.4796 76.4291 60.7991 77.1766C61.4312 78.7883 61.907 80.549 61.8255 82.3386Z" fill="black"/>
<path d="M66.2473 59.0276C67.4434 57.7531 69.0754 57.0538 70.6242 57.3724C71.5359 57.5566 72.3826 58.0676 73.1995 58.6138C74.7915 59.6648 76.3603 60.8752 77.5081 62.6028C78.1964 63.6924 78.768 64.8886 79.2083 66.1614C79.4243 66.7175 79.5916 67.3009 79.7074 67.9014C80.1133 70.2393 79.1168 72.5628 78.1569 74.6359L76.3104 78.6207C75.4619 80.4517 74.6068 82.2952 73.5022 83.9028C72.9932 84.6435 72.4342 85.3283 71.8769 86.0131L69.4298 89.0173C69.3858 89.0818 69.3281 89.1298 69.2634 89.1559C69.21 89.1594 69.1566 89.1485 69.1069 89.1239C69.0572 89.0992 69.0124 89.0614 68.9756 89.0131L68.1671 88.2124C68.9118 87.5726 69.6039 86.8428 70.2333 86.0338C71.2913 84.6724 72.1614 83.1062 73.0264 81.5462L75.7181 76.6924C76.505 75.2711 77.3268 73.7069 77.2386 71.9855C77.197 71.1579 76.9475 70.38 76.6863 69.6207C76.2238 68.2704 75.7214 66.9414 75.1791 65.6338C74.5702 64.1669 73.9048 62.7186 73.0281 61.4793C72.1514 60.24 71.0434 59.2035 69.7675 58.7545C69.3869 58.5999 68.9836 58.5518 68.5863 58.6138C67.7113 58.7938 67.0891 59.729 66.5351 60.5979L64.8482 63.2876C64.464 63.8979 64.1113 64.6055 64.088 63.4469C64.0481 61.7938 65.3922 60.091 66.2473 59.0276Z" fill="#496294"/>
<path d="M66.7697 77.1724C67.1024 78.7655 67.5932 80.5738 68.8259 81.1779C69.6993 81.6062 70.7224 81.2586 71.4776 80.5573C72.2329 79.8559 72.7686 78.8669 73.261 77.8676C73.6778 76.9696 74.1372 76.1032 74.6368 75.2731C75.6233 73.7338 76.9658 72.5131 77.6312 70.7214C77.8275 70.1876 77.9639 69.6166 78.1869 69.1035C78.4251 68.6304 78.6944 68.1826 78.992 67.7648C79.758 66.5846 80.3704 65.2624 80.807 63.8462C80.9601 63.3517 81.0915 62.8221 81.0316 62.2986C80.9135 61.291 80.1466 60.629 79.4329 60.1345C78.9987 59.8345 78.5445 59.5428 78.0504 59.4973C77.3284 59.4269 76.6181 59.911 76.1739 60.6207C75.7463 61.3547 75.5074 62.2325 75.4885 63.1386C75.4386 64.2414 75.6116 65.3876 75.3222 66.4304C75.1691 66.9168 74.9576 67.3716 74.695 67.7793C73.7605 69.3342 72.6039 70.6618 71.283 71.6959C71.2468 70.9133 71.1103 70.1429 70.8787 69.4138C70.7523 69.0124 68.2736 69.4138 67.9508 69.48C67.312 69.5959 66.0743 69.6869 65.6717 70.4442C65.2691 71.2014 65.7682 72.4738 65.9312 73.2373L66.7697 77.1724Z" fill="#A1616A"/>
<path d="M66.7098 59.7869C66.3416 60.1653 65.9988 60.5804 65.685 61.0283C64.9464 62.1352 64.5854 63.5752 64.4922 65.009C64.3991 66.4428 64.5571 67.8828 64.7551 69.3C64.9348 70.5717 65.1471 71.8345 65.3922 73.0883C65.4604 72.1428 66.076 71.3607 66.7897 71.0193C67.5033 70.6779 68.2869 70.7152 69.0471 70.8538C70.0256 71.0341 70.9802 71.3771 71.8852 71.8738L72.2362 65.7559C72.3101 64.9305 72.3062 64.0973 72.2246 63.2731C72.114 62.5083 71.8738 61.7815 71.5198 61.1412C71.1659 60.5009 70.7063 59.9616 70.1717 59.5593C68.8375 58.5497 67.9076 58.4855 66.7098 59.7869Z" fill="#46455B"/>
<path d="M129.557 89.5572C129.399 87.8969 129.01 86.2833 128.409 84.7883C128.041 83.8779 127.594 83.0069 127.362 82.0324C127.174 81.24 127.138 80.4062 126.988 79.6014C126.838 78.7965 126.574 78.0269 126.361 77.2407C124.855 71.6545 125.987 65.5427 125.501 59.6876C125.32 57.5276 124.787 55.1586 123.282 54.0331C122.387 53.3648 121.312 53.2614 120.259 53.2055L119.778 53.1786L119.006 53.131C117.888 53.0627 116.767 53.011 115.679 53.3027C114.348 53.6648 112.771 54.8296 112.352 56.52C112.122 56.3731 111.891 56.2427 111.678 56.1207C110.821 55.6479 109.923 55.3007 109.001 55.0862C109.792 54.8386 110.555 54.4717 111.274 53.9938C112.938 52.7896 113.323 49.2724 113.663 46.92C114.002 44.5676 113.693 42.1365 113.129 39.8503C112.943 39.0391 112.689 38.2542 112.372 37.5083C111.934 36.5258 111.338 35.6662 110.621 34.9831C109.904 34.3 109.081 33.8082 108.204 33.5383C107.328 33.2684 106.416 33.2263 105.525 33.4145C104.635 33.6028 103.785 34.0174 103.029 34.6324C101.477 35.8965 100.035 37.7359 98.8503 39.5131C98.6839 39.7572 97.9885 40.6221 98.2198 40.9862C98.3495 41.1931 98.7771 41.0276 99.2263 40.7793C98.8807 41.7501 98.7027 42.8003 98.7039 43.8621C98.7049 45.1956 98.985 46.5058 99.5168 47.6638C100.049 48.8218 100.814 49.7876 101.737 50.4662L101.903 52.3696V52.3841C101.921 53.0193 101.93 53.6545 101.936 54.2876C101.936 54.7324 101.936 55.1876 101.926 55.6427C101.236 56.6141 100.391 57.3962 99.4442 57.9393C100.226 58.1007 100.971 57.8731 101.697 57.4841C101.579 57.9923 101.381 58.4663 101.114 58.8786C101.314 58.7917 101.514 58.7131 101.713 58.6303C101.609 58.8388 101.516 59.0559 101.435 59.28C101.312 59.6343 101.223 60.005 101.168 60.3848C100.744 61.1546 100.377 61.9703 100.071 62.8221V62.8221C99.9316 63.209 99.8068 63.6021 99.6937 64.0014V64.0283C99.5828 64.4255 99.4847 64.8283 99.3993 65.2365C99.3593 65.4324 99.3227 65.629 99.2895 65.8262C99.2895 65.8407 99.2895 65.8552 99.2895 65.8696C99.2229 66.269 99.168 66.6703 99.1231 67.0759C99.1231 67.1028 99.1231 67.1296 99.1231 67.1586C99.1048 67.3469 99.0882 67.5372 99.0765 67.7276C99.0765 67.7276 99.0765 67.7462 99.0765 67.7565C99.0632 67.9634 99.0532 68.16 99.0482 68.3628C99.0482 68.3896 99.0482 68.4145 99.0482 68.4414C99.0482 68.6131 99.0482 68.7869 99.0482 68.9586V69.0765C99.0482 69.4655 99.0682 69.8565 99.0982 70.2476C99.0982 70.2952 99.0982 70.3448 99.1098 70.3924C99.1231 70.5517 99.1381 70.711 99.1564 70.8724C99.1564 70.9096 99.1564 70.9469 99.168 70.9821C99.1896 71.1745 99.2146 71.3648 99.2429 71.5552C99.2429 71.5965 99.2579 71.64 99.2645 71.6814C99.2878 71.8345 99.3128 71.9855 99.341 72.1386L99.371 72.2959C99.4076 72.4862 99.4458 72.6745 99.4891 72.8648C99.514 72.9724 99.539 73.0717 99.5656 73.1855C99.645 73.5777 99.7007 73.9767 99.732 74.3793L98.822 74.4165C96.8745 74.4855 94.9287 74.5952 92.9845 74.7455C92.7416 73.5807 91.9131 72.9083 90.8701 72.749C90.7044 72.7241 90.5378 72.7117 90.371 72.7117V72.7117C90.5509 72.5232 90.7108 72.307 90.8468 72.0683C91.0278 71.7586 91.1568 71.4068 91.2261 71.0338C90.958 71.2235 90.7236 71.479 90.5373 71.7848C90.4758 71.8883 90.4209 71.9917 90.371 72.0869V71.4662C90.3712 71.4531 90.3693 71.44 90.3654 71.4279C90.3614 71.4157 90.3556 71.4046 90.3481 71.3953C90.3406 71.3861 90.3317 71.3788 90.322 71.3739C90.3122 71.369 90.3017 71.3666 90.2911 71.3669H90.1248C90.1142 71.3666 90.1037 71.369 90.0939 71.3739C90.0842 71.3788 90.0753 71.3861 90.0678 71.3953C90.0603 71.4046 90.0545 71.4157 90.0505 71.4279C90.0466 71.44 90.0447 71.4531 90.0449 71.4662V72.7303H90.0116H89.9551C89.8453 72.7427 89.7388 72.7593 89.634 72.7841C88.5011 73.0469 87.671 73.951 87.671 75.4738C87.6713 75.9533 87.7554 76.427 87.9174 76.8621C88.0794 77.2972 88.3154 77.6833 88.6092 77.9938C88.658 78.468 88.7444 78.9351 88.8671 79.3883C88.9819 79.8372 89.1316 80.3255 89.4677 80.549C89.673 80.6648 89.8981 80.716 90.1231 80.6979C91.973 80.6979 93.7231 79.6365 95.5647 79.4565C96.7026 79.3428 97.8455 79.5621 98.9867 79.5186C99.1531 79.5186 99.3194 79.4979 99.4858 79.4814C97.9253 89.0917 96.0371 98.8241 97.0237 108.532C97.0885 109.177 97.19 109.877 97.5776 110.315C98.0917 110.899 98.8835 110.803 99.5739 110.729C101.468 110.514 103.379 110.704 105.222 111.29C105.481 111.379 105.753 111.391 106.017 111.325C106.073 111.309 106.129 111.289 106.183 111.265L106.23 111.242C106.265 111.226 106.298 111.209 106.33 111.19L106.378 111.159L106.46 111.097C106.473 111.085 106.488 111.074 106.499 111.062C106.528 111.037 106.556 111.01 106.581 110.979L106.604 110.954C106.635 110.917 106.665 110.876 106.692 110.834L106.712 110.797C106.732 110.766 106.749 110.734 106.766 110.7C106.774 110.683 106.782 110.667 106.789 110.65C106.796 110.634 106.816 110.588 106.827 110.557C106.839 110.526 106.84 110.52 106.845 110.501C106.85 110.483 106.867 110.433 106.877 110.398C106.887 110.363 106.877 110.365 106.89 110.346C106.904 110.328 106.914 110.243 106.922 110.191V110.158C106.922 110.114 106.935 110.069 106.94 110.026C106.945 109.982 106.94 109.98 106.94 109.957C106.94 109.934 106.94 109.889 106.94 109.856V109.781C106.94 109.748 106.94 109.715 106.94 109.682V109.498C106.94 109.477 106.94 109.454 106.94 109.432C106.94 109.248 106.924 109.061 106.909 108.883C107.028 108.926 107.149 108.959 107.271 108.981V108.981C107.386 109.003 107.502 109.014 107.617 109.012H107.634C107.689 109.012 107.744 109.012 107.8 108.995C107.849 108.986 107.896 108.974 107.943 108.958H107.965C108.009 108.942 108.051 108.921 108.091 108.896L108.111 108.881C108.146 108.857 108.179 108.83 108.21 108.799L108.225 108.784C108.256 108.748 108.284 108.708 108.308 108.664L108.323 108.633C108.347 108.583 108.367 108.53 108.381 108.474C108.476 108.074 108.26 107.623 108.606 107.257C108.938 108.583 109.271 109.912 109.326 111.283C109.344 111.784 109.326 112.318 109.562 112.732C109.716 112.958 109.883 113.169 110.061 113.365C110.57 114.05 110.582 115.082 110.547 116.009C110.532 116.383 110.515 116.758 110.494 117.132C110.219 122.13 109.402 127.058 108.065 131.783C107.935 132.285 107.764 132.771 107.556 133.231C107.218 133.883 106.796 134.46 106.306 134.94C105.613 135.673 104.87 136.329 104.086 136.903C103.685 137.167 103.307 137.479 102.956 137.837C102.943 137.789 102.928 137.743 102.918 137.694C102.899 137.599 102.874 137.487 102.8 137.452C102.743 137.436 102.683 137.448 102.633 137.485C101.853 137.911 101.073 138.337 100.323 138.836C99.9438 139.051 99.6101 139.371 99.3477 139.773C99.1081 140.187 99.0366 140.808 99.2845 141.221C99.5024 141.583 99.8933 141.703 100.254 141.784C100.717 141.886 101.181 141.958 101.645 142.012C101.407 142.186 101.198 142.416 101.031 142.69C100.792 143.104 100.72 143.725 100.968 144.139C101.186 144.501 101.577 144.621 101.938 144.701C104.887 145.349 107.912 144.908 110.906 144.799C111.879 144.759 112.874 144.751 113.796 144.358C113.978 144.291 114.147 144.181 114.295 144.033C114.714 143.574 114.673 142.767 114.599 142.082L114.295 139.285C114.25 139.285 114.207 139.303 114.164 139.316C114.419 136.688 114.876 134.097 115.529 131.578C116.544 127.657 118.055 123.794 118.035 119.692C118.035 119.592 118.035 119.485 118.035 119.394C118.006 118.109 117.822 116.839 117.702 115.56C117.514 113.421 117.536 111.263 117.547 109.113C117.533 108.27 117.58 107.427 117.689 106.595C117.689 106.566 117.699 106.539 117.704 106.51L120.467 106.419C120.773 106.439 121.079 106.368 121.359 106.212C121.491 106.14 121.597 106.009 121.657 105.846C121.716 105.682 121.725 105.496 121.681 105.325C122.859 105.989 124.435 105.085 124.782 103.546C124.806 103.437 124.826 103.327 124.84 103.217C124.84 103.208 124.84 103.2 124.84 103.192C124.852 103.088 124.86 102.985 124.864 102.883C124.864 102.867 124.864 102.848 124.864 102.832C124.881 102.121 124.792 101.413 124.603 100.742C124.037 98.7496 123.139 96.9352 122.294 95.1C121.858 94.1503 121.435 93.1883 121.024 92.2221L121.385 92.7993C121.512 93.0347 121.678 93.2331 121.873 93.3807C122.546 93.8131 123.252 92.9421 123.937 92.5407C124.847 92.0069 125.912 92.3214 126.917 92.4103C127.921 92.4993 129.133 92.1765 129.492 91.0179C129.608 90.5448 129.631 90.0435 129.557 89.5572V89.5572ZM112.234 58.4627C112.234 58.9055 112.257 59.3545 112.285 59.8055C111.948 59.1192 111.558 58.4748 111.121 57.8814L112.234 58.4627Z" fill="url(#paint1_linear)"/>
<path d="M90.4991 72.1572C90.6833 71.854 90.9147 71.6 91.1795 71.4103C91.112 71.783 90.9847 72.1348 90.8052 72.4448C90.5157 72.9352 90.2113 73.2724 90.1265 73.1917C90.0416 73.111 90.2063 72.6476 90.4991 72.1572Z" fill="#99D55C"/>
<path opacity="0.1" d="M90.5357 72.1945C90.6702 71.9691 90.84 71.7798 91.0347 71.6379C90.9841 71.9136 90.8896 72.1739 90.7569 72.4035C90.5407 72.7676 90.3144 73.0242 90.2578 72.96C90.2013 72.8959 90.3194 72.5586 90.5357 72.1945Z" fill="black"/>
<path d="M90.0948 71.7455H90.2612C90.2717 71.7455 90.282 71.7481 90.2917 71.7531C90.3014 71.7581 90.3102 71.7654 90.3176 71.7746C90.3251 71.7838 90.3309 71.7948 90.335 71.8068C90.339 71.8189 90.341 71.8318 90.341 71.8448V74.189H90.025V71.8448C90.0248 71.8205 90.0318 71.797 90.0447 71.7786C90.0576 71.7603 90.0754 71.7486 90.0948 71.7455V71.7455Z" fill="#F6987E"/>
<path d="M92.9945 75.8441C92.9945 76.7221 92.714 77.5641 92.2149 78.1849C91.7157 78.8057 91.0387 79.1545 90.3327 79.1545C89.6268 79.1545 88.9498 78.8057 88.4506 78.1849C87.9514 77.5641 87.671 76.7221 87.671 75.8441C87.671 74.3276 88.4911 73.4297 89.6107 73.1669C89.8489 73.1123 90.0906 73.0853 90.3327 73.0862C90.4995 73.0859 90.6662 73.0984 90.8318 73.1235C92.0628 73.3138 92.9945 74.2283 92.9945 75.8441Z" fill="#FC4A4A"/>
<path d="M102.51 140.348C102.878 140.762 103.44 140.752 103.939 140.706L106.213 140.499C108.02 140.334 109.888 140.148 111.482 139.078C111.651 138.982 111.8 138.841 111.919 138.664C112.046 138.394 112.112 138.086 112.111 137.772C112.326 134.708 112.816 131.683 113.571 128.754C114.57 124.854 116.067 121.01 116.047 116.928C116.047 116.828 116.047 116.721 116.047 116.632C116.018 115.353 115.837 114.089 115.726 112.817C115.541 110.688 115.559 108.542 115.573 106.403C115.558 105.564 115.605 104.725 115.712 103.897C115.817 103.225 116.211 102.55 115.97 101.959C115.503 100.81 113.808 100.388 112.896 100.347C111.668 100.293 110.46 100.692 109.274 101.09C108.913 101.212 108.536 101.342 108.263 101.659C107.897 102.085 107.792 102.753 107.779 103.376C107.716 106.138 108.995 108.708 109.096 111.466C109.115 111.962 109.096 112.5 109.329 112.914C109.483 113.139 109.65 113.35 109.828 113.545C110.327 114.226 110.342 115.252 110.307 116.174C110.292 116.547 110.276 116.919 110.256 117.292C109.984 122.262 109.177 127.165 107.855 131.868C107.728 132.37 107.561 132.855 107.356 133.316C107.022 133.963 106.605 134.538 106.122 135.017C105.437 135.744 104.702 136.398 103.928 136.97C103.41 137.35 102.858 137.714 102.504 138.319C102.149 138.923 102.071 139.839 102.51 140.348Z" fill="#FDA8A8"/>
<path opacity="0.1" d="M102.51 140.348C102.878 140.762 103.44 140.752 103.939 140.706L106.213 140.499C108.02 140.334 109.888 140.148 111.482 139.078C111.651 138.982 111.8 138.841 111.919 138.664C112.046 138.394 112.112 138.086 112.111 137.772C112.326 134.708 112.816 131.683 113.571 128.754C114.57 124.854 116.067 121.01 116.047 116.928C116.047 116.828 116.047 116.721 116.047 116.632C116.018 115.353 115.837 114.089 115.726 112.817C115.541 110.688 115.559 108.542 115.573 106.403C115.558 105.564 115.605 104.725 115.712 103.897C115.817 103.225 116.211 102.55 115.97 101.959C115.503 100.81 113.808 100.388 112.896 100.347C111.668 100.293 110.46 100.692 109.274 101.09C108.913 101.212 108.536 101.342 108.263 101.659C107.897 102.085 107.792 102.753 107.779 103.376C107.716 106.138 108.995 108.708 109.096 111.466C109.115 111.962 109.096 112.5 109.329 112.914C109.483 113.139 109.65 113.35 109.828 113.545C110.327 114.226 110.342 115.252 110.307 116.174C110.292 116.547 110.276 116.919 110.256 117.292C109.984 122.262 109.177 127.165 107.855 131.868C107.728 132.37 107.561 132.855 107.356 133.316C107.022 133.963 106.605 134.538 106.122 135.017C105.437 135.744 104.702 136.398 103.928 136.97C103.41 137.35 102.858 137.714 102.504 138.319C102.149 138.923 102.071 139.839 102.51 140.348Z" fill="black"/>
<path d="M102.51 140.348C102.878 140.762 103.44 140.752 103.939 140.706L106.213 140.499C108.02 140.334 109.888 140.148 111.482 139.078C111.651 138.982 111.8 138.841 111.919 138.664C112.046 138.394 112.112 138.086 112.111 137.772C112.326 134.708 112.816 131.683 113.571 128.754C114.57 124.854 116.067 121.01 116.047 116.928C114.124 117.192 112.19 117.311 110.256 117.283C109.984 122.254 109.177 127.156 107.855 131.859C107.728 132.361 107.561 132.847 107.356 133.308C107.022 133.955 106.605 134.529 106.122 135.008C105.437 135.736 104.702 136.389 103.928 136.961C103.41 137.342 102.858 137.706 102.504 138.31C102.149 138.915 102.071 139.839 102.51 140.348Z" fill="#EEEFF3"/>
<path opacity="0.1" d="M102.51 140.348C102.878 140.762 103.44 140.752 103.939 140.706L106.213 140.499C108.02 140.334 109.888 140.148 111.482 139.078C111.651 138.982 111.8 138.841 111.919 138.664C112.046 138.394 112.112 138.086 112.111 137.772C112.326 134.708 112.816 131.683 113.571 128.754C114.57 124.854 116.067 121.01 116.047 116.928C114.124 117.192 112.19 117.311 110.256 117.283C109.984 122.254 109.177 127.156 107.855 131.859C107.728 132.361 107.561 132.847 107.356 133.308C107.022 133.955 106.605 134.529 106.122 135.008C105.437 135.736 104.702 136.389 103.928 136.961C103.41 137.342 102.858 137.706 102.504 138.31C102.149 138.915 102.071 139.839 102.51 140.348Z" fill="black"/>
<path d="M107.534 139.475C108.081 139.232 108.606 138.92 109.101 138.544L111.608 136.786C111.835 136.603 112.087 136.476 112.352 136.411L112.651 139.194C112.726 139.877 112.766 140.679 112.352 141.137C112.204 141.283 112.034 141.393 111.853 141.459C110.943 141.85 109.961 141.859 108.998 141.896C106.04 142.014 103.052 142.444 100.138 141.799C99.7819 141.72 99.3959 141.592 99.1813 141.24C98.9368 140.826 99.0067 140.226 99.2429 139.806C99.5018 139.407 99.8315 139.088 100.206 138.873C100.948 138.377 101.718 137.954 102.489 137.53C102.536 137.495 102.592 137.484 102.647 137.497C102.721 137.528 102.745 137.642 102.765 137.737C102.899 138.416 103.339 138.952 103.839 139.272C103.846 139.272 106.426 139.914 107.534 139.475Z" fill="#BBBDC8"/>
<path opacity="0.1" d="M107.534 139.475C108.081 139.232 108.606 138.92 109.101 138.544L111.608 136.786C111.835 136.603 112.087 136.476 112.352 136.411L112.651 139.194C112.726 139.877 112.766 140.679 112.352 141.137C112.204 141.283 112.034 141.393 111.853 141.459C110.943 141.85 109.961 141.859 108.998 141.896C106.04 142.014 103.052 142.444 100.138 141.799C99.7819 141.72 99.3959 141.592 99.1813 141.24C98.9368 140.826 99.0067 140.226 99.2429 139.806C99.5018 139.407 99.8315 139.088 100.206 138.873C100.948 138.377 101.718 137.954 102.489 137.53C102.536 137.495 102.592 137.484 102.647 137.497C102.721 137.528 102.745 137.642 102.765 137.737C102.899 138.416 103.339 138.952 103.839 139.272C103.846 139.272 106.426 139.914 107.534 139.475Z" fill="black"/>
<path d="M104.174 143.245C104.541 143.659 105.104 143.648 105.603 143.603L107.877 143.396C109.684 143.23 111.552 143.044 113.145 141.974C113.314 141.879 113.464 141.737 113.583 141.561C113.71 141.29 113.776 140.982 113.774 140.669C113.99 137.604 114.479 134.58 115.235 131.65C116.233 127.75 117.73 123.906 117.71 119.824C117.71 119.725 117.71 119.617 117.71 119.528C117.682 118.25 117.501 116.986 117.389 115.713C117.205 113.584 117.223 111.439 117.236 109.299C117.222 108.461 117.269 107.622 117.376 106.794C117.481 106.121 117.875 105.447 117.634 104.855C117.166 103.707 115.471 103.285 114.56 103.243C113.332 103.19 112.124 103.589 110.938 103.986C110.577 104.108 110.199 104.239 109.926 104.555C109.56 104.981 109.456 105.65 109.442 106.272C109.379 109.034 110.658 111.604 110.76 114.362C110.778 114.859 110.76 115.397 110.993 115.81C111.146 116.036 111.313 116.247 111.492 116.441C111.991 117.122 112.006 118.148 111.971 119.071C111.956 119.443 111.939 119.816 111.919 120.188C111.648 125.159 110.84 130.061 109.519 134.764C109.391 135.266 109.224 135.751 109.02 136.212C108.686 136.86 108.269 137.434 107.785 137.913C107.1 138.641 106.366 139.294 105.591 139.866C105.074 140.247 104.521 140.611 104.167 141.215C103.813 141.819 103.735 142.736 104.174 143.245Z" fill="#FDA8A8"/>
<path d="M104.174 143.245C104.541 143.659 105.104 143.648 105.603 143.603L107.877 143.396C109.684 143.23 111.552 143.044 113.145 141.974C113.314 141.879 113.464 141.737 113.583 141.561C113.71 141.29 113.776 140.982 113.774 140.669C113.99 137.604 114.479 134.58 115.235 131.65C116.233 127.75 117.73 123.906 117.71 119.824C115.788 120.089 113.854 120.207 111.919 120.18C111.648 125.15 110.84 130.053 109.519 134.756C109.391 135.258 109.224 135.743 109.02 136.204C108.686 136.851 108.269 137.426 107.785 137.905C107.1 138.633 106.366 139.286 105.591 139.858C105.074 140.239 104.521 140.603 104.167 141.207C103.813 141.811 103.735 142.736 104.174 143.245Z" fill="#EEEFF3"/>
<path d="M109.198 142.372C109.744 142.128 110.269 141.816 110.765 141.441L113.272 139.682C113.498 139.5 113.751 139.373 114.016 139.308L114.315 142.09C114.39 142.773 114.43 143.576 114.016 144.033C113.868 144.18 113.698 144.29 113.516 144.356C112.606 144.747 111.625 144.755 110.662 144.792C107.704 144.91 104.716 145.341 101.801 144.695C101.445 144.617 101.06 144.488 100.845 144.137C100.6 143.723 100.67 143.123 100.906 142.703C101.165 142.304 101.495 141.984 101.87 141.77C102.612 141.273 103.382 140.851 104.152 140.427C104.2 140.392 104.256 140.38 104.31 140.394C104.385 140.425 104.408 140.539 104.428 140.634C104.563 141.312 105.002 141.848 105.503 142.169C105.51 142.169 108.09 142.81 109.198 142.372Z" fill="#BBBDC8"/>
<path d="M100.948 59.3193C101.758 58.0779 101.78 56.3441 101.76 54.751C101.76 54.1303 101.745 53.489 101.727 52.8579V52.8434C101.704 51.6837 101.606 50.5281 101.432 49.3883V49.3883C101.345 48.8413 101.228 48.3022 101.083 47.7745C101.193 47.7434 101.302 47.7145 101.416 47.6896C103.159 47.2614 104.954 47.2614 106.697 47.6896C106.999 47.7641 107.76 47.7476 108.195 47.9317C108.318 47.9684 108.426 48.0624 108.496 48.1945C108.581 48.4159 108.406 49.0572 108.279 49.6262C108.21 49.8826 108.171 50.1502 108.163 50.4207C108.18 50.6748 108.211 50.9272 108.256 51.1759C108.334 51.6331 108.438 52.0862 108.486 52.5497C108.571 53.34 108.496 54.1448 108.537 54.9414C108.579 55.7379 108.764 56.5759 109.251 57.0952C106.419 57.3971 103.629 58.1445 100.948 59.3193V59.3193Z" fill="#FDA8A8"/>
<path opacity="0.1" d="M108.92 51.0848C108.699 51.1076 108.479 51.1345 108.255 51.1655C106.039 51.4597 103.852 52.0281 101.727 52.8621V52.8476L101.432 49.3924C101.432 49.1855 101.432 48.9786 101.432 48.7614C101.432 48.4076 101.424 48.0497 101.417 47.6938C103.161 47.2655 104.955 47.2655 106.699 47.6938C107 47.7683 107.762 47.7517 108.196 47.9359C108.196 48.2731 108.196 48.6103 108.206 48.9476C108.217 49.1772 108.242 49.4055 108.281 49.6304V49.6304C108.361 50.1889 108.585 50.6997 108.92 51.0848V51.0848Z" fill="black"/>
<path d="M104.723 52.0345C108.122 52.0345 110.878 48.6071 110.878 44.3793C110.878 40.1515 108.122 36.7241 104.723 36.7241C101.323 36.7241 98.5675 40.1515 98.5675 44.3793C98.5675 48.6071 101.323 52.0345 104.723 52.0345Z" fill="#FDA8A8"/>
<path d="M99.3161 73.2434C98.2231 68.4331 99.2213 63.2669 101.831 59.4683C102.412 58.6221 102.996 57.7531 103.758 57.2462C104.665 56.6462 105.738 56.6255 106.764 56.6131C107.671 56.6131 108.606 56.6131 109.439 57.0621C110.565 57.66 111.342 58.9593 111.998 60.2483C112.696 61.6221 113.328 63.1096 113.435 64.7317C113.492 65.6938 113.355 66.6703 113.47 67.6283C113.616 68.8428 114.16 69.931 114.383 71.1269C114.505 71.7724 114.53 72.4407 114.608 73.0986C114.726 73.9987 114.897 74.8866 115.12 75.7552C116.773 82.5808 119.036 89.1543 121.868 95.3524C122.699 97.1793 123.589 98.9855 124.148 100.966C124.401 101.861 124.584 102.828 124.378 103.75C124.034 105.281 122.478 106.181 121.315 105.521C121.358 105.691 121.35 105.875 121.291 106.038C121.232 106.2 121.127 106.33 120.996 106.403C120.719 106.558 120.417 106.629 120.114 106.61L109.84 106.949C109.57 106.957 109.302 107.003 109.04 107.083C107.832 107.468 108.286 108.118 108.156 108.66C107.998 109.322 107.235 109.268 106.702 109.074C106.784 110.04 106.802 111.221 105.799 111.503C105.539 111.568 105.27 111.557 105.014 111.47C103.194 110.886 101.306 110.698 99.4342 110.911C98.7488 110.99 97.9653 111.085 97.4579 110.497C97.0752 110.061 96.9754 109.366 96.9105 108.724C95.8874 98.5862 97.9919 88.4338 99.5723 78.4179C99.7852 77.0669 99.7087 74.8779 99.3893 73.5579L99.3161 73.2434Z" fill="#F75842"/>
<path d="M112.957 66.2566C113.199 67.1214 113.5 67.9717 113.581 68.8821C113.646 69.6104 113.568 70.3469 113.603 71.0773C113.667 71.8881 113.801 72.688 114.004 73.4628C114.324 74.9697 114.719 76.4504 115.187 77.8966C115.41 78.5483 115.667 79.2662 115.488 79.9386C115.308 80.611 114.751 81.0269 114.591 81.6952C114.425 82.4007 114.757 83.1435 115.182 83.6586C115.606 84.1738 116.137 84.54 116.529 85.0883C116.957 85.6862 117.195 86.4497 117.496 87.1573C117.923 88.0931 118.414 88.9825 118.961 89.8159L120.973 93.0621C121.098 93.2961 121.263 93.4937 121.455 93.6414C122.121 94.0717 122.818 93.2048 123.495 92.8138C124.393 92.2821 125.444 92.5945 126.438 92.6835C127.431 92.7724 128.627 92.4518 128.981 91.2973C129.098 90.8287 129.123 90.3319 129.053 89.849C128.897 88.1981 128.513 86.5931 127.918 85.1048C127.555 84.1986 127.113 83.3317 126.885 82.3614C126.699 81.5731 126.662 80.7435 126.514 79.9428C126.366 79.1421 126.105 78.3766 125.895 77.5945C124.408 72.0373 125.526 65.9566 125.045 60.1303C124.867 57.9807 124.34 55.6241 122.852 54.5048C121.969 53.8407 120.908 53.7372 119.858 53.6772L119.384 53.6503L118.62 53.6028C117.516 53.5345 116.408 53.4828 115.331 53.7745C113.818 54.1883 111.996 55.651 111.936 57.7531C111.871 60.6403 112.217 63.5191 112.957 66.2566Z" fill="#496294"/>
<path opacity="0.1" d="M118.629 53.5945C118.833 55.0023 118.935 56.4301 118.933 57.8607C118.963 61.9448 119.317 66.0124 119.673 70.0676L119.908 72.7573C119.951 73.2538 120.003 73.7752 120.241 74.1745C120.479 74.5738 120.978 74.7828 121.292 74.4745C121.485 73.5248 121.447 72.5276 121.408 71.549C121.325 69.4676 121.243 67.3855 121.161 65.3028C121.081 63.2752 120.994 61.2455 120.796 59.2303C120.641 57.6695 120.412 56.1213 120.111 54.5938C120.054 54.2774 119.974 53.9679 119.873 53.669L119.399 53.6421L118.629 53.5945Z" fill="black"/>
<path d="M107.759 55.3448C106.739 55.1628 105.671 55.0697 104.703 55.5103C103.778 55.9345 103.039 56.8055 102.374 57.7221C101.92 58.3127 101.545 58.9894 101.262 59.7269C100.695 61.349 100.916 63.2193 101.262 64.9366C102.206 69.6662 104.079 74.2283 107.085 77.3503C108 78.275 108.974 79.1054 109.998 79.8331C111.329 80.8034 112.703 81.6952 114.175 82.2559C114.586 82.4131 115.024 82.5455 115.445 82.4338C115.865 82.3221 116.263 81.8979 116.276 81.3621C113.864 79.6759 111.701 77.4972 109.554 75.329C108.965 74.7641 108.414 74.1415 107.905 73.4669C107.143 72.4014 106.606 71.1145 105.867 70.0241C105.202 69.0455 104.37 68.22 103.871 67.1007C103.558 66.3363 103.348 65.5128 103.25 64.6635C103.004 62.9317 102.958 61.0924 103.51 59.4724C104.062 57.8524 105.328 56.5221 106.742 56.551C107.468 56.5655 108.158 56.9235 108.827 57.2731L113.036 59.4828C112.984 59.4538 113.277 58.5455 113.264 58.4193C113.224 58.0241 113.167 58.0179 112.931 57.7179C112.528 57.2172 111.903 56.8655 111.392 56.5738C110.235 55.9498 109.011 55.5359 107.759 55.3448V55.3448Z" fill="#496294"/>
<path d="M99.381 42.931C100.582 42.5992 101.693 41.8865 102.607 40.8621L101.727 46.6055C102.603 46.1051 103.453 45.5356 104.272 44.9007C104.39 47.5283 104.219 50.2159 103.44 52.6614C102.662 55.1069 101.226 57.2959 99.2995 58.3821C101.01 58.738 102.545 57.2111 104.067 56.1786C105.129 55.4607 106.942 56.1993 108.103 55.7648C109.088 55.4048 110.099 55.0904 110.988 54.4469C112.638 53.249 113.012 49.7504 113.347 47.4124C113.681 45.0745 113.377 42.6538 112.821 40.3779C112.636 39.5719 112.386 38.7914 112.074 38.0483C111.646 37.0724 111.059 36.2177 110.351 35.5382C109.644 34.8587 108.83 34.3691 107.963 34.1004C107.095 33.8317 106.192 33.7897 105.311 33.977C104.43 34.1644 103.589 34.5771 102.843 35.189C101.309 36.4448 99.8867 38.2924 98.7155 40.0448C98.5492 40.2869 97.8621 41.1476 98.09 41.5097C98.3678 41.9483 99.9982 40.6986 100.274 40.529C100.194 40.9035 99.6987 42.8338 99.381 42.931Z" fill="#FFD566"/>
<g opacity="0.1">
<path opacity="0.1" d="M106.303 109.848C106.043 109.913 105.774 109.902 105.518 109.814C103.698 109.231 101.81 109.042 99.9383 109.256C99.2529 109.334 98.4693 109.43 97.9619 108.842C97.5793 108.405 97.4795 107.71 97.4146 107.069C96.3915 96.931 98.4959 86.7786 100.076 76.7627C100.289 75.4117 100.213 73.2227 99.8933 71.9027L99.8185 71.5821C99.2026 68.8468 99.2391 65.9479 99.9233 63.2379C98.7883 66.3828 98.5735 69.9223 99.3161 73.2434L99.3909 73.5641C99.7104 74.8841 99.7869 77.0814 99.5739 78.4241C97.9985 88.44 95.8941 98.5986 96.9122 108.73C96.9771 109.372 97.0786 110.067 97.4595 110.503C97.9586 111.085 98.7505 110.99 99.4359 110.917C101.308 110.704 103.195 110.893 105.016 111.476C105.272 111.563 105.541 111.575 105.801 111.509C106.619 111.279 106.757 110.45 106.737 109.628C106.604 109.733 106.457 109.808 106.303 109.848Z" fill="black"/>
<path opacity="0.1" d="M121.818 103.866C121.861 104.036 121.852 104.22 121.793 104.383C121.734 104.545 121.629 104.675 121.498 104.748C121.222 104.903 120.92 104.974 120.617 104.955L110.342 105.294C110.072 105.302 109.804 105.347 109.542 105.428C108.334 105.813 108.789 106.463 108.659 107.005C108.501 107.667 107.737 107.613 107.205 107.419C107.255 108.008 107.28 108.677 107.065 109.173C107.533 109.26 108.035 109.183 108.16 108.66C108.284 108.137 107.835 107.468 109.043 107.083C109.305 107.003 109.573 106.957 109.843 106.949L120.111 106.61C120.414 106.629 120.716 106.558 120.993 106.403C121.124 106.33 121.228 106.2 121.287 106.038C121.346 105.875 121.355 105.691 121.312 105.521C122.477 106.181 124.03 105.281 124.375 103.75C124.427 103.518 124.456 103.279 124.461 103.039C123.839 103.966 122.713 104.379 121.818 103.866Z" fill="black"/>
</g>
<path d="M103.848 62.7083C103.606 62.8116 103.396 63.0044 103.245 63.2607C103.312 62.3979 103.222 61.5269 103.235 60.6579C103.249 59.789 103.379 58.8828 103.819 58.2083C104.38 57.3476 105.333 57.0393 106.225 57.0103C107.519 56.9669 108.858 57.4345 109.807 58.531C110.417 59.2417 110.813 60.1909 110.93 61.2207C110.96 61.5041 111.059 62.5676 110.821 62.7497C110.613 62.911 109.823 62.3545 109.569 62.2655C107.679 61.5748 105.654 61.7315 103.848 62.7083Z" fill="#F75842"/>
<path opacity="0.1" d="M78.6876 13.8621C79.3308 13.8621 79.8521 13.2137 79.8521 12.4138C79.8521 11.6139 79.3308 10.9655 78.6876 10.9655C78.0445 10.9655 77.5231 11.6139 77.5231 12.4138C77.5231 13.2137 78.0445 13.8621 78.6876 13.8621Z" fill="#496294"/>
<path opacity="0.1" d="M86.5065 41.7931C87.1496 41.7931 87.671 41.1447 87.671 40.3448C87.671 39.545 87.1496 38.8965 86.5065 38.8965C85.8633 38.8965 85.342 39.545 85.342 40.3448C85.342 41.1447 85.8633 41.7931 86.5065 41.7931Z" fill="#496294"/>
<path opacity="0.1" d="M64.3808 15.3103C65.0239 15.3103 65.5453 14.6619 65.5453 13.8621C65.5453 13.0622 65.0239 12.4138 64.3808 12.4138C63.7376 12.4138 63.2163 13.0622 63.2163 13.8621C63.2163 14.6619 63.7376 15.3103 64.3808 15.3103Z" fill="#496294"/>
<path opacity="0.1" d="M28.6137 83.5862C30.2675 83.5862 31.6081 81.9188 31.6081 79.8621C31.6081 77.8053 30.2675 76.1379 28.6137 76.1379C26.9599 76.1379 25.6192 77.8053 25.6192 79.8621C25.6192 81.9188 26.9599 83.5862 28.6137 83.5862Z" fill="#496294"/>
<path opacity="0.1" d="M149.224 22.1379C149.867 22.1379 150.388 21.4895 150.388 20.6897C150.388 19.8898 149.867 19.2414 149.224 19.2414C148.581 19.2414 148.059 19.8898 148.059 20.6897C148.059 21.4895 148.581 22.1379 149.224 22.1379Z" fill="#496294"/>
<path opacity="0.1" d="M150.555 45.1034C152.668 45.1034 154.381 42.9729 154.381 40.3448C154.381 37.7167 152.668 35.5862 150.555 35.5862C148.441 35.5862 146.728 37.7167 146.728 40.3448C146.728 42.9729 148.441 45.1034 150.555 45.1034Z" fill="#496294"/>
<path opacity="0.1" d="M156.71 28.3448C157.353 28.3448 157.874 27.6964 157.874 26.8965C157.874 26.0967 157.353 25.4483 156.71 25.4483C156.067 25.4483 155.545 26.0967 155.545 26.8965C155.545 27.6964 156.067 28.3448 156.71 28.3448Z" fill="#496294"/>
<path opacity="0.1" d="M146.396 54.8276C147.039 54.8276 147.56 54.1792 147.56 53.3793C147.56 52.5794 147.039 51.931 146.396 51.931C145.752 51.931 145.231 52.5794 145.231 53.3793C145.231 54.1792 145.752 54.8276 146.396 54.8276Z" fill="#496294"/>
<path opacity="0.1" d="M76.3586 25.4483C77.0017 25.4483 77.5231 24.7999 77.5231 24C77.5231 23.2001 77.0017 22.5517 76.3586 22.5517C75.7155 22.5517 75.1941 23.2001 75.1941 24C75.1941 24.7999 75.7155 25.4483 76.3586 25.4483Z" fill="#496294"/>
<path opacity="0.1" d="M32.7726 98.6897C33.4158 98.6897 33.9372 98.0412 33.9372 97.2414C33.9372 96.4415 33.4158 95.7931 32.7726 95.7931C32.1295 95.7931 31.6081 96.4415 31.6081 97.2414C31.6081 98.0412 32.1295 98.6897 32.7726 98.6897Z" fill="#496294"/>
<path opacity="0.1" d="M30.9427 65.5862C31.5858 65.5862 32.1072 64.9378 32.1072 64.1379C32.1072 63.3381 31.5858 62.6897 30.9427 62.6897C30.2995 62.6897 29.7782 63.3381 29.7782 64.1379C29.7782 64.9378 30.2995 65.5862 30.9427 65.5862Z" fill="#496294"/>
<path opacity="0.1" d="M94.8244 12.4138C95.4675 12.4138 95.9889 11.7654 95.9889 10.9655C95.9889 10.1657 95.4675 9.51724 94.8244 9.51724C94.1812 9.51724 93.6599 10.1657 93.6599 10.9655C93.6599 11.7654 94.1812 12.4138 94.8244 12.4138Z" fill="#496294"/>
<path opacity="0.1" d="M98.6506 25.4483C99.2938 25.4483 99.8152 24.7999 99.8152 24C99.8152 23.2001 99.2938 22.5517 98.6506 22.5517C98.0075 22.5517 97.4861 23.2001 97.4861 24C97.4861 24.7999 98.0075 25.4483 98.6506 25.4483Z" fill="#496294"/>
<defs>
<linearGradient id="paint0_linear" x1="63.9749" y1="145.786" x2="63.9749" y2="33.931" gradientUnits="userSpaceOnUse">
<stop stop-color="#808080" stop-opacity="0.25"/>
<stop offset="0.54" stop-color="#808080" stop-opacity="0.12"/>
<stop offset="1" stop-color="#808080" stop-opacity="0.1"/>
</linearGradient>
<linearGradient id="paint1_linear" x1="29940.7" y1="88151.1" x2="29940.7" y2="27802.7" gradientUnits="userSpaceOnUse">
<stop stop-color="#808080" stop-opacity="0.25"/>
<stop offset="0.54" stop-color="#808080" stop-opacity="0.12"/>
<stop offset="1" stop-color="#808080" stop-opacity="0.1"/>
</linearGradient>
</defs>
</svg>
