<svg width="204" height="150" viewBox="0 0 204 150" fill="none" xmlns="http://www.w3.org/2000/svg">
<rect width="204" height="150" fill="#E5E5E5"/>
<g clip-path="url(#clip0)">
<path opacity="0.1" d="M89.9117 5.6624C81.8381 2.40702 73.3085 -0.310643 64.6013 0.030881C51.7986 0.530451 39.5198 8.16933 33.4921 19.3833C28.3838 28.8842 27.7538 40.0201 25.5541 50.5638C22.8397 63.5562 17.649 75.8983 12.103 87.9716C9.12491 94.4569 5.98194 101.082 5.49475 108.192C4.81523 118.06 9.57182 127.895 17.0336 134.461C24.4954 141.026 34.4005 144.49 44.3441 145.246C49.6355 145.647 55.165 145.275 59.8667 142.832C64.8375 140.248 68.464 135.578 73.4551 133.031C78.0816 130.669 83.4939 130.337 88.6882 130.646C95.4911 131.051 102.195 132.464 108.575 134.838C115.836 137.543 122.587 141.458 129.831 144.201C137.075 146.944 145.168 148.472 152.573 146.185C159.522 144.036 165.028 138.817 169.973 133.531C178.11 124.852 185.532 115.539 192.166 105.682C196.637 99.0402 200.798 92.0317 202.777 84.2893C206.555 69.4875 201.353 52.7873 189.816 42.6887C180.263 34.3086 167.435 30.6754 154.877 28.4628C143.426 26.4518 130.186 26.3264 119.645 21.0837C109.594 16.0843 100.447 9.91328 89.9117 5.6624Z" fill="#496294"/>
<path d="M171.074 104.804L171.38 105.11L171.517 104.585L171.371 104.067H170.993L171.074 104.804Z" fill="#464A5F"/>
<path opacity="0.1" d="M171.074 104.804L171.38 105.11L171.517 104.585L171.371 104.067H170.993L171.074 104.804Z" fill="black"/>
<path d="M171.074 104.804L171.371 105.119L171.074 105.464L170.755 105.346L170.676 105.193L171.074 104.804Z" fill="#9C9CA1"/>
<path opacity="0.1" d="M171.074 104.804L171.371 105.119L171.074 105.464L170.755 105.346L170.676 105.193L171.074 104.804Z" fill="black"/>
<path d="M114.695 49.6191L81.1989 82.8414C80.5967 83.4388 80.2576 84.2484 80.2559 85.0931C80.2542 85.9378 80.59 86.7487 81.1897 87.3485L132.532 138.677C133.133 139.277 133.948 139.616 134.8 139.62C135.652 139.625 136.472 139.294 137.078 138.701L171.074 105.466L114.695 49.6191Z" fill="#9C9CA1"/>
<path opacity="0.1" d="M114.695 49.6191L81.1989 82.8414C80.5967 83.4388 80.2576 84.2484 80.2559 85.0931C80.2542 85.9378 80.59 86.7487 81.1897 87.3485L132.532 138.677C133.133 139.277 133.948 139.616 134.8 139.62C135.652 139.625 136.472 139.294 137.078 138.701L171.074 105.466L114.695 49.6191Z" fill="black"/>
<path d="M114.695 48.9597L81.1989 82.182C80.5967 82.7793 80.2576 83.5889 80.2559 84.4336C80.2542 85.2783 80.59 86.0893 81.1897 86.689L132.532 138.016C133.132 138.616 133.948 138.955 134.8 138.96C135.652 138.965 136.471 138.634 137.078 138.041L171.074 104.797L114.695 48.9597Z" fill="#9C9CA1"/>
<path d="M118.211 25.6071L115.138 48.7399L171.517 104.585L174.755 81.0702C174.829 80.5442 174.777 80.0085 174.604 79.506C174.431 79.0034 174.141 78.5481 173.759 78.1764L119.361 25.211C119.271 25.1238 119.158 25.0632 119.034 25.036C118.911 25.0089 118.783 25.0163 118.663 25.0573C118.544 25.0984 118.438 25.1716 118.359 25.2686C118.279 25.3657 118.228 25.4829 118.211 25.6071Z" fill="#464A5F"/>
<path opacity="0.1" d="M118.211 25.6071L115.138 48.7399L171.517 104.585L174.755 81.0702C174.829 80.5442 174.777 80.0085 174.604 79.506C174.431 79.0034 174.141 78.5481 173.759 78.1764L119.361 25.211C119.271 25.1238 119.158 25.0632 119.034 25.036C118.911 25.0089 118.783 25.0163 118.663 25.0573C118.544 25.0984 118.438 25.1716 118.359 25.2686C118.279 25.3657 118.228 25.4829 118.211 25.6071Z" fill="black"/>
<path d="M117.768 25.8268L114.695 48.9597L171.074 104.804L174.312 81.29C174.385 80.764 174.333 80.2283 174.16 79.7257C173.987 79.2232 173.698 78.7679 173.316 78.3961L118.918 25.4308C118.828 25.3435 118.714 25.2829 118.591 25.2558C118.468 25.2287 118.339 25.236 118.22 25.2771C118.101 25.3182 117.995 25.3914 117.915 25.4884C117.836 25.5855 117.785 25.7027 117.768 25.8268V25.8268Z" fill="#464A5F"/>
<g opacity="0.1">
<path opacity="0.1" d="M114.845 59.5906L112.806 61.6306C112.746 61.6902 112.698 61.761 112.666 61.8389C112.633 61.9168 112.616 62.0004 112.616 62.0848C112.616 62.1691 112.633 62.2527 112.666 62.3306C112.698 62.4086 112.746 62.4793 112.806 62.5389L114.872 64.6408C114.991 64.7634 115.155 64.8343 115.326 64.8377C115.498 64.8411 115.664 64.7768 115.788 64.6589L117.817 62.7587C117.941 62.6431 118.013 62.4841 118.02 62.3158C118.026 62.1476 117.965 61.9837 117.85 61.8595L115.784 59.6178C115.726 59.5526 115.655 59.5 115.575 59.4631C115.495 59.4262 115.408 59.4059 115.321 59.4034C115.233 59.4008 115.145 59.4161 115.063 59.4483C114.981 59.4805 114.907 59.5289 114.845 59.5906V59.5906Z" fill="black"/>
<path opacity="0.1" d="M118.643 63.36L116.612 65.3983C116.493 65.5182 116.427 65.6797 116.427 65.8479C116.427 66.0161 116.493 66.1776 116.612 66.2975L118.678 68.3993C118.737 68.4603 118.807 68.5091 118.885 68.543C118.963 68.577 119.047 68.5953 119.132 68.597C119.217 68.5987 119.302 68.5837 119.381 68.5529C119.46 68.5221 119.533 68.4761 119.594 68.4175L121.623 66.5191C121.749 66.4027 121.822 66.2419 121.829 66.0717C121.835 65.9015 121.773 65.7359 121.656 65.6108L119.583 63.3746C119.524 63.3102 119.452 63.2586 119.371 63.2228C119.291 63.1871 119.204 63.1679 119.116 63.1666C119.028 63.1652 118.941 63.1817 118.86 63.2149C118.778 63.2482 118.705 63.2976 118.643 63.36Z" fill="black"/>
<path opacity="0.1" d="M122.633 67.3148L120.601 69.3549C120.483 69.475 120.417 69.6364 120.417 69.8045C120.417 69.9725 120.483 70.1339 120.601 70.2541L122.669 72.3559C122.788 72.4786 122.952 72.5494 123.123 72.5528C123.295 72.5562 123.461 72.492 123.585 72.3741L125.614 70.4739C125.738 70.3583 125.81 70.1992 125.817 70.031C125.823 69.8628 125.762 69.6989 125.647 69.5747L123.581 67.333C123.522 67.267 123.45 67.2138 123.369 67.1769C123.288 67.1399 123.2 67.12 123.111 67.1183C123.022 67.1166 122.933 67.1332 122.851 67.167C122.769 67.2008 122.694 67.2511 122.633 67.3148Z" fill="black"/>
<path opacity="0.1" d="M126.666 71.3168L124.636 73.366C124.518 73.4861 124.452 73.6475 124.452 73.8156C124.452 73.9837 124.518 74.1451 124.636 74.2652L126.704 76.367C126.823 76.4897 126.987 76.5606 127.158 76.564C127.33 76.5674 127.496 76.5031 127.62 76.3852L129.648 74.485C129.772 74.3699 129.845 74.2109 129.851 74.0425C129.858 73.8741 129.797 73.71 129.682 73.5858L127.605 71.335C127.546 71.2707 127.474 71.2189 127.394 71.183C127.314 71.1471 127.227 71.1277 127.139 71.126C127.052 71.1243 126.964 71.1403 126.883 71.1731C126.801 71.2059 126.728 71.2548 126.666 71.3168V71.3168Z" fill="black"/>
<path opacity="0.1" d="M130.701 75.3188L128.671 77.3625C128.55 77.4831 128.482 77.6464 128.482 77.8167C128.482 77.987 128.55 78.1503 128.671 78.2708L130.739 80.3727C130.858 80.4954 131.022 80.5662 131.193 80.5696C131.365 80.573 131.531 80.5087 131.655 80.3908L133.682 78.4906C133.807 78.3755 133.88 78.2165 133.886 78.0481C133.893 77.8797 133.832 77.7156 133.717 77.5914L131.651 75.3497C131.593 75.2828 131.521 75.2286 131.44 75.1906C131.36 75.1525 131.272 75.1313 131.183 75.1284C131.094 75.1255 131.005 75.1409 130.922 75.1737C130.839 75.2065 130.763 75.2559 130.701 75.3188V75.3188Z" fill="black"/>
<path opacity="0.1" d="M134.99 79.0647L132.468 81.5989C132.413 81.6552 132.382 81.7309 132.382 81.8096C132.382 81.8884 132.413 81.964 132.468 82.0204L135.009 84.6018C135.065 84.6568 135.142 84.6876 135.221 84.6876C135.3 84.6876 135.377 84.6568 135.433 84.6018L137.956 82.2402C138.013 82.186 138.047 82.1114 138.05 82.0324C138.053 81.9535 138.024 81.8767 137.97 81.8187L135.432 79.0647C135.403 79.035 135.369 79.0113 135.331 78.9951C135.293 78.9789 135.252 78.9706 135.211 78.9706C135.17 78.9706 135.129 78.9789 135.091 78.9951C135.053 79.0113 135.019 79.035 134.99 79.0647Z" fill="black"/>
<path opacity="0.1" d="M139.025 83.0667L136.503 85.61C136.448 85.666 136.417 85.7413 136.417 85.8198C136.417 85.8982 136.448 85.9736 136.503 86.0296L139.043 88.6128C139.1 88.6679 139.177 88.6987 139.256 88.6987C139.335 88.6987 139.412 88.6679 139.468 88.6128L141.99 86.2512C142.048 86.197 142.082 86.1224 142.085 86.0435C142.088 85.9646 142.059 85.8878 142.005 85.8298L139.467 83.0758C139.439 83.0454 139.405 83.021 139.367 83.0041C139.33 82.9871 139.289 82.9779 139.248 82.9771C139.207 82.9762 139.165 82.9837 139.127 82.9991C139.089 83.0145 139.054 83.0375 139.025 83.0667V83.0667Z" fill="black"/>
<path opacity="0.1" d="M142.597 86.6091L140.075 89.1524C140.019 89.2084 139.988 89.2837 139.988 89.3622C139.988 89.4406 140.019 89.516 140.075 89.572L142.615 92.1553C142.672 92.2103 142.748 92.2411 142.828 92.2411C142.907 92.2411 142.983 92.2103 143.04 92.1553L145.562 89.7936C145.62 89.7395 145.654 89.6648 145.657 89.5859C145.66 89.507 145.631 89.4302 145.577 89.3722L143.036 86.6273C143.009 86.5966 142.976 86.5717 142.939 86.5541C142.902 86.5365 142.862 86.5266 142.82 86.5249C142.779 86.5232 142.738 86.5298 142.7 86.5442C142.661 86.5587 142.626 86.5808 142.597 86.6091Z" fill="black"/>
<path opacity="0.1" d="M146.597 90.5766L144.075 93.109C144.019 93.1651 143.987 93.2408 143.987 93.3197C143.987 93.3986 144.019 93.4743 144.075 93.5304L146.615 96.1118C146.672 96.1673 146.748 96.1984 146.828 96.1984C146.907 96.1984 146.984 96.1673 147.04 96.1118L149.562 93.7502C149.62 93.6958 149.653 93.6212 149.656 93.5425C149.659 93.4637 149.63 93.387 149.577 93.3288L147.038 90.5748C147.01 90.5452 146.975 90.5216 146.937 90.5056C146.899 90.4895 146.858 90.4814 146.817 90.4815C146.776 90.4817 146.735 90.4902 146.697 90.5066C146.659 90.5229 146.625 90.5467 146.597 90.5766V90.5766Z" fill="black"/>
<path opacity="0.1" d="M150.471 94.4188L147.949 96.9511C147.893 97.0072 147.861 97.0829 147.861 97.1618C147.861 97.2407 147.893 97.3165 147.949 97.3726L150.489 99.9558C150.546 100.011 150.622 100.042 150.701 100.042C150.781 100.042 150.857 100.011 150.914 99.9558L153.436 97.5942C153.493 97.5398 153.527 97.4652 153.53 97.3864C153.533 97.3077 153.504 97.231 153.451 97.1727L150.903 94.4278C150.875 94.3989 150.842 94.3757 150.805 94.3595C150.768 94.3434 150.729 94.3347 150.689 94.3338C150.648 94.333 150.608 94.34 150.571 94.3546C150.534 94.3692 150.499 94.391 150.471 94.4188V94.4188Z" fill="black"/>
<path opacity="0.1" d="M154.344 98.2536L151.819 100.797C151.763 100.853 151.732 100.928 151.732 101.007C151.732 101.085 151.763 101.161 151.819 101.217L154.359 103.8C154.416 103.855 154.492 103.886 154.571 103.886C154.651 103.886 154.727 103.855 154.784 103.8L157.306 101.438C157.364 101.384 157.398 101.309 157.401 101.23C157.403 101.152 157.375 101.075 157.321 101.017L154.782 98.2627C154.754 98.2329 154.721 98.209 154.684 98.1924C154.646 98.1758 154.606 98.1667 154.565 98.1659C154.524 98.1651 154.484 98.1724 154.446 98.1875C154.408 98.2025 154.373 98.225 154.344 98.2536V98.2536Z" fill="black"/>
<path opacity="0.1" d="M158.218 102.103L155.696 104.637C155.641 104.694 155.61 104.769 155.61 104.848C155.61 104.927 155.641 105.002 155.696 105.059L158.229 107.64C158.285 107.696 158.36 107.729 158.44 107.731C158.519 107.732 158.596 107.703 158.654 107.649L161.176 105.288C161.234 105.233 161.268 105.159 161.271 105.08C161.274 105.001 161.245 104.924 161.191 104.866L158.652 102.112C158.625 102.083 158.591 102.059 158.554 102.043C158.517 102.027 158.478 102.018 158.437 102.017C158.397 102.016 158.357 102.023 158.319 102.038C158.281 102.053 158.247 102.075 158.218 102.103V102.103Z" fill="black"/>
<path opacity="0.1" d="M111.158 63.2492L109.129 65.2875C109.068 65.347 109.02 65.4178 108.988 65.4957C108.955 65.5737 108.938 65.6572 108.938 65.7416C108.938 65.826 108.955 65.9095 108.988 65.9875C109.02 66.0654 109.068 66.1362 109.129 66.1958L111.196 68.2976C111.255 68.3586 111.326 68.4074 111.404 68.4413C111.481 68.4753 111.565 68.4936 111.65 68.4953C111.736 68.497 111.82 68.482 111.899 68.4512C111.979 68.4204 112.051 68.3744 112.112 68.3158L114.14 66.4174C114.266 66.3015 114.34 66.1407 114.347 65.9704C114.353 65.8001 114.291 65.6342 114.174 65.5091L112.096 63.2656C112.036 63.2016 111.964 63.1503 111.884 63.1147C111.804 63.0791 111.718 63.0599 111.63 63.0584C111.543 63.0569 111.456 63.073 111.374 63.1058C111.293 63.1386 111.22 63.1874 111.158 63.2492V63.2492Z" fill="black"/>
<path opacity="0.1" d="M103.099 71.2405L101.068 73.2788C100.947 73.3993 100.878 73.5626 100.878 73.7329C100.878 73.9032 100.947 74.0665 101.068 74.1871L103.134 76.2726C103.252 76.3932 103.413 76.4629 103.583 76.4666C103.753 76.4704 103.917 76.4078 104.04 76.2925L106.07 74.3923C106.194 74.277 106.267 74.1178 106.273 73.9495C106.279 73.7811 106.218 73.6171 106.103 73.4931L104.037 71.2587C103.978 71.1944 103.906 71.1427 103.826 71.1068C103.746 71.0709 103.66 71.0515 103.572 71.0498C103.484 71.0481 103.397 71.0641 103.316 71.0969C103.234 71.1297 103.161 71.1786 103.099 71.2405V71.2405Z" fill="black"/>
<path opacity="0.1" d="M114.957 67.0169L112.925 69.0551C112.865 69.1147 112.817 69.1855 112.785 69.2634C112.752 69.3413 112.735 69.4249 112.735 69.5093C112.735 69.5937 112.752 69.6772 112.785 69.7551C112.817 69.8331 112.865 69.9039 112.925 69.9634L114.991 72.0653C115.11 72.1882 115.273 72.2594 115.445 72.2631C115.617 72.2668 115.783 72.2029 115.907 72.0852L117.935 70.176C118.06 70.0596 118.134 69.8987 118.14 69.7286C118.146 69.5584 118.084 69.3927 117.968 69.2677L115.902 67.0278C115.842 66.9626 115.77 66.9103 115.689 66.8742C115.608 66.838 115.52 66.8189 115.431 66.8179C115.343 66.8168 115.255 66.834 115.173 66.8682C115.091 66.9025 115.018 66.9531 114.957 67.0169V67.0169Z" fill="black"/>
<path opacity="0.1" d="M118.944 70.9735L116.915 73.0117C116.796 73.1317 116.729 73.2931 116.729 73.4614C116.729 73.6296 116.796 73.791 116.915 73.911L118.982 76.0128C119.041 76.0738 119.112 76.1226 119.19 76.1565C119.267 76.1905 119.351 76.2088 119.436 76.2105C119.522 76.2122 119.606 76.1972 119.685 76.1664C119.765 76.1356 119.837 76.0896 119.898 76.031L121.926 74.1326C122.052 74.0167 122.126 73.8559 122.133 73.6856C122.139 73.5153 122.077 73.3494 121.96 73.2243L119.894 70.9826C119.834 70.9171 119.761 70.8647 119.68 70.8285C119.599 70.7923 119.51 70.7732 119.421 70.7723C119.332 70.7715 119.244 70.7889 119.161 70.8235C119.079 70.8581 119.005 70.9092 118.944 70.9735Z" fill="black"/>
<path opacity="0.1" d="M122.979 74.9737L120.949 77.0137C120.831 77.1337 120.764 77.2952 120.764 77.4634C120.764 77.6316 120.831 77.793 120.949 77.913L123.017 80.0148C123.136 80.1356 123.297 80.2053 123.467 80.2087C123.637 80.2121 123.801 80.149 123.924 80.033L125.953 78.1346C126.079 78.0187 126.154 77.8579 126.16 77.6876C126.167 77.5173 126.105 77.3514 125.988 77.2263L123.918 75.0009C123.86 74.9362 123.788 74.884 123.708 74.8474C123.629 74.8108 123.542 74.7907 123.454 74.7881C123.367 74.7856 123.279 74.8007 123.197 74.8326C123.116 74.8645 123.041 74.9125 122.979 74.9737Z" fill="black"/>
<path opacity="0.1" d="M107.028 74.881L104.996 76.9193C104.878 77.0392 104.811 77.2007 104.811 77.3689C104.811 77.5371 104.878 77.6985 104.996 77.8185L107.063 79.9203C107.121 79.9813 107.192 80.0301 107.27 80.064C107.348 80.098 107.432 80.1163 107.517 80.118C107.602 80.1197 107.686 80.1047 107.765 80.0739C107.845 80.0431 107.917 79.9971 107.978 79.9385L110.008 78.0401C110.133 77.9237 110.207 77.7629 110.213 77.5927C110.219 77.4225 110.157 77.2569 110.041 77.1318L107.975 74.8919C107.915 74.8264 107.842 74.7739 107.761 74.7376C107.68 74.7013 107.593 74.682 107.504 74.681C107.415 74.68 107.326 74.6972 107.245 74.7316C107.163 74.7661 107.089 74.8169 107.028 74.881Z" fill="black"/>
<path opacity="0.1" d="M111.015 78.8358L108.986 80.8758C108.925 80.9354 108.878 81.0062 108.845 81.0841C108.812 81.1621 108.796 81.2456 108.796 81.33C108.796 81.4144 108.812 81.4979 108.845 81.5759C108.878 81.6538 108.925 81.7246 108.986 81.7842L111.053 83.886C111.112 83.947 111.183 83.9958 111.261 84.0297C111.339 84.0636 111.422 84.082 111.508 84.0837C111.593 84.0853 111.677 84.0704 111.756 84.0396C111.836 84.0087 111.908 83.9627 111.969 83.9042L113.997 82.0058C114.123 81.8899 114.197 81.7291 114.204 81.5588C114.21 81.3885 114.148 81.2225 114.032 81.0975L111.966 78.8558C111.906 78.7896 111.834 78.7363 111.753 78.6992C111.672 78.662 111.584 78.6419 111.495 78.64C111.405 78.6382 111.317 78.6546 111.234 78.6883C111.152 78.7219 111.077 78.7722 111.015 78.8358Z" fill="black"/>
<path opacity="0.1" d="M115.05 82.8378L113.021 84.8779C112.902 84.9978 112.835 85.1593 112.835 85.3275C112.835 85.4957 112.902 85.6572 113.021 85.7771L115.088 87.879C115.208 88.0017 115.371 88.0725 115.543 88.0759C115.714 88.0793 115.88 88.015 116.004 87.8971L118.032 85.9969C118.156 85.8818 118.229 85.7228 118.236 85.5544C118.242 85.386 118.181 85.2219 118.067 85.0977L116.001 82.856C115.941 82.7899 115.869 82.7368 115.788 82.6998C115.706 82.6628 115.618 82.6429 115.529 82.6412C115.44 82.6395 115.351 82.6561 115.269 82.6899C115.186 82.7237 115.112 82.7741 115.05 82.8378V82.8378Z" fill="black"/>
<path opacity="0.1" d="M127.014 78.9757L124.984 81.0157C124.865 81.1356 124.799 81.2971 124.799 81.4653C124.799 81.6335 124.865 81.795 124.984 81.9149L127.052 84.0168C127.111 84.0777 127.181 84.1266 127.259 84.1605C127.337 84.1944 127.421 84.2128 127.506 84.2144C127.591 84.2161 127.676 84.2011 127.755 84.1703C127.834 84.1395 127.907 84.0935 127.968 84.0349L129.997 82.1366C130.06 82.0792 130.11 82.0101 130.146 81.9333C130.181 81.8566 130.201 81.7736 130.204 81.6892C130.207 81.6048 130.193 81.5206 130.164 81.4415C130.134 81.3624 130.088 81.29 130.03 81.2283L127.951 78.9975C127.893 78.9329 127.821 78.881 127.741 78.8447C127.661 78.8085 127.575 78.7888 127.487 78.7867C127.4 78.7847 127.312 78.8004 127.231 78.8329C127.15 78.8654 127.076 78.9139 127.014 78.9757V78.9757Z" fill="black"/>
<path opacity="0.1" d="M131.049 82.9777L129.018 85.0177C128.899 85.1377 128.832 85.2992 128.832 85.4674C128.832 85.6356 128.899 85.797 129.018 85.917L131.085 88.0188C131.144 88.0798 131.215 88.1286 131.293 88.1625C131.37 88.1965 131.454 88.2148 131.539 88.2165C131.625 88.2182 131.709 88.2032 131.788 88.1724C131.868 88.1416 131.94 88.0955 132.001 88.037L134.03 86.1368C134.154 86.0214 134.227 85.8623 134.233 85.6939C134.24 85.5255 134.178 85.3615 134.063 85.2376L131.986 82.994C131.927 82.9299 131.855 82.8783 131.775 82.8426C131.695 82.8068 131.609 82.7876 131.521 82.7861C131.433 82.7845 131.346 82.8007 131.265 82.8337C131.184 82.8666 131.11 82.9156 131.049 82.9777V82.9777Z" fill="black"/>
<path opacity="0.1" d="M135.335 86.7236L132.812 89.2668C132.757 89.3229 132.725 89.3986 132.725 89.4775C132.725 89.5564 132.757 89.6322 132.812 89.6883L135.355 92.2588C135.411 92.3143 135.488 92.3454 135.567 92.3454C135.647 92.3454 135.723 92.3143 135.78 92.2588L138.302 89.8972C138.359 89.8428 138.393 89.7682 138.396 89.6894C138.398 89.6106 138.37 89.5339 138.316 89.4757L135.778 86.7217C135.749 86.6918 135.715 86.668 135.677 86.6518C135.638 86.6356 135.597 86.6274 135.556 86.6275C135.514 86.6277 135.473 86.6363 135.435 86.6528C135.397 86.6693 135.363 86.6934 135.335 86.7236Z" fill="black"/>
<path opacity="0.1" d="M138.91 90.2605L136.388 92.8038C136.332 92.8599 136.3 92.9356 136.3 93.0145C136.3 93.0934 136.332 93.1691 136.388 93.2252L138.928 95.8066C138.985 95.8621 139.061 95.8932 139.14 95.8932C139.22 95.8932 139.296 95.8621 139.353 95.8066L141.875 93.445C141.933 93.3906 141.966 93.316 141.969 93.2373C141.972 93.1585 141.943 93.0818 141.89 93.0236L139.351 90.2696C139.323 90.2393 139.29 90.2149 139.252 90.1979C139.214 90.1809 139.174 90.1717 139.132 90.1709C139.091 90.17 139.05 90.1775 139.012 90.1929C138.973 90.2083 138.939 90.2313 138.91 90.2605V90.2605Z" fill="black"/>
<path opacity="0.1" d="M142.91 94.2335L140.386 96.7767C140.331 96.8328 140.3 96.9081 140.3 96.9865C140.3 97.065 140.331 97.1403 140.386 97.1964L142.925 99.7796C142.981 99.8346 143.058 99.8654 143.137 99.8654C143.216 99.8654 143.293 99.8346 143.349 99.7796L145.871 97.418C145.93 97.3641 145.964 97.2895 145.967 97.2106C145.97 97.1317 145.942 97.0548 145.888 96.9965L143.349 94.2425C143.322 94.2125 143.288 94.1883 143.251 94.1715C143.213 94.1547 143.173 94.1456 143.132 94.1448C143.091 94.1439 143.05 94.1513 143.012 94.1666C142.974 94.1818 142.939 94.2046 142.91 94.2335V94.2335Z" fill="black"/>
<path opacity="0.1" d="M146.784 98.072L144.262 100.615C144.206 100.671 144.174 100.747 144.174 100.826C144.174 100.905 144.206 100.981 144.262 101.037L146.8 103.618C146.857 103.673 146.934 103.704 147.014 103.704C147.093 103.704 147.17 103.673 147.227 103.618L149.747 101.257C149.805 101.203 149.84 101.128 149.843 101.049C149.846 100.97 149.817 100.893 149.764 100.835L147.225 98.081C147.197 98.0507 147.164 98.0263 147.126 98.0093C147.088 97.9924 147.048 97.9832 147.006 97.9823C146.965 97.9815 146.924 97.989 146.886 98.0044C146.848 98.0198 146.813 98.0428 146.784 98.072Z" fill="black"/>
<path opacity="0.1" d="M115.11 74.7756L113.079 76.8175C112.96 76.9375 112.894 77.0989 112.894 77.2671C112.894 77.4353 112.96 77.5968 113.079 77.7168L115.147 79.8186C115.206 79.8798 115.276 79.9288 115.354 79.9629C115.432 79.9969 115.516 80.0153 115.601 80.017C115.686 80.0187 115.771 80.0036 115.85 79.9727C115.929 79.9418 116.002 79.8956 116.063 79.8368L118.092 77.9384C118.218 77.8222 118.292 77.6613 118.298 77.491C118.304 77.3207 118.242 77.1549 118.125 77.0301L116.048 74.7938C115.989 74.7293 115.917 74.6774 115.838 74.6413C115.758 74.6053 115.671 74.5858 115.583 74.5841C115.495 74.5824 115.408 74.5985 115.327 74.6315C115.246 74.6644 115.172 74.7135 115.11 74.7756Z" fill="black"/>
<path opacity="0.1" d="M119.145 78.7777L117.114 80.8141C116.995 80.934 116.929 81.0955 116.929 81.2637C116.929 81.4319 116.995 81.5934 117.114 81.7133L119.182 83.8151C119.241 83.8763 119.311 83.9253 119.389 83.9594C119.467 83.9934 119.551 84.0118 119.636 84.0135C119.721 84.0152 119.806 84.0002 119.885 83.9692C119.964 83.9383 120.037 83.8921 120.098 83.8333L122.127 81.9349C122.252 81.8185 122.326 81.6577 122.332 81.4875C122.339 81.3173 122.277 81.1517 122.16 81.0266L120.094 78.7867C120.034 78.7211 119.962 78.6684 119.88 78.6321C119.799 78.5958 119.711 78.5766 119.622 78.5758C119.533 78.5749 119.444 78.5924 119.362 78.6272C119.28 78.6619 119.206 78.7132 119.145 78.7777V78.7777Z" fill="black"/>
<path opacity="0.1" d="M123.18 82.7797L121.149 84.8107C121.03 84.9306 120.964 85.0921 120.964 85.2603C120.964 85.4285 121.03 85.59 121.149 85.7099L123.215 87.8117C123.274 87.8727 123.344 87.9215 123.422 87.9555C123.5 87.9894 123.584 88.0077 123.669 88.0094C123.754 88.0111 123.839 87.9961 123.918 87.9653C123.997 87.9345 124.07 87.8885 124.131 87.8299L126.16 85.9315C126.285 85.8151 126.359 85.6543 126.365 85.4841C126.372 85.3139 126.31 85.1483 126.193 85.0232L124.127 82.7815C124.067 82.7168 123.994 82.6652 123.912 82.6299C123.831 82.5945 123.743 82.5762 123.654 82.576C123.565 82.5759 123.477 82.5938 123.396 82.6289C123.314 82.6639 123.241 82.7153 123.18 82.7797V82.7797Z" fill="black"/>
<path opacity="0.1" d="M127.215 86.7817L125.184 88.8199C125.065 88.9399 124.998 89.1013 124.998 89.2695C124.998 89.4377 125.065 89.5992 125.184 89.7192L127.25 91.821C127.309 91.882 127.379 91.9308 127.457 91.9647C127.535 91.9986 127.619 92.017 127.704 92.0186C127.789 92.0203 127.874 92.0054 127.953 91.9746C128.032 91.9437 128.105 91.8977 128.166 91.8391L130.195 89.9408C130.32 89.8244 130.394 89.6635 130.4 89.4934C130.407 89.3232 130.345 89.1575 130.228 89.0325L128.162 86.7908C128.102 86.7256 128.029 86.6735 127.948 86.6375C127.867 86.6015 127.78 86.5825 127.691 86.5816C127.602 86.5808 127.514 86.5981 127.432 86.6325C127.35 86.6669 127.276 86.7177 127.215 86.7817V86.7817Z" fill="black"/>
<path opacity="0.1" d="M131.505 90.5275L128.981 93.0599C128.925 93.1162 128.894 93.1919 128.894 93.2706C128.894 93.3494 128.925 93.425 128.981 93.4814L131.519 96.0628C131.576 96.1183 131.652 96.1494 131.732 96.1494C131.811 96.1494 131.888 96.1183 131.944 96.0628L134.466 93.7012C134.525 93.6472 134.559 93.5727 134.562 93.4938C134.565 93.4149 134.537 93.3379 134.483 93.2797L131.944 90.5239C131.916 90.4944 131.882 90.4711 131.844 90.4552C131.806 90.4393 131.765 90.4313 131.724 90.4317C131.683 90.432 131.642 90.4407 131.604 90.4572C131.567 90.4737 131.533 90.4976 131.505 90.5275Z" fill="black"/>
<path opacity="0.1" d="M135.076 94.0754L132.552 96.6078C132.497 96.6641 132.466 96.7397 132.466 96.8185C132.466 96.8973 132.497 96.9729 132.552 97.0292L135.091 99.6106C135.148 99.6661 135.224 99.6972 135.303 99.6972C135.383 99.6972 135.459 99.6661 135.516 99.6106L138.038 97.249C138.096 97.1951 138.131 97.1206 138.134 97.0417C138.137 96.9628 138.108 96.8858 138.054 96.8276L135.518 94.0754C135.489 94.0454 135.455 94.0215 135.417 94.0052C135.379 93.9889 135.338 93.9804 135.297 93.9804C135.256 93.9804 135.215 93.9889 135.177 94.0052C135.139 94.0215 135.105 94.0454 135.076 94.0754Z" fill="black"/>
<path opacity="0.1" d="M139.075 98.0356L136.553 100.579C136.497 100.635 136.466 100.711 136.466 100.79C136.466 100.868 136.497 100.944 136.553 101L139.091 103.582C139.146 103.638 139.222 103.671 139.302 103.673C139.381 103.675 139.458 103.645 139.516 103.591L142.038 101.229C142.096 101.175 142.131 101.101 142.134 101.022C142.137 100.943 142.108 100.866 142.055 100.808L139.514 98.0538C139.487 98.0231 139.454 97.9983 139.417 97.9807C139.38 97.9631 139.339 97.9531 139.298 97.9514C139.257 97.9497 139.216 97.9563 139.178 97.9708C139.139 97.9853 139.104 98.0073 139.075 98.0356V98.0356Z" fill="black"/>
<path opacity="0.1" d="M142.95 101.887L140.426 104.412C140.371 104.468 140.34 104.544 140.34 104.623C140.34 104.701 140.371 104.777 140.426 104.833L142.965 107.415C143.02 107.472 143.096 107.504 143.175 107.506C143.255 107.508 143.332 107.478 143.39 107.424L145.912 105.062C145.97 105.008 146.004 104.934 146.008 104.855C146.011 104.776 145.982 104.699 145.928 104.641L143.394 101.887C143.365 101.856 143.331 101.832 143.293 101.815C143.255 101.799 143.214 101.79 143.172 101.79C143.13 101.79 143.089 101.799 143.051 101.815C143.013 101.832 142.978 101.856 142.95 101.887V101.887Z" fill="black"/>
<path opacity="0.1" d="M150.657 101.918L148.135 104.461C148.079 104.517 148.048 104.593 148.048 104.672C148.048 104.751 148.079 104.826 148.135 104.882L150.676 107.464C150.731 107.521 150.807 107.553 150.886 107.555C150.966 107.557 151.043 107.527 151.101 107.473L153.623 105.111C153.68 105.057 153.714 104.982 153.717 104.904C153.719 104.825 153.691 104.748 153.637 104.69L151.099 101.936C151.072 101.905 151.039 101.88 151.001 101.862C150.964 101.844 150.923 101.834 150.882 101.833C150.841 101.831 150.8 101.838 150.761 101.852C150.722 101.867 150.687 101.889 150.657 101.918V101.918Z" fill="black"/>
<path opacity="0.1" d="M154.531 105.762L152.002 108.294C151.946 108.35 151.915 108.426 151.915 108.505C151.915 108.584 151.946 108.659 152.002 108.716L154.548 111.297C154.603 111.354 154.679 111.386 154.758 111.388C154.838 111.39 154.915 111.36 154.973 111.306L157.495 108.944C157.552 108.89 157.586 108.815 157.589 108.737C157.591 108.658 157.563 108.581 157.509 108.523L154.971 105.769C154.943 105.739 154.909 105.715 154.872 105.698C154.834 105.681 154.794 105.672 154.753 105.671C154.711 105.671 154.671 105.678 154.633 105.694C154.594 105.709 154.56 105.732 154.531 105.762V105.762Z" fill="black"/>
<path opacity="0.1" d="M134.906 102.172L132.525 104.557C132.45 104.633 132.409 104.734 132.409 104.84C132.409 104.945 132.45 105.047 132.525 105.122L134.922 107.56C134.997 107.636 135.098 107.679 135.205 107.681C135.312 107.683 135.415 107.644 135.492 107.571L137.873 105.349C137.948 105.277 137.993 105.18 137.997 105.076C138.002 104.973 137.967 104.872 137.899 104.793L135.501 102.192C135.464 102.15 135.419 102.117 135.369 102.093C135.319 102.069 135.264 102.056 135.208 102.054C135.152 102.052 135.097 102.062 135.045 102.082C134.993 102.102 134.946 102.133 134.906 102.172V102.172Z" fill="black"/>
<path opacity="0.1" d="M138.78 106.014L136.399 108.399C136.324 108.475 136.282 108.576 136.282 108.682C136.282 108.788 136.324 108.889 136.399 108.964L138.796 111.402C138.871 111.478 138.972 111.521 139.079 111.523C139.185 111.525 139.288 111.486 139.366 111.413L141.747 109.191C141.824 109.119 141.87 109.019 141.874 108.913C141.879 108.808 141.841 108.705 141.769 108.627L139.364 106.025C139.327 105.986 139.282 105.954 139.232 105.932C139.182 105.91 139.129 105.899 139.074 105.898C139.02 105.897 138.966 105.906 138.915 105.926C138.865 105.946 138.819 105.976 138.78 106.014V106.014Z" fill="black"/>
<path opacity="0.1" d="M142.661 109.856L140.28 112.242C140.205 112.317 140.163 112.418 140.163 112.524C140.163 112.63 140.205 112.731 140.28 112.807L142.677 115.244C142.752 115.32 142.853 115.364 142.96 115.366C143.066 115.369 143.169 115.33 143.247 115.257L145.628 113.034C145.706 112.961 145.752 112.861 145.756 112.756C145.76 112.65 145.722 112.547 145.65 112.469L143.252 109.869C143.215 109.828 143.17 109.795 143.12 109.772C143.07 109.749 143.015 109.736 142.959 109.735C142.904 109.734 142.849 109.744 142.797 109.765C142.746 109.786 142.7 109.817 142.661 109.856V109.856Z" fill="black"/>
<path opacity="0.1" d="M146.604 113.622L144.082 116.156C144.027 116.213 143.996 116.288 143.996 116.367C143.996 116.446 144.027 116.522 144.082 116.578L146.622 119.159C146.679 119.215 146.755 119.246 146.835 119.246C146.914 119.246 146.991 119.215 147.047 119.159L149.569 116.798C149.627 116.744 149.661 116.669 149.664 116.59C149.667 116.511 149.638 116.434 149.584 116.376L147.046 113.622C147.017 113.592 146.983 113.569 146.945 113.553C146.907 113.536 146.866 113.528 146.825 113.528C146.784 113.528 146.743 113.536 146.705 113.553C146.667 113.569 146.633 113.592 146.604 113.622V113.622Z" fill="black"/>
<path opacity="0.1" d="M107.165 66.9969L105 69.1877C104.94 69.2473 104.892 69.3181 104.859 69.396C104.827 69.474 104.81 69.5575 104.81 69.6419C104.81 69.7263 104.827 69.8098 104.859 69.8878C104.892 69.9657 104.94 70.0365 105 70.0961L111.044 76.031C111.164 76.1478 111.324 76.2142 111.492 76.2162C111.659 76.2182 111.821 76.1558 111.944 76.0419L114.2 73.9364C114.263 73.8773 114.314 73.8061 114.349 73.7272C114.384 73.6482 114.403 73.563 114.404 73.4768C114.405 73.3905 114.389 73.3049 114.356 73.225C114.323 73.1451 114.275 73.0726 114.213 73.0117L108.077 66.9914C107.955 66.8726 107.791 66.8064 107.62 66.8074C107.449 66.8085 107.285 66.8766 107.165 66.9969V66.9969Z" fill="black"/>
<path opacity="0.1" d="M146.729 105.753L144.082 108.427C144.026 108.484 143.995 108.56 143.995 108.639C143.995 108.719 144.026 108.795 144.082 108.852L150.604 115.255C150.661 115.31 150.736 115.34 150.815 115.34C150.894 115.34 150.969 115.31 151.026 115.255L153.784 112.681C153.813 112.653 153.837 112.62 153.853 112.583C153.869 112.545 153.877 112.505 153.877 112.465C153.877 112.425 153.869 112.385 153.853 112.348C153.837 112.31 153.813 112.277 153.784 112.249L147.148 105.738C147.09 105.687 147.014 105.659 146.936 105.662C146.857 105.665 146.783 105.697 146.729 105.753V105.753Z" fill="black"/>
<path opacity="0.1" d="M119.217 86.5946L116.691 89.0761C116.663 89.1038 116.641 89.1368 116.625 89.1731C116.61 89.2094 116.602 89.2484 116.602 89.2877C116.602 89.3271 116.61 89.366 116.625 89.4024C116.641 89.4387 116.663 89.4717 116.691 89.4994L130.756 103.798C130.812 103.853 130.889 103.884 130.968 103.884C131.047 103.884 131.124 103.853 131.181 103.798L133.928 101.227C133.957 101.199 133.98 101.166 133.996 101.129C134.012 101.092 134.02 101.052 134.02 101.012C134.02 100.972 134.012 100.932 133.996 100.895C133.98 100.858 133.957 100.825 133.928 100.797L119.642 86.5891C119.584 86.5348 119.508 86.505 119.428 86.506C119.349 86.507 119.273 86.5388 119.217 86.5946V86.5946Z" fill="black"/>
</g>
<path d="M114.845 59.1509L112.806 61.1946C112.687 61.3145 112.621 61.476 112.621 61.6442C112.621 61.8124 112.687 61.9739 112.806 62.0938L114.872 64.1956C114.991 64.3183 115.155 64.3892 115.326 64.3926C115.498 64.396 115.664 64.3317 115.788 64.2138L117.817 62.3136C117.941 62.198 118.013 62.039 118.02 61.8707C118.026 61.7025 117.965 61.5386 117.85 61.4144L115.784 59.1727C115.725 59.1079 115.654 59.0557 115.574 59.0193C115.494 58.9829 115.407 58.9631 115.319 58.961C115.231 58.959 115.144 58.9748 115.062 59.0074C114.981 59.0401 114.907 59.0889 114.845 59.1509V59.1509Z" fill="#464A5F"/>
<path d="M118.643 62.9204L116.612 64.9586C116.493 65.0786 116.427 65.24 116.427 65.4082C116.427 65.5765 116.493 65.7379 116.612 65.8579L118.678 67.9597C118.737 68.0206 118.807 68.0695 118.885 68.1034C118.963 68.1373 119.047 68.1557 119.132 68.1574C119.217 68.159 119.302 68.1441 119.381 68.1133C119.46 68.0824 119.533 68.0364 119.594 67.9778L121.623 66.0795C121.749 65.9631 121.822 65.8022 121.829 65.6321C121.835 65.4619 121.773 65.2962 121.656 65.1712L119.583 62.9367C119.524 62.8723 119.452 62.8205 119.372 62.7846C119.291 62.7487 119.205 62.7294 119.117 62.7278C119.029 62.7263 118.941 62.7426 118.86 62.7757C118.779 62.8088 118.705 62.858 118.643 62.9204V62.9204Z" fill="#464A5F"/>
<path d="M122.633 66.8752L120.601 68.9152C120.483 69.0354 120.417 69.1968 120.417 69.3649C120.417 69.5329 120.483 69.6943 120.601 69.8145L122.666 71.9127C122.785 72.0354 122.948 72.1062 123.12 72.1096C123.291 72.113 123.457 72.0487 123.581 71.9308L125.611 70.0306C125.673 69.9733 125.724 69.9042 125.759 69.8274C125.795 69.7506 125.814 69.6677 125.817 69.5833C125.821 69.4989 125.807 69.4147 125.777 69.3356C125.747 69.2565 125.702 69.184 125.644 69.1223L123.578 66.8806C123.518 66.816 123.445 66.7644 123.364 66.7289C123.283 66.6934 123.195 66.6748 123.106 66.6743C123.018 66.6738 122.93 66.6914 122.848 66.7259C122.767 66.7605 122.693 66.8113 122.633 66.8752V66.8752Z" fill="#464A5F"/>
<path d="M126.666 70.8772L124.636 72.9154C124.516 73.0362 124.448 73.1994 124.448 73.3696C124.448 73.5397 124.516 73.7029 124.636 73.8237L126.704 75.9255C126.823 76.0482 126.987 76.1191 127.158 76.1225C127.33 76.1259 127.496 76.0616 127.62 75.9437L129.647 74.0435C129.772 73.9284 129.845 73.7694 129.851 73.601C129.858 73.4326 129.797 73.2685 129.682 73.1443L127.605 70.8953C127.546 70.831 127.474 70.7793 127.394 70.7434C127.314 70.7074 127.227 70.688 127.139 70.6863C127.052 70.6846 126.964 70.7007 126.883 70.7335C126.801 70.7663 126.727 70.8152 126.666 70.8772V70.8772Z" fill="#464A5F"/>
<path d="M130.701 74.8792L128.671 76.9174C128.55 77.038 128.482 77.2013 128.482 77.3716C128.482 77.5419 128.55 77.7052 128.671 77.8257L130.739 79.9258C130.858 80.0487 131.021 80.1198 131.193 80.1236C131.365 80.1273 131.531 80.0634 131.655 79.9457L133.682 78.0456C133.745 77.9884 133.796 77.9195 133.832 77.8428C133.868 77.7661 133.888 77.6831 133.891 77.5986C133.894 77.5141 133.881 77.4299 133.851 77.3507C133.821 77.2715 133.776 77.199 133.717 77.1373L131.651 74.8955C131.592 74.8296 131.519 74.7766 131.438 74.7398C131.357 74.703 131.269 74.6832 131.18 74.6816C131.09 74.6801 131.002 74.6969 130.919 74.7309C130.837 74.7649 130.762 74.8153 130.701 74.8792Z" fill="#464A5F"/>
<path d="M134.99 78.6341L132.468 81.1592C132.413 81.2153 132.382 81.2906 132.382 81.3691C132.382 81.4475 132.413 81.5229 132.468 81.5789L135.008 84.1621C135.064 84.2184 135.14 84.2508 135.219 84.2525C135.298 84.2542 135.375 84.225 135.433 84.1712L137.955 81.8096C138.013 81.7554 138.047 81.6808 138.05 81.6019C138.053 81.5229 138.024 81.4461 137.97 81.3881L135.43 78.6341C135.401 78.6047 135.367 78.5812 135.329 78.5652C135.292 78.5492 135.251 78.541 135.21 78.541C135.169 78.541 135.128 78.5492 135.09 78.5652C135.053 78.5812 135.018 78.6047 134.99 78.6341V78.6341Z" fill="#464A5F"/>
<path d="M139.025 82.6307L136.503 85.1649C136.448 85.2209 136.417 85.2963 136.417 85.3747C136.417 85.4532 136.448 85.5285 136.503 85.5845L139.043 88.1678C139.1 88.2228 139.176 88.2536 139.256 88.2536C139.335 88.2536 139.412 88.2228 139.468 88.1678L141.99 85.8062C142.048 85.752 142.082 85.6773 142.085 85.5984C142.088 85.5195 142.059 85.4427 142.005 85.3847L139.465 82.6307C139.436 82.6012 139.402 82.5778 139.364 82.5618C139.327 82.5458 139.286 82.5375 139.245 82.5375C139.204 82.5375 139.163 82.5458 139.125 82.5618C139.088 82.5778 139.053 82.6012 139.025 82.6307V82.6307Z" fill="#464A5F"/>
<path d="M142.597 86.1695L140.075 88.7036C140.019 88.7597 139.988 88.835 139.988 88.9135C139.988 88.9919 140.019 89.0672 140.075 89.1233L142.613 91.7138C142.67 91.7688 142.746 91.7996 142.826 91.7996C142.905 91.7996 142.981 91.7688 143.038 91.7138L145.56 89.3522C145.618 89.298 145.652 89.2233 145.655 89.1444C145.658 89.0655 145.629 88.9887 145.575 88.9307L143.036 86.1767C143.008 86.1468 142.975 86.1228 142.937 86.1061C142.9 86.0895 142.859 86.0806 142.818 86.0799C142.777 86.0792 142.736 86.0868 142.698 86.1022C142.66 86.1176 142.626 86.1405 142.597 86.1695Z" fill="#464A5F"/>
<path d="M146.597 90.1369L144.075 92.6693C144.019 92.7254 143.987 92.8011 143.987 92.88C143.987 92.9589 144.019 93.0347 144.075 93.0908L146.615 95.6722C146.671 95.7289 146.746 95.7616 146.826 95.7633C146.905 95.765 146.982 95.7356 147.04 95.6813L149.562 93.3197C149.62 93.2652 149.653 93.1907 149.656 93.1119C149.659 93.0331 149.63 92.9564 149.577 92.8982L147.038 90.1424C147.01 90.1123 146.976 90.0882 146.939 90.0715C146.901 90.0548 146.86 90.046 146.819 90.0455C146.777 90.045 146.736 90.0528 146.698 90.0685C146.66 90.0843 146.626 90.1075 146.597 90.1369V90.1369Z" fill="#464A5F"/>
<path d="M150.471 93.9791L147.949 96.5115C147.893 96.5676 147.861 96.6433 147.861 96.7222C147.861 96.8011 147.893 96.8768 147.949 96.9329L150.487 99.5253C150.544 99.5803 150.62 99.6111 150.7 99.6111C150.779 99.6111 150.855 99.5803 150.912 99.5253L153.434 97.1637C153.491 97.1092 153.525 97.0347 153.528 96.9559C153.531 96.8771 153.502 96.8004 153.449 96.7422L150.903 93.9882C150.875 93.9593 150.842 93.936 150.805 93.9199C150.768 93.9038 150.729 93.895 150.689 93.8942C150.648 93.8933 150.608 93.9004 150.571 93.915C150.534 93.9296 150.499 93.9514 150.471 93.9791V93.9791Z" fill="#464A5F"/>
<path d="M154.344 97.8213L151.822 100.365C151.767 100.421 151.736 100.496 151.736 100.574C151.736 100.653 151.767 100.728 151.822 100.784L154.363 103.367C154.42 103.422 154.496 103.453 154.575 103.453C154.655 103.453 154.731 103.422 154.788 103.367L157.31 101.006C157.368 100.952 157.402 100.877 157.404 100.798C157.407 100.719 157.378 100.642 157.324 100.584L154.786 97.8303C154.758 97.8 154.724 97.7756 154.687 97.7586C154.649 97.7417 154.608 97.7325 154.567 97.7316C154.526 97.7308 154.485 97.7383 154.446 97.7537C154.408 97.7691 154.373 97.7921 154.344 97.8213V97.8213Z" fill="#464A5F"/>
<path d="M158.218 101.663L155.696 104.207C155.641 104.263 155.609 104.339 155.609 104.417C155.609 104.496 155.641 104.572 155.696 104.628L158.229 107.2C158.286 107.255 158.362 107.286 158.442 107.286C158.521 107.286 158.597 107.255 158.654 107.2L161.176 104.839C161.234 104.785 161.268 104.71 161.271 104.631C161.274 104.552 161.245 104.475 161.191 104.417L158.652 101.663C158.624 101.635 158.59 101.612 158.553 101.597C158.516 101.581 158.476 101.573 158.435 101.573C158.395 101.573 158.355 101.581 158.317 101.597C158.28 101.612 158.246 101.635 158.218 101.663V101.663Z" fill="#464A5F"/>
<path d="M111.158 62.8096L109.128 64.8478C109.01 64.9677 108.943 65.1292 108.943 65.2974C108.943 65.4656 109.01 65.6271 109.128 65.747L111.196 67.8489C111.255 67.9098 111.326 67.9587 111.403 67.9926C111.481 68.0265 111.565 68.0448 111.65 68.0465C111.735 68.0482 111.82 68.0332 111.899 68.0024C111.978 67.9716 112.051 67.9256 112.112 67.867L114.14 65.9687C114.266 65.8527 114.34 65.692 114.347 65.5216C114.353 65.3513 114.291 65.1854 114.174 65.0604L112.096 62.8295C112.036 62.7654 111.965 62.7138 111.885 62.6778C111.805 62.6419 111.719 62.6224 111.631 62.6206C111.543 62.6187 111.456 62.6345 111.375 62.667C111.294 62.6995 111.22 62.748 111.158 62.8096V62.8096Z" fill="#464A5F"/>
<path d="M103.099 70.8009L101.068 72.8391C100.947 72.9597 100.878 73.123 100.878 73.2933C100.878 73.4636 100.947 73.6269 101.068 73.7475L103.136 75.8475C103.254 75.9681 103.415 76.0378 103.585 76.0416C103.754 76.0453 103.919 75.9828 104.042 75.8675L106.072 73.9673C106.197 73.8511 106.271 73.6902 106.278 73.5199C106.284 73.3496 106.221 73.1838 106.105 73.0589L104.037 70.8227C103.978 70.7579 103.906 70.7057 103.827 70.6694C103.747 70.633 103.66 70.6132 103.573 70.6111C103.485 70.6091 103.397 70.6249 103.316 70.6575C103.235 70.6901 103.161 70.7389 103.099 70.8009V70.8009Z" fill="#464A5F"/>
<path d="M114.956 66.5772L112.925 68.6155C112.806 68.7354 112.74 68.8969 112.74 69.0651C112.74 69.2333 112.806 69.3948 112.925 69.5147L114.991 71.6165C115.05 71.6775 115.121 71.7264 115.198 71.7603C115.276 71.7942 115.36 71.8125 115.445 71.8142C115.53 71.8159 115.615 71.8009 115.694 71.7701C115.773 71.7393 115.846 71.6933 115.907 71.6347L117.935 69.7327C118.06 69.6163 118.134 69.4555 118.14 69.2853C118.146 69.1151 118.084 68.9495 117.968 68.8244L115.902 66.5845C115.842 66.5196 115.769 66.4675 115.688 66.4317C115.607 66.3959 115.519 66.3771 115.431 66.3764C115.342 66.3757 115.254 66.3932 115.172 66.4278C115.091 66.4623 115.017 66.5132 114.956 66.5772Z" fill="#464A5F"/>
<path d="M118.944 70.532L116.915 72.5721C116.796 72.692 116.729 72.8535 116.729 73.0217C116.729 73.1899 116.796 73.3514 116.915 73.4713L118.982 75.5731C119.041 75.6341 119.112 75.6829 119.189 75.7169C119.267 75.7508 119.351 75.7691 119.436 75.7708C119.521 75.7725 119.606 75.7575 119.685 75.7267C119.765 75.6959 119.837 75.6499 119.898 75.5913L121.926 73.6929C122.052 73.577 122.126 73.4162 122.132 73.2459C122.139 73.0756 122.077 72.9097 121.96 72.7846L119.883 70.5502C119.824 70.4861 119.752 70.4346 119.672 70.3988C119.592 70.363 119.505 70.3437 119.418 70.342C119.33 70.3403 119.243 70.3562 119.161 70.3889C119.08 70.4216 119.006 70.4702 118.944 70.532V70.532Z" fill="#464A5F"/>
<path d="M122.979 74.534L120.949 76.5741C120.831 76.694 120.764 76.8555 120.764 77.0237C120.764 77.1919 120.831 77.3534 120.949 77.4733L123.017 79.5752C123.136 79.6956 123.297 79.7649 123.467 79.7683C123.636 79.7717 123.801 79.7089 123.924 79.5933L125.953 77.695C126.079 77.579 126.154 77.4183 126.16 77.248C126.167 77.0776 126.105 76.9117 125.988 76.7867L123.922 74.5449C123.862 74.4805 123.79 74.4289 123.709 74.3933C123.628 74.3576 123.541 74.3387 123.453 74.3377C123.364 74.3367 123.277 74.3536 123.195 74.3873C123.114 74.4211 123.04 74.471 122.979 74.534Z" fill="#464A5F"/>
<path d="M107.028 74.4414L104.996 76.4796C104.877 76.5996 104.811 76.7611 104.811 76.9293C104.811 77.0975 104.877 77.2589 104.996 77.3789L107.062 79.4807C107.121 79.5417 107.192 79.5905 107.27 79.6244C107.348 79.6584 107.431 79.6767 107.517 79.6784C107.602 79.6801 107.686 79.6651 107.765 79.6343C107.845 79.6035 107.917 79.5575 107.978 79.4989L110.008 77.6005C110.133 77.4841 110.207 77.3233 110.213 77.1531C110.219 76.9829 110.157 76.8172 110.041 76.6922L107.965 74.4559C107.906 74.3917 107.834 74.3401 107.754 74.3043C107.674 74.2686 107.588 74.2494 107.5 74.2481C107.412 74.2467 107.325 74.2632 107.244 74.2964C107.162 74.3296 107.089 74.379 107.028 74.4414V74.4414Z" fill="#464A5F"/>
<path d="M111.015 78.3962L108.986 80.4362C108.867 80.5562 108.8 80.7176 108.8 80.8858C108.8 81.054 108.867 81.2155 108.986 81.3355L111.053 83.4373C111.173 83.56 111.336 83.6308 111.508 83.6342C111.679 83.6376 111.845 83.5733 111.969 83.4555L113.997 81.5571C114.123 81.4412 114.197 81.2804 114.204 81.1101C114.21 80.9398 114.148 80.7738 114.032 80.6488L111.966 78.407C111.906 78.3415 111.833 78.2889 111.751 78.2525C111.67 78.2162 111.582 78.1969 111.493 78.1959C111.403 78.1949 111.315 78.2121 111.233 78.2466C111.151 78.281 111.076 78.332 111.015 78.3962V78.3962Z" fill="#464A5F"/>
<path d="M115.05 82.3982L113.021 84.4473C112.902 84.5672 112.835 84.7287 112.835 84.8969C112.835 85.0651 112.902 85.2266 113.021 85.3465L115.088 87.4484C115.208 87.5711 115.371 87.6419 115.543 87.6453C115.714 87.6487 115.88 87.5844 116.004 87.4665L118.032 85.5663C118.156 85.4512 118.229 85.2922 118.236 85.1238C118.242 84.9555 118.181 84.7913 118.067 84.6671L116.001 82.4254C115.942 82.3588 115.87 82.3049 115.789 82.2671C115.708 82.2294 115.621 82.2085 115.531 82.206C115.442 82.2034 115.353 82.2192 115.27 82.2523C115.188 82.2853 115.113 82.335 115.05 82.3982V82.3982Z" fill="#464A5F"/>
<path d="M127.014 78.536L124.984 80.5761C124.865 80.6961 124.799 80.8575 124.799 81.0257C124.799 81.1939 124.865 81.3554 124.984 81.4754L127.052 83.5772C127.111 83.6382 127.181 83.687 127.259 83.7209C127.337 83.7548 127.421 83.7732 127.506 83.7749C127.591 83.7765 127.676 83.7616 127.755 83.7308C127.834 83.7 127.907 83.6539 127.968 83.5954L129.997 81.6952C130.06 81.6379 130.111 81.5689 130.146 81.4921C130.182 81.4153 130.202 81.3323 130.205 81.2478C130.208 81.1634 130.194 81.0791 130.164 81C130.134 80.9209 130.089 80.8484 130.03 80.7869L127.964 78.5451C127.904 78.4794 127.831 78.4268 127.75 78.3904C127.669 78.3541 127.58 78.3349 127.491 78.334C127.402 78.3332 127.313 78.3507 127.231 78.3855C127.149 78.4202 127.075 78.4715 127.014 78.536V78.536Z" fill="#464A5F"/>
<path d="M131.049 82.5381L129.018 84.5781C128.899 84.6981 128.832 84.8595 128.832 85.0277C128.832 85.1959 128.899 85.3574 129.018 85.4773L131.085 87.5792C131.144 87.6401 131.215 87.689 131.293 87.7229C131.37 87.7568 131.454 87.7751 131.539 87.7768C131.625 87.7785 131.709 87.7635 131.788 87.7327C131.868 87.7019 131.94 87.6559 132.001 87.5973L134.03 85.6972C134.154 85.5818 134.227 85.4226 134.233 85.2543C134.24 85.0859 134.178 84.9219 134.063 84.7979L131.997 82.5562C131.938 82.4902 131.866 82.4371 131.785 82.4001C131.704 82.3632 131.616 82.3433 131.527 82.3416C131.438 82.3398 131.35 82.3564 131.267 82.3902C131.185 82.4241 131.111 82.4744 131.049 82.5381V82.5381Z" fill="#464A5F"/>
<path d="M135.335 86.2839L132.812 88.8181C132.757 88.8742 132.725 88.9499 132.725 89.0288C132.725 89.1077 132.757 89.1834 132.812 89.2395L135.353 91.8209C135.409 91.8764 135.486 91.9075 135.565 91.9075C135.645 91.9075 135.721 91.8764 135.778 91.8209L138.3 89.4593C138.357 89.4049 138.391 89.3303 138.394 89.2516C138.397 89.1728 138.368 89.0961 138.315 89.0379L135.776 86.2839C135.748 86.2542 135.713 86.2305 135.675 86.2143C135.637 86.1981 135.597 86.1898 135.555 86.1898C135.514 86.1898 135.473 86.1981 135.435 86.2143C135.397 86.2305 135.363 86.2542 135.335 86.2839Z" fill="#464A5F"/>
<path d="M138.91 89.8263L136.388 92.3605C136.332 92.4166 136.3 92.4923 136.3 92.5712C136.3 92.6501 136.332 92.7259 136.388 92.782L138.928 95.3634C138.985 95.4189 139.061 95.45 139.14 95.45C139.22 95.45 139.296 95.4189 139.353 95.3634L141.875 93.0018C141.933 92.9474 141.966 92.8728 141.969 92.794C141.972 92.7152 141.943 92.6385 141.89 92.5803L139.351 89.8263C139.323 89.7966 139.288 89.7729 139.251 89.7567C139.213 89.7405 139.172 89.7322 139.13 89.7322C139.089 89.7322 139.048 89.7405 139.01 89.7567C138.972 89.7729 138.938 89.7966 138.91 89.8263Z" fill="#464A5F"/>
<path d="M142.91 93.7938L140.386 96.328C140.331 96.384 140.3 96.4594 140.3 96.5378C140.3 96.6163 140.331 96.6916 140.386 96.7476L142.925 99.3309C142.981 99.3859 143.058 99.4167 143.137 99.4167C143.216 99.4167 143.293 99.3859 143.349 99.3309L145.871 96.9693C145.93 96.9153 145.964 96.8408 145.967 96.7619C145.97 96.683 145.942 96.606 145.888 96.5478L143.349 93.8029C143.322 93.7729 143.288 93.7487 143.251 93.7319C143.213 93.7151 143.173 93.706 143.132 93.7051C143.091 93.7043 143.05 93.7117 143.012 93.727C142.973 93.7422 142.939 93.7649 142.91 93.7938Z" fill="#464A5F"/>
<path d="M146.784 97.636L144.262 100.17C144.206 100.226 144.174 100.302 144.174 100.381C144.174 100.46 144.206 100.535 144.262 100.592L146.8 103.173C146.857 103.228 146.934 103.259 147.014 103.259C147.093 103.259 147.17 103.228 147.227 103.173L149.747 100.811C149.805 100.757 149.84 100.683 149.843 100.604C149.846 100.525 149.817 100.448 149.764 100.39L147.225 97.636C147.197 97.6062 147.162 97.5825 147.125 97.5663C147.087 97.5502 147.046 97.5418 147.004 97.5418C146.963 97.5418 146.922 97.5502 146.884 97.5663C146.846 97.5825 146.812 97.6062 146.784 97.636Z" fill="#464A5F"/>
<path d="M115.11 74.336L113.079 76.3742C112.96 76.4942 112.894 76.6556 112.894 76.8239C112.894 76.9921 112.96 77.1535 113.079 77.2735L115.147 79.3753C115.206 79.4365 115.276 79.4855 115.354 79.5196C115.432 79.5536 115.516 79.572 115.601 79.5737C115.686 79.5754 115.771 79.5603 115.85 79.5294C115.929 79.4985 116.002 79.4523 116.063 79.3934L118.092 77.4951C118.218 77.3789 118.292 77.218 118.298 77.0477C118.304 76.8774 118.242 76.7116 118.125 76.5868L116.048 74.3542C115.989 74.2897 115.917 74.2378 115.837 74.2017C115.758 74.1657 115.671 74.1462 115.583 74.1445C115.495 74.1428 115.408 74.1589 115.327 74.1918C115.246 74.2248 115.172 74.2738 115.11 74.336V74.336Z" fill="#464A5F"/>
<path d="M119.145 78.338L117.114 80.3762C117.054 80.4358 117.006 80.5066 116.973 80.5845C116.941 80.6625 116.924 80.746 116.924 80.8304C116.924 80.9148 116.941 80.9983 116.973 81.0763C117.006 81.1542 117.054 81.225 117.114 81.2846L119.182 83.3864C119.241 83.4476 119.311 83.4966 119.389 83.5307C119.467 83.5647 119.551 83.5831 119.636 83.5848C119.721 83.5865 119.806 83.5715 119.885 83.5405C119.964 83.5096 120.037 83.4634 120.098 83.4046L122.127 81.5062C122.252 81.3898 122.326 81.2289 122.332 81.0588C122.339 80.8886 122.277 80.7229 122.16 80.5979L120.094 78.358C120.035 78.2916 119.963 78.2381 119.882 78.2008C119.801 78.1636 119.713 78.1434 119.624 78.1415C119.535 78.1396 119.446 78.1561 119.364 78.1899C119.282 78.2238 119.207 78.2742 119.145 78.338V78.338Z" fill="#464A5F"/>
<path d="M123.18 82.34L121.149 84.3783C121.03 84.4982 120.964 84.6597 120.964 84.8279C120.964 84.9961 121.03 85.1576 121.149 85.2775L123.215 87.3794C123.274 87.4403 123.344 87.4892 123.422 87.5231C123.5 87.557 123.584 87.5753 123.669 87.577C123.754 87.5787 123.839 87.5637 123.918 87.5329C123.997 87.5021 124.07 87.4561 124.131 87.3975L126.16 85.4991C126.285 85.3827 126.359 85.2219 126.365 85.0517C126.372 84.8816 126.31 84.7159 126.193 84.5908L124.127 82.3491C124.067 82.284 123.995 82.2318 123.913 82.1958C123.832 82.1599 123.745 82.1408 123.656 82.14C123.567 82.1391 123.479 82.1565 123.397 82.1909C123.315 82.2253 123.241 82.2761 123.18 82.34V82.34Z" fill="#464A5F"/>
<path d="M127.215 86.3402L125.184 88.3803C125.124 88.4399 125.076 88.5106 125.043 88.5886C125.011 88.6665 124.994 88.7501 124.994 88.8344C124.994 88.9188 125.011 89.0024 125.043 89.0803C125.076 89.1582 125.124 89.229 125.184 89.2886L127.25 91.3904C127.309 91.4514 127.379 91.5003 127.457 91.5342C127.535 91.5681 127.619 91.5864 127.704 91.5881C127.789 91.5898 127.874 91.5748 127.953 91.544C128.032 91.5132 128.104 91.4672 128.166 91.4086L130.195 89.5102C130.32 89.3938 130.394 89.233 130.4 89.0628C130.407 88.8927 130.345 88.727 130.228 88.6019L128.162 86.3602C128.103 86.2946 128.031 86.2418 127.95 86.205C127.869 86.1682 127.782 86.1483 127.693 86.1464C127.604 86.1445 127.516 86.1608 127.434 86.1941C127.352 86.2275 127.277 86.2772 127.215 86.3402Z" fill="#464A5F"/>
<path d="M131.505 90.0879L128.981 92.6221C128.925 92.6784 128.894 92.7541 128.894 92.8328C128.894 92.9116 128.925 92.9872 128.981 93.0435L131.519 95.625C131.575 95.6817 131.65 95.7144 131.73 95.7161C131.809 95.7178 131.886 95.6883 131.944 95.634L134.466 93.2724C134.525 93.2182 134.559 93.1434 134.562 93.0642C134.565 92.9849 134.537 92.9077 134.483 92.8492L131.944 90.0952C131.917 90.065 131.883 90.0408 131.845 90.024C131.808 90.0072 131.767 89.9982 131.726 89.9975C131.685 89.9968 131.644 90.0045 131.606 90.02C131.568 90.0356 131.533 90.0587 131.505 90.0879Z" fill="#464A5F"/>
<path d="M135.076 93.6303L132.552 96.1627C132.497 96.219 132.466 96.2947 132.466 96.3734C132.466 96.4522 132.497 96.5278 132.552 96.5841L135.091 99.1619C135.146 99.2186 135.222 99.2514 135.302 99.2531C135.381 99.2548 135.458 99.2253 135.516 99.171L138.038 96.8094C138.096 96.7552 138.131 96.6803 138.134 96.6011C138.137 96.5219 138.108 96.4447 138.054 96.3861L135.518 93.6376C135.49 93.6071 135.456 93.5827 135.418 93.5657C135.381 93.5487 135.34 93.5396 135.299 93.539C135.257 93.5383 135.216 93.546 135.178 93.5617C135.14 93.5775 135.105 93.6008 135.076 93.6303Z" fill="#464A5F"/>
<path d="M139.075 97.596L136.553 100.139C136.497 100.196 136.466 100.271 136.466 100.35C136.466 100.429 136.497 100.504 136.553 100.561L139.091 103.142C139.148 103.198 139.224 103.229 139.304 103.229C139.383 103.229 139.459 103.198 139.516 103.142L142.038 100.781C142.096 100.727 142.131 100.652 142.134 100.573C142.137 100.494 142.108 100.417 142.055 100.359L139.514 97.6051C139.486 97.575 139.453 97.5509 139.415 97.5341C139.378 97.5173 139.337 97.5082 139.296 97.5073C139.255 97.5065 139.214 97.5139 139.176 97.5291C139.138 97.5444 139.104 97.5671 139.075 97.596V97.596Z" fill="#464A5F"/>
<path d="M142.95 101.44L140.426 103.972C140.371 104.029 140.34 104.104 140.34 104.183C140.34 104.262 140.371 104.337 140.426 104.394L142.965 106.973C143.021 107.029 143.098 107.06 143.177 107.06C143.257 107.06 143.333 107.029 143.39 106.973L145.912 104.612C145.97 104.558 146.004 104.483 146.007 104.404C146.011 104.325 145.982 104.249 145.928 104.19L143.393 101.447C143.366 101.416 143.332 101.391 143.294 101.374C143.256 101.357 143.215 101.347 143.173 101.347C143.132 101.346 143.09 101.354 143.052 101.37C143.013 101.386 142.979 101.41 142.95 101.44V101.44Z" fill="#464A5F"/>
<path d="M150.657 101.478L148.135 104.021C148.079 104.077 148.048 104.153 148.048 104.232C148.048 104.311 148.079 104.387 148.135 104.443L150.676 107.024C150.732 107.08 150.809 107.111 150.888 107.111C150.968 107.111 151.044 107.08 151.101 107.024L153.623 104.663C153.68 104.608 153.714 104.534 153.717 104.455C153.719 104.376 153.691 104.299 153.637 104.241L151.097 101.487C151.069 101.457 151.036 101.433 150.998 101.416C150.961 101.399 150.92 101.39 150.879 101.389C150.838 101.389 150.797 101.396 150.759 101.411C150.721 101.426 150.686 101.449 150.657 101.478V101.478Z" fill="#464A5F"/>
<path d="M154.531 105.32L152.009 107.864C151.953 107.92 151.922 107.995 151.922 108.074C151.922 108.153 151.953 108.229 152.009 108.285L154.55 110.866C154.606 110.922 154.682 110.953 154.762 110.953C154.842 110.953 154.918 110.922 154.974 110.866L157.497 108.505C157.554 108.45 157.588 108.376 157.591 108.297C157.593 108.218 157.565 108.142 157.511 108.083L154.971 105.338C154.944 105.308 154.911 105.283 154.873 105.265C154.836 105.248 154.796 105.238 154.755 105.236C154.714 105.234 154.673 105.241 154.634 105.255C154.596 105.27 154.561 105.292 154.531 105.32V105.32Z" fill="#464A5F"/>
<path d="M134.906 101.732L132.525 104.118C132.45 104.193 132.409 104.294 132.409 104.4C132.409 104.506 132.45 104.607 132.525 104.683L134.922 107.121C134.997 107.196 135.098 107.239 135.205 107.241C135.311 107.244 135.415 107.204 135.492 107.131L137.873 104.91C137.95 104.837 137.996 104.737 138 104.632C138.004 104.526 137.966 104.423 137.895 104.345L135.498 101.743C135.46 101.703 135.415 101.67 135.364 101.648C135.314 101.625 135.259 101.613 135.204 101.612C135.149 101.611 135.094 101.621 135.043 101.642C134.991 101.663 134.945 101.693 134.906 101.732V101.732Z" fill="#464A5F"/>
<path d="M138.78 105.575L136.399 107.96C136.324 108.035 136.282 108.137 136.282 108.242C136.282 108.348 136.324 108.449 136.399 108.525L138.802 110.97C138.877 111.042 138.978 111.082 139.083 111.082C139.188 111.082 139.288 111.042 139.364 110.97L141.745 108.748C141.823 108.676 141.868 108.576 141.873 108.47C141.877 108.365 141.839 108.261 141.767 108.183L139.364 105.585C139.327 105.546 139.282 105.515 139.232 105.493C139.182 105.471 139.129 105.459 139.074 105.458C139.02 105.457 138.966 105.467 138.915 105.487C138.865 105.507 138.819 105.537 138.78 105.575V105.575Z" fill="#464A5F"/>
<path d="M142.661 109.417L140.28 111.802C140.205 111.877 140.163 111.979 140.163 112.084C140.163 112.19 140.205 112.292 140.28 112.367L142.677 114.805C142.752 114.881 142.853 114.924 142.96 114.926C143.066 114.929 143.17 114.889 143.247 114.816L145.628 112.594C145.706 112.522 145.752 112.422 145.756 112.316C145.76 112.21 145.722 112.107 145.65 112.029L143.252 109.428C143.215 109.387 143.17 109.354 143.119 109.332C143.069 109.309 143.014 109.297 142.959 109.296C142.904 109.295 142.849 109.305 142.797 109.326C142.746 109.346 142.7 109.377 142.661 109.417V109.417Z" fill="#464A5F"/>
<path d="M146.604 113.183L144.082 115.726C144.027 115.782 143.996 115.858 143.996 115.937C143.996 116.015 144.027 116.091 144.082 116.147L146.622 118.729C146.678 118.785 146.754 118.817 146.833 118.819C146.912 118.821 146.989 118.792 147.047 118.738L149.569 116.376C149.627 116.322 149.661 116.247 149.664 116.168C149.667 116.09 149.638 116.013 149.584 115.955L147.046 113.201C147.018 113.17 146.985 113.145 146.948 113.127C146.911 113.109 146.87 113.099 146.829 113.097C146.787 113.096 146.746 113.102 146.708 113.117C146.669 113.132 146.634 113.154 146.604 113.183V113.183Z" fill="#464A5F"/>
<path d="M107.165 66.5573L105 68.7499C104.94 68.8095 104.892 68.8803 104.859 68.9582C104.827 69.0361 104.81 69.1197 104.81 69.2041C104.81 69.2885 104.827 69.372 104.859 69.4499C104.892 69.5279 104.94 69.5987 105 69.6582L111.044 75.5931C111.164 75.7099 111.324 75.7763 111.492 75.7784C111.659 75.7804 111.821 75.7179 111.944 75.604L114.2 73.4986C114.263 73.4394 114.314 73.3683 114.349 73.2893C114.384 73.2104 114.403 73.1252 114.404 73.0389C114.405 72.9526 114.389 72.867 114.356 72.7871C114.323 72.7072 114.275 72.6347 114.213 72.5739L108.077 66.5536C107.955 66.4345 107.791 66.368 107.62 66.3687C107.449 66.3694 107.286 66.4372 107.165 66.5573V66.5573Z" fill="#464A5F"/>
<path d="M146.729 105.313L144.082 107.993C144.026 108.049 143.995 108.126 143.995 108.205C143.995 108.284 144.026 108.361 144.082 108.418L150.604 114.821C150.661 114.876 150.736 114.906 150.815 114.906C150.894 114.906 150.969 114.876 151.026 114.821L153.784 112.247C153.813 112.219 153.837 112.185 153.853 112.148C153.869 112.111 153.877 112.071 153.877 112.031C153.877 111.99 153.869 111.951 153.853 111.913C153.837 111.876 153.813 111.843 153.784 111.815L147.148 105.304C147.091 105.251 147.015 105.223 146.937 105.225C146.858 105.226 146.784 105.258 146.729 105.313Z" fill="#464A5F"/>
<path d="M119.217 86.155L116.691 88.6365C116.663 88.6642 116.641 88.6971 116.625 88.7334C116.61 88.7698 116.602 88.8087 116.602 88.8481C116.602 88.8874 116.61 88.9264 116.625 88.9627C116.641 88.9991 116.663 89.032 116.691 89.0597L130.756 103.358C130.812 103.413 130.889 103.444 130.968 103.444C131.047 103.444 131.124 103.413 131.181 103.358L133.928 100.788C133.957 100.76 133.98 100.726 133.996 100.689C134.012 100.652 134.02 100.613 134.02 100.573C134.02 100.532 134.012 100.493 133.996 100.456C133.98 100.419 133.957 100.385 133.928 100.357L119.642 86.1495C119.584 86.0952 119.508 86.0654 119.428 86.0664C119.349 86.0674 119.273 86.0992 119.217 86.155V86.155Z" fill="#464A5F"/>
<path opacity="0.1" d="M109.295 87.8989L98.1903 98.8404C97.8825 99.1441 97.7079 99.5559 97.7045 99.9866C97.7011 100.417 97.8691 100.832 98.172 101.14L118.711 122.06C118.863 122.215 119.043 122.338 119.243 122.423C119.443 122.508 119.657 122.553 119.874 122.555C120.092 122.557 120.307 122.517 120.509 122.437C120.71 122.356 120.893 122.237 121.048 122.086L132.483 110.93C132.638 110.779 132.761 110.598 132.845 110.4C132.929 110.201 132.973 109.988 132.974 109.772C132.975 109.556 132.933 109.343 132.85 109.143C132.767 108.944 132.646 108.763 132.492 108.61L111.623 87.8989C111.314 87.5933 110.895 87.4216 110.459 87.4216C110.023 87.4216 109.604 87.5933 109.295 87.8989V87.8989Z" fill="black"/>
<path d="M109.295 87.4502L98.1903 98.4007C97.8825 98.7044 97.7079 99.1163 97.7045 99.5469C97.7011 99.9775 97.8691 100.392 98.172 100.701L118.711 121.621C118.863 121.775 119.043 121.898 119.243 121.983C119.443 122.068 119.657 122.113 119.874 122.115C120.092 122.118 120.307 122.077 120.509 121.997C120.71 121.916 120.893 121.797 121.048 121.646L132.483 110.49C132.638 110.339 132.761 110.159 132.845 109.96C132.929 109.761 132.973 109.548 132.974 109.332C132.975 109.117 132.933 108.903 132.85 108.704C132.767 108.504 132.646 108.323 132.492 108.171L111.623 87.4611C111.316 87.154 110.898 86.9804 110.461 86.9784C110.025 86.9763 109.606 87.146 109.295 87.4502V87.4502Z" fill="#939498"/>
<path d="M119.962 30.0323L117.151 49.5283L169.244 101.031L171.896 81.706C171.967 81.1842 171.916 80.6531 171.746 80.1543C171.576 79.6554 171.292 79.2023 170.916 78.8303L121.118 29.6472C121.028 29.5586 120.915 29.4965 120.792 29.4679C120.669 29.4393 120.54 29.4453 120.42 29.4853C120.3 29.5253 120.194 29.5977 120.113 29.6943C120.032 29.7909 119.98 29.908 119.962 30.0323V30.0323Z" fill="#496294"/>
<path opacity="0.1" d="M54.0478 124.535C56.3854 124.535 58.2805 124.277 58.2805 123.959C58.2805 123.641 56.3854 123.383 54.0478 123.383C51.7101 123.383 49.815 123.641 49.815 123.959C49.815 124.277 51.7101 124.535 54.0478 124.535Z" fill="#496294"/>
<path opacity="0.1" d="M37.831 126.166C40.1687 126.166 42.0638 125.908 42.0638 125.59C42.0638 125.272 40.1687 125.014 37.831 125.014C35.4933 125.014 33.5983 125.272 33.5983 125.59C33.5983 125.908 35.4933 126.166 37.831 126.166Z" fill="#496294"/>
<path opacity="0.1" d="M18.7314 123.959C21.0691 123.959 22.9642 123.701 22.9642 123.383C22.9642 123.065 21.0691 122.807 18.7314 122.807C16.3937 122.807 14.4987 123.065 14.4987 123.383C14.4987 123.701 16.3937 123.959 18.7314 123.959Z" fill="#496294"/>
<path opacity="0.1" d="M44.3221 130.644C45.9841 130.644 47.3314 130.46 47.3314 130.233C47.3314 130.007 45.9841 129.823 44.3221 129.823C42.6602 129.823 41.3129 130.007 41.3129 130.233C41.3129 130.46 42.6602 130.644 44.3221 130.644Z" fill="#496294"/>
<path opacity="0.1" d="M27.4919 130.233C29.1538 130.233 30.5011 130.05 30.5011 129.823C30.5011 129.596 29.1538 129.412 27.4919 129.412C25.8299 129.412 24.4826 129.596 24.4826 129.823C24.4826 130.05 25.8299 130.233 27.4919 130.233Z" fill="#496294"/>
<path d="M37.7413 125.461C37.7413 125.461 43.6774 106.158 36.8108 98.4353C31.6824 92.6512 25.8452 93.3487 23.2334 94.059C22.5581 94.2374 21.9298 94.5591 21.3922 95.002C20.8546 95.4449 20.4204 95.9984 20.1197 96.6241C19.204 98.5788 19.3725 101.749 25.8159 105.449C36.6075 111.646 37.2779 120.146 37.2779 120.146L37.7413 125.461Z" fill="#496294"/>
<path d="M24.1584 96.7876C24.1584 96.7876 41.6608 102.214 37.7376 125.461" stroke="#565987" stroke-miterlimit="10"/>
<path d="M34.384 98.7332C34.384 98.7332 31.9755 100.343 32.7356 102.764" stroke="#565987" stroke-miterlimit="10"/>
<path d="M25.9185 100.167C25.9185 100.167 27.3837 98.6805 29.1841 99.4998" stroke="#565987" stroke-miterlimit="10"/>
<path d="M32.8364 107.642C32.8364 107.642 35.4225 106.339 36.0929 107.971" stroke="#565987" stroke-miterlimit="10"/>
<path d="M39.2377 110.356C39.2377 110.356 37.2944 110.203 37.2596 111.124" stroke="#565987" stroke-miterlimit="10"/>
<path d="M37.9812 125.616C37.9812 125.616 31.0212 111.586 29.1164 111.893C28.2098 112.038 27.7922 112.923 27.6035 113.813C27.3695 114.963 27.5014 116.156 27.9808 117.228C28.968 119.474 31.6183 123.737 37.9812 125.616Z" fill="#496294"/>
<path d="M29.1695 114.554C29.1695 114.554 36.4665 125.052 37.8768 125.512" stroke="#565987" stroke-miterlimit="10"/>
<path d="M28.4974 116.193H30.2007" stroke="#565987" stroke-miterlimit="10"/>
<path d="M30.5377 120.033L33.2081 120.146" stroke="#565987" stroke-miterlimit="10"/>
<path d="M32.1623 116.961L31.8729 118.34" stroke="#565987" stroke-miterlimit="10"/>
<path d="M35.0031 121.159L34.95 122.413" stroke="#565987" stroke-miterlimit="10"/>
<path d="M37.7742 125.616C37.7742 125.616 44.7342 111.586 46.6372 111.893C47.553 112.038 47.9633 112.923 48.1519 113.813C48.3863 114.963 48.2538 116.156 47.7728 117.228C46.7874 119.474 44.1371 123.737 37.7742 125.616Z" fill="#496294"/>
<path d="M46.586 114.554C46.586 114.554 39.2871 125.052 37.8768 125.512" stroke="#565987" stroke-miterlimit="10"/>
<path d="M47.2562 116.193H45.5529" stroke="#565987" stroke-miterlimit="10"/>
<path d="M45.216 120.033L42.5455 120.146" stroke="#565987" stroke-miterlimit="10"/>
<path d="M43.5913 116.961L43.8807 118.34" stroke="#565987" stroke-miterlimit="10"/>
<path d="M40.7524 121.159L40.8037 122.413" stroke="#565987" stroke-miterlimit="10"/>
<path d="M25.8342 128.891C25.6446 128.738 25.5066 128.531 25.4386 128.299C25.4082 128.182 25.419 128.058 25.4694 127.949C25.5197 127.839 25.6065 127.75 25.7152 127.696C25.9698 127.599 26.2409 127.774 26.4478 127.95C26.6548 128.126 26.8911 128.328 27.1603 128.291C27.0216 128.167 26.9178 128.009 26.859 127.833C26.8003 127.657 26.7886 127.469 26.8251 127.287C26.8363 127.211 26.8686 127.14 26.9185 127.082C27.0596 126.933 27.3142 126.996 27.4827 127.114C28.0211 127.488 28.1695 128.204 28.1732 128.864C28.2032 128.622 28.2063 128.379 28.1823 128.137C28.1722 128.017 28.1917 127.896 28.2393 127.785C28.2868 127.674 28.3609 127.576 28.4552 127.499C28.583 127.432 28.7263 127.399 28.871 127.403C28.9902 127.384 29.112 127.391 29.2285 127.422C29.3449 127.454 29.4534 127.509 29.5468 127.585C29.752 127.803 29.6989 128.166 29.5194 128.406C29.3208 128.63 29.0848 128.818 28.8215 128.962C28.6209 129.079 28.4499 129.241 28.3215 129.434C28.3068 129.461 28.2945 129.489 28.2849 129.518H26.772C26.4325 129.351 26.1171 129.141 25.8342 128.891V128.891Z" fill="#496294"/>
<path d="M52.3316 123.241C52.1418 123.088 52.0032 122.882 51.9341 122.649C51.904 122.532 51.915 122.409 51.9653 122.299C52.0156 122.189 52.1022 122.1 52.2107 122.046C52.4653 121.95 52.7363 122.124 52.9433 122.3C53.1503 122.476 53.3847 122.678 53.6539 122.64C53.5155 122.515 53.4119 122.357 53.3532 122.181C53.2944 122.005 53.2826 121.817 53.3188 121.635C53.3311 121.56 53.3634 121.49 53.4122 121.432C53.5532 121.281 53.8078 121.346 53.9781 121.465C54.5148 121.839 54.665 122.555 54.6668 123.212C54.6976 122.971 54.7013 122.727 54.6778 122.485C54.6662 122.365 54.6851 122.244 54.7327 122.132C54.7804 122.021 54.8553 121.923 54.9507 121.848C55.078 121.779 55.2217 121.746 55.3665 121.752C55.4854 121.733 55.6068 121.74 55.7229 121.772C55.839 121.803 55.9472 121.858 56.0405 121.933C56.2456 122.151 56.1925 122.516 56.0148 122.756C55.8148 122.976 55.5782 123.161 55.3152 123.301C55.1162 123.42 54.9461 123.582 54.817 123.773C54.8015 123.8 54.7892 123.829 54.7804 123.859H53.2657C52.9279 123.695 52.6137 123.488 52.3316 123.241V123.241Z" fill="#496294"/>
<path d="M43.4997 128.891C43.3101 128.738 43.1721 128.531 43.1041 128.299C43.0736 128.182 43.0845 128.058 43.1348 127.949C43.1852 127.839 43.2719 127.75 43.3807 127.696C43.6353 127.599 43.9063 127.774 44.1133 127.95C44.3203 128.126 44.5565 128.328 44.8258 128.291C44.687 128.167 44.5832 128.009 44.5245 127.833C44.4657 127.657 44.454 127.469 44.4906 127.287C44.5017 127.211 44.5341 127.14 44.584 127.082C44.725 126.933 44.9796 126.996 45.1481 127.114C45.6848 127.488 45.835 128.204 45.8386 128.864C45.8687 128.623 45.8718 128.379 45.8478 128.137C45.8377 128.017 45.8571 127.897 45.9043 127.786C45.9516 127.675 46.0252 127.577 46.1189 127.501C46.2467 127.434 46.39 127.401 46.5346 127.405C46.6538 127.386 46.7756 127.393 46.8921 127.424C47.0086 127.455 47.117 127.511 47.2105 127.587C47.4156 127.805 47.3625 128.168 47.183 128.408C46.9845 128.632 46.7484 128.82 46.4852 128.964C46.2845 129.081 46.1135 129.243 45.9852 129.436C45.9704 129.463 45.9582 129.491 45.9485 129.519H44.4356C44.0967 129.352 43.7819 129.141 43.4997 128.891V128.891Z" fill="#496294"/>
<path d="M18.4568 117.47C18.4568 117.47 17.889 118.206 18.7187 119.315C19.5484 120.425 20.2316 121.365 19.955 122.057C19.955 122.057 18.7041 119.993 17.6857 119.966C16.6673 119.939 17.3359 118.711 18.4568 117.47Z" fill="#496294"/>
<path opacity="0.1" d="M18.4568 117.47C18.4077 117.541 18.3688 117.619 18.3414 117.701C17.3469 118.858 16.8175 119.939 17.7736 119.966C18.6619 119.989 19.7297 121.568 19.9843 121.964C19.9765 121.995 19.9667 122.025 19.955 122.055C19.955 122.055 18.7041 119.991 17.6857 119.964C16.6673 119.937 17.3359 118.711 18.4568 117.47Z" fill="black"/>
<path d="M17.4017 118.407C17.4017 118.667 17.431 118.876 17.4676 118.876C17.5043 118.876 17.5336 118.667 17.5336 118.407C17.5336 118.147 17.4969 118.271 17.4603 118.271C17.4237 118.271 17.4017 118.147 17.4017 118.407Z" fill="#FFD037"/>
<path d="M17.0408 118.716C17.2698 118.84 17.4694 118.916 17.4859 118.883C17.5024 118.85 17.3321 118.727 17.1031 118.602C16.8742 118.476 16.9639 118.569 16.9474 118.602C16.9309 118.634 16.8119 118.6 17.0408 118.716Z" fill="#FFD037"/>
<path d="M21.4532 117.47C21.4532 117.47 22.0191 118.206 21.1912 119.315C20.3634 120.425 19.6784 121.365 19.9549 122.057C19.9549 122.057 21.2059 119.993 22.2243 119.966C23.2426 119.939 22.5723 118.711 21.4532 117.47Z" fill="#496294"/>
<path opacity="0.1" d="M21.4532 117.47C21.5023 117.541 21.5411 117.619 21.5686 117.701C22.5613 118.858 23.0906 119.939 22.1364 119.966C21.2462 119.989 20.1802 121.568 19.9238 121.964C19.9323 121.995 19.9427 122.025 19.955 122.055C19.955 122.055 21.2059 119.991 22.2243 119.964C23.2426 119.937 22.5723 118.711 21.4532 117.47Z" fill="black"/>
<path d="M22.5099 118.407C22.5099 118.667 22.4806 118.876 22.4458 118.876C22.411 118.876 22.3799 118.667 22.3799 118.407C22.3799 118.147 22.4165 118.271 22.4531 118.271C22.4898 118.271 22.5099 118.147 22.5099 118.407Z" fill="#FFD037"/>
<path d="M22.8763 118.716C22.6473 118.84 22.4477 118.916 22.4294 118.883C22.411 118.85 22.585 118.727 22.814 118.602C23.0429 118.476 22.9532 118.569 22.9697 118.602C22.9862 118.634 23.0979 118.6 22.8763 118.716Z" fill="#FFD037"/>
<path d="M22.3269 121.96C22.3269 121.96 20.7407 121.911 20.2627 121.575C19.7847 121.239 17.823 120.834 17.6985 121.376C17.574 121.917 15.3175 124.068 17.1069 124.082C18.8963 124.097 21.2664 123.806 21.7444 123.517C22.2225 123.228 22.3269 121.96 22.3269 121.96Z" fill="#A8A8A8"/>
<path opacity="0.2" d="M17.0794 123.893C18.8707 123.908 21.2408 123.617 21.717 123.328C22.0833 123.109 22.2243 122.322 22.2664 121.959H22.3269C22.3269 121.959 22.2261 123.23 21.7499 123.516C21.2737 123.801 18.9018 124.095 17.1124 124.08C16.5959 124.08 16.4164 123.899 16.4256 123.625C16.4988 123.788 16.6948 123.89 17.0794 123.893Z" fill="black"/>
<path d="M31.5872 60.6896C31.5579 61.4526 32.2173 62.4662 32.2173 62.4662C32.4187 62.9477 34.8895 65.1785 34.8895 65.1785L36.7211 66.392C36.3511 66.6627 35.9631 66.9085 35.5599 67.1277C34.6679 67.58 34.1807 69.0769 34.1807 69.0769C34.1807 69.0769 32.829 72.2978 35.5599 72.7501L35.6111 72.7592L35.8566 73.0226C36.461 73.6693 37.1991 74.4414 37.4555 74.614C37.9153 74.9246 39.3237 77.2699 39.3237 77.2699C39.3237 77.2699 40.8165 79.7005 42.8037 79.8131C44.791 79.9258 44.7855 77.6659 44.6353 77.5242C44.5756 77.4296 44.534 77.3249 44.5126 77.2154C44.9869 77.9729 45.6335 78.9684 45.8423 79.1065C46.1866 79.3317 47.3075 81.1048 47.3075 81.1048C47.3075 81.1048 48.716 84.2966 48.945 84.6363C49.1739 84.976 49.5769 86.6709 49.5769 86.6709C49.5769 86.6709 50.3827 89.0143 50.7564 89.3268C51.13 89.6392 51.3297 90.7673 51.3297 90.7673C51.3297 90.7673 52.5074 92.4622 52.7088 92.7438C52.9445 93.155 53.1555 93.5796 53.3407 94.0155C53.3407 94.0155 53.9726 95.0328 53.9726 95.4288C53.9726 95.8248 55.295 96.5006 55.295 96.5006C55.295 96.5006 56.2438 97.6033 56.7896 97.8013C57.3354 97.9993 57.8519 99.2982 57.938 99.2128C57.9888 99.1888 58.0447 99.1776 58.101 99.1801L58.3244 99.4017C59.1962 100.263 60.9381 101.98 61.385 102.377C61.9894 102.922 63.3686 102.999 64.5169 102.773C65.1067 102.657 65.8247 102.103 66.3833 101.591C66.5097 101.474 66.6108 101.332 66.6806 101.175C66.7505 101.018 66.7875 100.849 66.7896 100.677C66.7916 100.506 66.7586 100.335 66.6926 100.177C66.6265 100.018 66.5288 99.8743 66.4053 99.7542C65.8558 99.2292 65.2203 98.6533 64.94 98.5643C64.4235 98.3935 62.9583 97.378 62.2696 96.5297C61.9033 96.0882 61.2604 95.6686 60.7201 95.3688L60.6542 95.3307C60.5716 95.0199 60.5159 94.7026 60.4875 94.3824C60.4875 94.3824 61.4363 92.2642 60.9179 92.1516C60.3996 92.039 58.4471 88.6764 58.4471 88.6764C58.4197 86.1332 56.0661 83.9859 56.0661 83.9859C56.0661 83.9859 54.8884 81.2174 54.5441 80.6252C54.4417 80.475 54.387 80.2978 54.387 80.1165C54.387 79.9352 54.4417 79.7581 54.5441 79.6079C54.5441 79.6079 53.8829 79.0992 53.7693 78.8449C53.6558 78.5906 53.1081 76.6649 53.1081 76.6649C53.1081 76.6649 52.4469 75.5059 52.4176 74.97C52.3883 74.4341 51.1007 72.9391 51.1007 72.9391C51.1007 72.9391 50.5787 70.4212 50.0018 69.9689C49.89 69.8817 49.9065 69.5492 50.0018 69.0715L50.0292 69.0424L50.1172 68.957L50.1428 68.9316C50.4068 68.6733 50.6551 68.3997 50.8864 68.1123L50.8974 68.0978C50.934 68.0523 50.9688 68.0088 51.0018 67.9633C51.8352 66.8334 52.3517 64.1484 52.3517 64.1484C52.3517 64.1484 52.5165 64.0721 52.7308 63.9559C53.0319 63.8067 53.3106 63.6165 53.5587 63.3909C53.5705 63.3779 53.5804 63.3632 53.588 63.3473C53.589 63.3425 53.589 63.3376 53.588 63.3328C53.5936 63.3216 53.5985 63.3101 53.6026 63.2983C53.6034 63.2916 53.6034 63.2849 53.6026 63.2783C53.6037 63.265 53.6037 63.2516 53.6026 63.2383C53.6026 63.2383 53.6026 63.2256 53.6026 63.2183V63.1529C53.6026 63.1293 53.6026 63.1057 53.5935 63.0803C53.5933 63.0772 53.5933 63.0742 53.5935 63.0712C53.5935 63.0494 53.5843 63.0276 53.5788 63.004V62.9822C53.5788 62.9622 53.5678 62.9422 53.5605 62.9204C53.5611 62.9125 53.5611 62.9046 53.5605 62.8968L53.5385 62.8296C53.5378 62.8241 53.5378 62.8186 53.5385 62.8132C53.5037 62.7224 53.4616 62.6316 53.414 62.5335L53.3645 62.4408C53.2748 62.2719 53.1814 62.1066 53.0825 61.963L53.0678 61.9412C53.2693 61.3781 53.6594 60.3862 54.0221 60.0302C54.5386 59.5215 53.7345 56.8093 53.7345 56.8093C53.7345 56.8093 53.5623 54.8891 53.3316 54.3242C53.1008 53.7592 53.3316 53.6774 53.1484 53.1942C52.9268 52.6492 52.7656 52.6856 53.0513 51.443C53.1594 50.9743 53.3261 50.4584 53.4763 49.977L53.6594 50.1441C54.7217 51.1378 56.3903 52.4312 56.3903 52.4312C56.3903 52.4312 59.6651 55.3687 59.9527 55.4541C60.2402 55.5395 61.1029 58.4206 61.1029 58.4206C61.1029 58.4206 60.9014 63.1947 63.5444 63.3927C64.6671 63.4763 65.1433 62.6152 65.3155 61.5997C65.4428 60.8116 65.3928 60.0053 65.1689 59.2387C64.945 58.472 64.5529 57.764 64.0206 57.1654L62.4381 55.3814L61.0296 52.8963C60.133 51.4933 59.3778 50.0062 58.775 48.4565C58.1351 46.9379 57.1961 45.5613 56.013 44.4072L55.8994 44.2964L56.0459 44.162C56.0459 44.162 55.8152 42.2981 55.643 42.0729C55.4708 41.8476 54.8389 40.5469 54.8389 40.2563C54.8389 39.9656 54.436 39.9184 54.2071 39.5787C54.2071 39.5787 53.8041 38.7884 53.4305 38.6704C53.3622 38.6441 53.2999 38.6046 53.2473 38.5541C52.5922 37.9796 51.7699 37.6266 50.8992 37.5459L50.6703 37.5241C50.1611 37.5012 49.6511 37.5085 49.1428 37.5459H49.1299C48.7398 37.4296 48.4449 37.128 48.1427 36.8592C47.656 36.4273 47.1163 36.058 46.5364 35.7601C45.9412 35.4531 45.2672 35.2151 44.6023 35.3278C44.0821 35.4113 43.6169 35.6911 43.1096 35.8382C42.3879 36.0399 41.5015 35.9981 41.0472 36.5849C40.8293 36.8646 40.767 37.237 40.5637 37.5259C40.2743 37.9364 39.7432 38.1272 39.4446 38.5323C39.2448 38.8271 39.1536 39.1813 39.1864 39.5351C39.1764 39.8214 39.211 40.1076 39.2889 40.3834C39.365 40.6206 39.4208 40.8636 39.4556 41.1101C39.4516 41.1504 39.4449 41.1905 39.4355 41.23C39.3952 41.4116 39.3018 41.5642 39.2651 41.7404C39.2466 41.8362 39.2435 41.9343 39.256 42.0311C39.201 42.4653 39.4831 42.8776 39.6736 43.2809C39.8209 43.596 39.918 43.9318 39.9611 44.2764C39.4845 44.4163 39.0197 44.593 38.571 44.8051C37.972 45.0921 37.3695 45.4809 37.0251 45.9786C36.4646 46.7604 35.7628 47.4324 34.9554 47.9605C34.707 48.5673 34.4959 49.1886 34.3236 49.8208C34.1514 50.5474 33.9792 51.7409 33.4627 52.364C32.9462 52.9871 32.7081 54.8364 32.7081 54.8364C32.7081 54.8364 32.0176 55.9373 32.0176 56.1644C32.0176 56.3915 31.9315 57.436 32.0176 57.7449C32.0683 57.8419 32.1359 57.9292 32.2173 58.0028L32.166 58.1845C31.9279 59.0147 31.6055 60.2118 31.5872 60.6896ZM47.7856 47.9642C47.7709 48.0278 47.7544 48.0877 47.7343 48.1458C47.7343 48.0877 47.7435 48.0314 47.7471 47.9733L47.7856 47.9642ZM41.2396 72.1107L41.148 72.0271L41.104 71.9871C41.104 71.9653 41.115 71.9435 41.1205 71.9181L41.2396 72.1107ZM36.4775 60.5479L36.5141 60.4807L36.6496 60.2373L37.7486 59.3471L37.8896 59.4743C37.8896 59.4743 37.7742 60.6605 37.4885 60.6042C37.4226 60.5915 37.3933 60.864 37.3859 61.2909C36.8676 60.8513 36.472 60.5479 36.472 60.5479H36.4775Z" fill="url(#paint0_linear)"/>
<path d="M46.3954 38.5432C46.3954 38.5432 49.815 38.238 50.6282 38.3216L50.8498 38.3415C51.6983 38.4272 52.4971 38.7791 53.1301 39.3461C53.1829 39.3959 53.2451 39.4349 53.3132 39.4606C53.6795 39.5714 54.0697 40.3507 54.0697 40.3507C54.0697 40.3507 53.2015 47.1612 53.2015 47.2448C53.2015 47.3284 51.4066 50.413 51.4066 50.413L49.6684 51.0815L46.6702 51.5011L46.5859 50.2186C46.5859 50.2186 48.0292 49.4338 47.868 47.8116C47.7068 46.1893 46.3954 38.5432 46.3954 38.5432Z" fill="#464353"/>
<path d="M48.0768 46.6326C48.0768 46.6326 47.3442 49.9134 48.0768 50.9689C48.8095 52.0243 40.8458 49.2467 40.8458 49.2467L39.3806 46.6326C39.3806 46.6326 39.93 46.2456 40.5491 45.7461C41.4209 45.0503 42.4649 44.1384 42.4649 43.7478C42.4741 43.0738 48.0768 46.6326 48.0768 46.6326Z" fill="#ECB4B6"/>
<path opacity="0.1" d="M48.0768 46.6326C48.0768 46.6326 47.3442 49.9134 48.0768 50.9689C48.8095 52.0243 40.8458 49.2467 40.8458 49.2467L39.3806 46.6326C39.3806 46.6326 39.93 46.2456 40.5491 45.7461C41.4209 45.0503 42.4649 44.1384 42.4649 43.7478C42.4741 43.0738 48.0768 46.6326 48.0768 46.6326Z" fill="black"/>
<path opacity="0.1" d="M46.3954 48.8071C49.0892 48.8071 51.2729 46.6412 51.2729 43.9694C51.2729 41.2977 49.0892 39.1318 46.3954 39.1318C43.7017 39.1318 41.5179 41.2977 41.5179 43.9694C41.5179 46.6412 43.7017 48.8071 46.3954 48.8071Z" fill="black"/>
<path d="M46.3954 48.5837C49.0892 48.5837 51.2729 46.4178 51.2729 43.746C51.2729 41.0742 49.0892 38.9084 46.3954 38.9084C43.7017 38.9084 41.5179 41.0742 41.5179 43.746C41.5179 46.4178 43.7017 48.5837 46.3954 48.5837Z" fill="#ECB4B6"/>
<path d="M52.7015 49.7499C52.7198 49.9316 53.0678 50.3076 53.5403 50.7527C54.577 51.73 56.2053 53.0035 56.2053 53.0035C56.2053 53.0035 59.4013 55.8937 59.6852 55.9773C59.9691 56.0608 60.8062 58.8966 60.8062 58.8966C60.8062 58.8966 60.6102 63.5944 63.1872 63.7887C64.2861 63.8705 64.7477 63.0258 64.9162 62.0248C65.0402 61.2508 64.9915 60.4592 64.7734 59.7058C64.5554 58.9525 64.1733 58.2558 63.6542 57.6649L62.1231 55.8973L60.7494 53.4503C59.8688 52.0726 59.1271 50.6123 58.535 49.0905C57.9152 47.594 57.0005 46.2353 55.8444 45.0939C55.5569 44.8105 55.3719 44.6597 55.3719 44.6597L54.0898 45.0485C54.0898 45.0485 52.6465 49.1904 52.7015 49.7499Z" fill="#ECB4B6"/>
<path d="M57.6064 98.7314L58.0973 99.22C58.9471 100.068 60.6468 101.763 61.0828 102.148C61.6707 102.677 63.0169 102.761 64.1378 102.537C64.7129 102.425 65.4199 101.878 65.9584 101.375C66.0829 101.259 66.1825 101.12 66.2512 100.965C66.3199 100.811 66.3563 100.644 66.3582 100.475C66.3601 100.306 66.3274 100.139 66.2621 99.9825C66.1969 99.8264 66.1004 99.6851 65.9785 99.567C65.4474 99.0511 64.8246 98.4771 64.5572 98.3953C64.0536 98.2282 62.6231 97.229 61.9509 96.397C61.6011 95.9629 60.9674 95.5505 60.4417 95.2544C59.9582 94.9837 59.568 94.8129 59.568 94.8129L57.6064 98.7314Z" fill="#C17174"/>
<path opacity="0.1" d="M58.2988 98.7314C58.2988 98.7314 58.4618 98.8967 58.7145 99.1474C59.438 99.874 60.8831 101.306 61.2549 101.638C61.7549 102.087 62.9033 102.158 63.8521 101.969C64.2806 101.883 64.7917 101.518 65.2239 101.14C65.3553 101.026 65.4614 100.886 65.5355 100.73C65.6096 100.573 65.6501 100.402 65.6544 100.229C65.6587 100.056 65.6267 99.8839 65.5605 99.7237C65.4943 99.5634 65.3953 99.4185 65.2697 99.2982C64.8558 98.904 64.4125 98.5134 64.2092 98.4462C63.7806 98.3045 62.5608 97.4525 61.993 96.744C61.6253 96.3492 61.1915 96.0204 60.7109 95.7721C60.3007 95.5414 59.9691 95.3961 59.9691 95.3961L58.2988 98.7314Z" fill="black"/>
<path d="M35.3309 72.3196C35.3309 72.3196 35.7156 72.7501 36.1826 73.2551C36.7705 73.8928 37.4922 74.6521 37.7413 74.8211C38.19 75.1281 39.5637 77.4352 39.5637 77.4352C39.5637 77.4352 41.0289 79.8259 42.9558 79.9367C44.8826 80.0475 44.8899 77.8239 44.7489 77.6859C44.6078 77.5478 44.4137 76.2943 44.1335 75.377C43.921 74.683 42.1828 73.0335 41.3513 72.2724C41.0839 72.0271 40.9099 71.8745 40.9099 71.8745L35.3309 72.3196Z" fill="#C17174"/>
<path opacity="0.1" d="M35.743 72.6393C35.743 72.6393 36.091 73.0317 36.5178 73.4931C37.0544 74.0744 37.712 74.7647 37.9391 74.921C38.3494 75.2007 39.6003 77.3044 39.6003 77.3044C39.6003 77.3044 40.93 79.4843 42.6938 79.5842C44.4576 79.6842 44.4558 77.6586 44.3294 77.5315C44.2031 77.4043 44.0217 76.2598 43.7671 75.4278C43.573 74.7956 41.9887 73.2915 41.2304 72.5975C40.9868 72.3741 40.8275 72.2342 40.8275 72.2342L35.743 72.6393Z" fill="black"/>
<path opacity="0.1" d="M35.3309 72.3196C35.3309 72.3196 35.7156 72.7501 36.1826 73.2551C38.6442 73.6185 39.789 73.2097 39.789 73.2097C39.789 73.2097 40.9374 72.7083 41.1901 72.6811C41.2542 72.6811 41.3 72.5158 41.3513 72.2724C41.0839 72.0271 40.9099 71.8745 40.9099 71.8745L35.3309 72.3196Z" fill="black"/>
<path d="M38.2963 65.7598C38.2963 65.7598 36.7541 67.0078 35.8805 67.4547C35.0068 67.9016 34.5397 69.3694 34.5397 69.3694C34.5397 69.3694 33.2228 72.5394 35.8841 72.9826C38.5454 73.4259 39.7817 72.9826 39.7817 72.9826C39.7817 72.9826 40.9301 72.4831 41.1828 72.4558C41.4356 72.4286 41.4338 70.0361 42.3587 69.3131C43.2836 68.5901 45.4138 66.9515 45.4138 66.9515L38.2963 65.7598Z" fill="#5E5A6B"/>
<path opacity="0.1" d="M38.2963 65.7598C38.2963 65.7598 36.7541 67.0078 35.8805 67.4547C35.0068 67.9016 34.5397 69.3694 34.5397 69.3694C34.5397 69.3694 33.2228 72.5394 35.8841 72.9826C38.5454 73.4259 39.7817 72.9826 39.7817 72.9826C39.7817 72.9826 40.9301 72.4831 41.1828 72.4558C41.4356 72.4286 41.4338 70.0361 42.3587 69.3131C43.2836 68.5901 45.4138 66.9515 45.4138 66.9515L38.2963 65.7598Z" fill="black"/>
<path d="M52.6997 61.9503C52.6997 61.9503 53.7986 63.4345 53.458 63.7906C53.1173 64.1466 52.2821 64.5354 52.2821 64.5354C52.2821 64.5354 51.7766 67.1767 50.9634 68.2885C50.1502 69.4003 48.5549 70.6247 48.5549 70.6247L49.674 64.4246L52.6997 61.9503Z" fill="#5E5A6B"/>
<path opacity="0.1" d="M48.5567 70.6247C49.0554 70.2339 49.5335 69.818 49.989 69.3785C50.3433 69.0422 50.6692 68.6776 50.9634 68.2885C51.7766 67.1767 52.2821 64.5354 52.2821 64.5354C52.2821 64.5354 53.1228 64.1466 53.458 63.7906C53.6631 63.5744 53.339 62.944 53.0532 62.4808C52.8701 62.1792 52.7016 61.9503 52.7016 61.9503L51.1136 63.2474L49.674 64.4246L49.2509 66.8261L48.5567 70.6247Z" fill="black"/>
<path opacity="0.1" d="M57.6064 98.7314L58.0973 99.22C58.4068 99.22 58.8684 99.2582 58.8684 99.2582C58.8684 99.2582 61.1377 96.5605 60.7732 96.0882C60.6083 95.8334 60.4956 95.5488 60.4417 95.2507C59.9582 94.9801 59.5681 94.8093 59.5681 94.8093L57.6064 98.7314Z" fill="black"/>
<path d="M40.2853 70.2632C40.2853 70.7355 44.0968 76.5178 44.0968 76.5178C44.0968 76.5178 45.5822 79.0193 45.9192 79.2427C46.2562 79.4661 47.3478 81.2155 47.3478 81.2155C47.3478 81.2155 48.7215 84.3565 48.9468 84.6907C49.1721 85.025 49.5622 86.689 49.5622 86.689C49.5622 86.689 50.3479 88.9961 50.7124 89.3013C51.0769 89.6065 51.2729 90.7201 51.2729 90.7201C51.2729 90.7201 52.4213 92.3878 52.6172 92.6657C52.8473 93.0701 53.0534 93.4874 53.2345 93.9155C53.2345 93.9155 53.8517 94.9165 53.8517 95.3071C53.8517 95.6976 55.1338 96.3625 55.1338 96.3625C55.1338 96.3625 56.0496 97.4525 56.5899 97.6342C57.1302 97.8158 57.6284 99.1074 57.7108 99.0239C57.7932 98.9403 58.7493 99.0239 58.7493 99.0239C58.7493 99.0239 61.0186 96.328 60.6542 95.8557C60.2897 95.3834 60.2054 94.2698 60.2054 94.2698C60.2054 94.2698 61.1212 92.1861 60.6267 92.0753C60.1322 91.9645 58.2255 88.6655 58.2255 88.6655C58.198 86.164 55.8994 84.0513 55.8994 84.0513C55.8994 84.0513 54.7492 81.3264 54.414 80.7432C54.3138 80.5953 54.2602 80.421 54.2602 80.2428C54.2602 80.0645 54.3138 79.8902 54.414 79.7423C54.414 79.7423 53.7693 79.2427 53.6576 78.992C53.5458 78.7413 53.0129 76.852 53.0129 76.852C53.0129 76.852 52.3681 75.7112 52.3388 75.1826C52.3095 74.6539 51.0567 73.1843 51.0567 73.1843C51.0567 73.1843 50.5476 70.7082 49.9871 70.2632C49.8772 70.176 49.8955 69.8508 49.9871 69.3785C50.2453 68.1341 51.0677 65.8851 51.6355 64.4118C51.9597 63.5689 52.1996 62.9785 52.1996 62.9785L51.1153 63.2474L41.8842 65.5363C41.8842 65.5363 41.3842 66.8679 40.9446 68.1232C40.5948 69.1114 40.2853 70.0542 40.2853 70.2632Z" fill="#5E5A6B"/>
<path opacity="0.1" d="M58.1963 93.0308C58.1963 93.0308 61.0828 91.919 59.6615 93.336C58.2402 94.753 55.5148 94.6712 55.5148 94.6712L58.1963 93.0308Z" fill="black"/>
<path opacity="0.1" d="M53.262 87.3539C53.262 87.3539 51.6374 88.2441 51.9451 89.1051C52.2528 89.9662 53.262 87.3539 53.262 87.3539Z" fill="black"/>
<path opacity="0.1" d="M51.6318 80.4653C51.475 80.7443 51.2414 80.9734 50.9583 81.1259C50.6752 81.2784 50.3543 81.3479 50.0329 81.3264C48.8625 81.2991 51.6318 80.4653 51.6318 80.4653Z" fill="black"/>
<path opacity="0.1" d="M36.3896 68.0977C36.3896 68.0977 37.0068 69.9888 36.3896 70.1269C35.7723 70.265 36.3896 68.0977 36.3896 68.0977Z" fill="black"/>
<path opacity="0.1" d="M52.7015 49.7499C52.7198 49.9316 53.0678 50.3076 53.5403 50.7527C53.8078 49.8989 54.0569 49.1177 53.9067 48.8598C53.6832 48.471 54.5587 47.6372 54.4012 47.0813C54.2803 46.6562 55.3353 45.579 55.8371 45.0976C55.5496 44.8142 55.3646 44.6634 55.3646 44.6634L54.0825 45.0522C54.0825 45.0522 52.6465 49.1904 52.7015 49.7499Z" fill="black"/>
<path opacity="0.1" d="M40.9428 68.1232C42.007 68.065 44.4887 67.3021 44.4887 67.3021C44.4887 67.3021 47.3661 67.2076 49.2508 66.8261C50.1666 66.6444 50.8333 66.3847 50.8333 66.0413C50.8333 65.5817 51.2124 64.9659 51.6428 64.4064C51.9371 64.0367 52.2514 63.6832 52.5843 63.3473C52.7592 63.1694 52.8924 62.9554 52.9744 62.7205C53 62.6461 53.0312 62.5625 53.0623 62.4753C52.8791 62.1737 52.7106 61.9449 52.7106 61.9449L51.1227 63.2419L41.8916 65.5309C41.8916 65.5309 41.3751 66.8679 40.9428 68.1232Z" fill="black"/>
<path d="M37.875 66.3157C37.875 66.3157 39.9483 67.5383 40.5656 67.7599C41.1828 67.9815 44.4888 66.9678 44.4888 66.9678C44.4888 66.9678 50.8242 66.7607 50.8242 65.6962C50.8242 64.8805 52.0257 63.5689 52.5751 63.0131C52.7505 62.8348 52.8838 62.6201 52.9653 62.3845C53.1576 61.8395 53.5459 60.8277 53.9067 60.4698C54.4122 59.9702 53.6264 57.3016 53.6264 57.3016C53.6264 57.3016 53.4579 55.4105 53.2345 54.8546C53.011 54.2987 53.2345 54.217 53.0513 53.7429C52.8352 53.2106 52.685 53.2415 52.9579 52.0189C53.2308 50.7963 53.9103 49.2395 53.6905 48.8489C53.4708 48.4583 54.3426 47.6263 54.1851 47.0704C54.0276 46.5145 55.8756 44.8469 55.8756 44.8469C55.8756 44.8469 55.6448 43.0284 55.4782 42.7959C55.3115 42.5634 54.6942 41.2954 54.6942 41.0174C54.6942 40.7395 54.3005 40.6832 54.077 40.3507C53.8536 40.0183 51.2656 48.9688 51.2656 48.9688L47.4944 49.8117L47.2856 49.8571C47.2856 49.8571 45.1408 49.957 43.7488 49.1904C43.7488 49.1904 41.344 48.8016 40.5582 44.8541C39.9573 45.0038 39.3731 45.2131 38.8146 45.4791C38.2303 45.7606 37.6442 46.1439 37.3072 46.6326C36.7635 47.4013 36.0803 48.0629 35.2925 48.5837C35.0503 49.1807 34.8441 49.7916 34.6752 50.413C34.5086 51.1396 34.3401 52.3041 33.8346 52.9163C33.329 53.5285 33.1019 55.3615 33.1019 55.3615L38.1552 59.923C38.1552 59.923 38.0435 61.0911 37.7633 61.0348C37.483 60.9784 37.875 66.3157 37.875 66.3157Z" fill="#464353"/>
<path opacity="0.1" d="M38.8219 45.7007L41.518 51.2759C41.518 51.2759 42.6389 52.0025 43.0327 51.6083C43.4265 51.2141 44.91 51.2195 44.91 51.2195L45.106 51.6083L47.9468 50.9434L47.5017 50.0351L47.2929 50.0823C47.2929 50.0823 45.1481 50.1823 43.7561 49.4156C43.7561 49.4156 41.3513 49.0251 40.5655 45.0776C39.9647 45.2266 39.3805 45.4354 38.8219 45.7007Z" fill="black"/>
<path d="M38.8219 45.479L41.518 51.0524C41.518 51.0524 42.6389 51.7791 43.0327 51.3867C43.4265 50.9943 44.91 50.9979 44.91 50.9979L45.106 51.3867L47.9468 50.72L47.5017 49.8117L47.2929 49.8571C47.2929 49.8571 45.1481 49.957 43.7561 49.1904C43.7561 49.1904 41.3513 48.8016 40.5655 44.8541C39.9646 45.0038 39.3805 45.2131 38.8219 45.479V45.479Z" fill="#464353"/>
<path opacity="0.1" d="M40.0051 61.6996C40.0051 61.6996 45.9541 63.5562 46.3955 63.7905C46.8369 64.0249 40.0326 62.3391 40.0051 61.6996Z" fill="black"/>
<path opacity="0.1" d="M43.7561 64.5354C43.7561 64.5354 42.192 65.3983 41.6315 65.0913C41.071 64.7842 43.7561 64.5354 43.7561 64.5354Z" fill="black"/>
<path opacity="0.1" d="M48.6666 54.2242C48.6666 54.2242 50.1721 62.201 47.9468 64.5354L48.6666 54.2242Z" fill="black"/>
<path opacity="0.1" d="M51.141 42.2146C51.4194 41.917 51.5791 41.529 51.5902 41.1232C51.6013 40.7173 51.4631 40.3214 51.2014 40.0092C51.0073 39.7912 50.7527 39.6259 50.5933 39.3806C50.5118 39.2097 50.4123 39.0478 50.2966 38.8974C50.0072 38.6031 49.52 38.6812 49.1226 38.5614C48.7251 38.4415 48.4559 38.1508 48.161 37.8874C47.6877 37.4597 47.1615 37.0935 46.595 36.7974C46.0126 36.4959 45.3551 36.267 44.7067 36.3723C44.1993 36.4559 43.7469 36.7356 43.2506 36.8755C42.5473 37.0735 41.6809 37.0336 41.2359 37.6113C41.0252 37.8856 40.9648 38.2507 40.7652 38.5359C40.4831 38.9392 39.9648 39.1281 39.6662 39.526C39.3384 39.9747 39.3732 40.5905 39.5142 41.1264C39.6076 41.4734 39.7395 41.8294 39.6571 42.1782C39.6168 42.349 39.527 42.507 39.4922 42.6796C39.4006 43.1301 39.6937 43.557 39.8897 43.9749C40.1006 44.427 40.2046 44.921 40.1937 45.4191C40.1799 45.5308 40.1957 45.6441 40.2395 45.7479C40.295 45.8312 40.3713 45.8989 40.4611 45.9441L41.3036 46.4709C41.3433 46.4988 41.3881 46.5185 41.4355 46.529C41.6003 46.5545 41.7011 46.3674 41.8018 46.242C42.0839 45.9078 42.6205 45.9332 43.018 46.1221C43.4154 46.311 43.7415 46.6217 44.1407 46.8015C45.0767 47.2248 46.1555 46.8488 47.1683 46.6544C47.5151 46.6048 47.8575 46.5283 48.1922 46.4255C48.5077 46.2985 48.8086 46.1383 49.0896 45.9477C49.3747 45.7886 49.6336 45.587 49.8571 45.3501C49.9782 45.2196 50.0648 45.0613 50.1093 44.8895C50.1537 44.7177 50.1545 44.5376 50.1116 44.3654C50.0292 44.073 49.7655 43.8096 49.8186 43.4844C49.9248 42.9212 50.7728 42.5852 51.141 42.2146Z" fill="black"/>
<path d="M51.141 41.993C51.4195 41.6951 51.5793 41.3068 51.5904 40.9007C51.6015 40.4945 51.4633 40.0982 51.2014 39.7858C51.0073 39.5696 50.7527 39.4025 50.5933 39.159C50.5114 38.9878 50.4119 38.8252 50.2966 38.674C50.0072 38.3815 49.52 38.4596 49.1226 38.3397C48.7251 38.2198 48.4559 37.9274 48.161 37.664C47.6882 37.2356 47.1619 36.8693 46.595 36.574C46.0126 36.2724 45.3551 36.0435 44.7067 36.1489C44.1993 36.2325 43.7469 36.5122 43.2506 36.6521C42.5473 36.8501 41.6809 36.8083 41.2359 37.3788C41.0252 37.6549 40.9648 38.02 40.7652 38.3052C40.4831 38.7085 39.9648 38.8974 39.6662 39.2953C39.3384 39.744 39.3732 40.3598 39.5142 40.8957C39.6076 41.2409 39.7395 41.5988 39.6571 41.9475C39.6168 42.1183 39.527 42.2764 39.4922 42.4489C39.4006 42.8995 39.6937 43.3264 39.8897 43.7424C40.1071 44.2004 40.2143 44.7023 40.2029 45.2084C40.1891 45.3207 40.2049 45.4346 40.2487 45.539C40.3052 45.6215 40.3813 45.6889 40.4703 45.7352L41.3128 46.2602C41.3523 46.2887 41.3971 46.3091 41.4447 46.3201C41.6095 46.3438 41.7102 46.1585 41.811 46.0313C42.093 45.697 42.6297 45.7243 43.0271 45.9114C43.4246 46.0985 43.7506 46.411 44.1499 46.5908C45.0858 47.0141 46.1646 46.6381 47.1775 46.4455C47.5242 46.3945 47.8664 46.3173 48.2013 46.2148C48.5168 46.0884 48.8176 45.9288 49.0988 45.7388C49.384 45.579 49.6428 45.3769 49.8662 45.1393C49.9873 45.0092 50.074 44.8513 50.1184 44.6798C50.1629 44.5083 50.1637 44.3285 50.1208 44.1566C50.0384 43.8623 49.7746 43.5989 49.8277 43.2755C49.9248 42.6978 50.7728 42.3617 51.141 41.993Z" fill="#464353"/>
<path d="M32.0177 61.1165C31.9884 61.8668 32.6331 62.8677 32.6331 62.8677C32.8291 63.34 35.2394 65.5363 35.2394 65.5363L37.1461 66.808C37.1461 66.808 39.6975 68.3648 40.3001 68.6427C40.6023 68.7826 40.9265 69.3694 41.1774 69.9434C41.4283 70.5175 41.6023 71.0334 41.6023 71.0334C42.1546 70.9529 42.6641 70.6919 43.0499 70.2918C43.4358 69.8917 43.6759 69.3753 43.7324 68.8244C43.8038 68.1087 43.8515 67.4656 43.7892 67.4529C43.6482 67.4256 42.0785 66.2575 42.0785 66.2575C42.0785 66.2575 40.2579 65.0894 39.6682 63.9232C39.0784 62.7569 36.7816 60.9766 36.7816 60.9766L36.8182 60.9094L36.9501 60.6696L37.2303 59.7522L32.8346 57.8066C32.8346 57.8066 32.7265 58.1608 32.5873 58.6459C32.3492 59.4634 32.0342 60.6496 32.0177 61.1165Z" fill="#ECB4B6"/>
<path opacity="0.1" d="M32.5836 58.6513C33.4142 59.4624 34.3023 60.2134 35.2412 60.8985C35.5141 61.0566 36.4702 60.9585 36.82 60.9149L36.9519 60.6751L37.2321 59.7577L32.8364 57.8121C32.8364 57.8121 32.721 58.1627 32.5836 58.6513Z" fill="black"/>
<path d="M36.95 55.2779C36.95 55.2779 39.1918 56.6131 39.0801 57.1962C38.9684 57.7794 38.0178 59.7958 38.0178 59.7958L36.95 60.6714C36.95 60.6714 35.5763 60.8658 35.2393 60.6714C34.9023 60.477 32.5213 58.5314 32.437 58.2262C32.3528 57.921 32.437 56.891 32.437 56.6694C32.437 56.4478 33.1092 55.3614 33.1092 55.3614L34.0909 53.6393L36.95 55.2779Z" fill="#464353"/>
<path opacity="0.1" d="M44.4887 67.2966L45.1481 69.0533L44.0363 70.096L43.985 70.4103L41.5179 71.8182L40.734 69.8544L44.4887 67.2966Z" fill="black"/>
<path d="M44.4887 67.1858L45.1481 68.9407L44.0363 69.9852L43.985 70.2995L41.5179 71.7074L40.734 69.7436L44.4887 67.1858Z" fill="#5E5A6B"/>
<g opacity="0.1">
<path opacity="0.1" d="M49.8699 43.1374C49.831 43.0374 49.8184 42.9293 49.8333 42.8231C49.9248 42.2546 50.7729 41.9148 51.141 41.5515C51.3812 41.3034 51.5335 40.9847 51.5751 40.6432C51.6105 40.8878 51.5898 41.1371 51.5147 41.3727C51.4395 41.6083 51.3118 41.824 51.141 42.0039C50.8022 42.3327 50.0585 42.6451 49.8699 43.1374Z" fill="black"/>
<path opacity="0.1" d="M39.5124 42.4253C39.6096 42.7334 39.7392 43.0305 39.8989 43.3118C40.1104 43.7638 40.2151 44.2578 40.2047 44.756C40.1902 44.8681 40.2054 44.9821 40.2487 45.0866C40.3051 45.1692 40.3812 45.2366 40.4703 45.2828L41.3128 45.8078C41.3525 45.8373 41.3981 45.8577 41.4465 45.8678C41.6095 45.8914 41.7103 45.7061 41.8129 45.5808C42.0949 45.2465 42.6334 45.2719 43.029 45.459C43.4246 45.6462 43.7525 45.9586 44.1518 46.1403C45.0895 46.5617 46.1665 46.1875 47.1794 45.9931C47.5262 45.943 47.8685 45.8658 48.2032 45.7624C48.5189 45.6365 48.8198 45.4769 49.1007 45.2865C49.3865 45.1269 49.646 44.9247 49.8699 44.687C49.9955 44.542 50.0846 44.3695 50.13 44.1838C50.1654 44.351 50.1603 44.5241 50.1151 44.689C50.0699 44.8538 49.9859 45.0057 49.8699 45.1321C49.6455 45.3692 49.3861 45.5713 49.1007 45.7315C48.8198 45.922 48.5189 46.0815 48.2032 46.2075C47.8683 46.31 47.526 46.3872 47.1794 46.4382C46.1683 46.6308 45.0895 47.0068 44.1518 46.5835C43.7525 46.4019 43.4191 46.093 43.029 45.9041C42.6389 45.7152 42.0949 45.6898 41.8129 46.024C41.7066 46.1512 41.6059 46.3365 41.4465 46.3129C41.3984 46.302 41.3529 46.2816 41.3128 46.2529L40.4703 45.7279C40.382 45.6806 40.3061 45.6134 40.2487 45.5317C40.2056 45.4271 40.1904 45.3132 40.2047 45.2011C40.2151 44.7029 40.1104 44.2089 39.8989 43.7569C39.7029 43.3409 39.4098 42.914 39.5014 42.4634C39.5042 42.4505 39.5079 42.4378 39.5124 42.4253V42.4253Z" fill="black"/>
<path opacity="0.1" d="M39.5252 40.4652C39.615 40.8031 39.7432 41.1537 39.6718 41.4952C39.6388 41.299 39.5765 41.1028 39.5252 40.9103C39.4375 40.6047 39.4065 40.2858 39.4337 39.9692C39.45 40.1368 39.4807 40.3027 39.5252 40.4652Z" fill="black"/>
</g>
<path opacity="0.1" d="M3.96168 28.114C6.14966 28.114 7.92336 26.3547 7.92336 24.1846C7.92336 22.0145 6.14966 20.2553 3.96168 20.2553C1.7737 20.2553 0 22.0145 0 24.1846C0 26.3547 1.7737 28.114 3.96168 28.114Z" fill="#496294"/>
<path opacity="0.1" d="M111.495 11.5573C113.683 11.5573 115.457 9.7981 115.457 7.62798C115.457 5.45787 113.683 3.69864 111.495 3.69864C109.307 3.69864 107.533 5.45787 107.533 7.62798C107.533 9.7981 109.307 11.5573 111.495 11.5573Z" fill="#496294"/>
<path opacity="0.1" d="M174.345 27.0803C176.533 27.0803 178.307 25.3211 178.307 23.151C178.307 20.9808 176.533 19.2216 174.345 19.2216C172.157 19.2216 170.383 20.9808 170.383 23.151C170.383 25.3211 172.157 27.0803 174.345 27.0803Z" fill="#496294"/>
<path opacity="0.1" d="M11.8832 52.4476C15.5501 52.4476 18.5226 49.4993 18.5226 45.8623C18.5226 42.2254 15.5501 39.2771 11.8832 39.2771C8.21635 39.2771 5.24377 42.2254 5.24377 45.8623C5.24377 49.4993 8.21635 52.4476 11.8832 52.4476Z" fill="#496294"/>
<path opacity="0.1" d="M92.9777 150.002C96.6445 150.002 99.6171 147.053 99.6171 143.417C99.6171 139.78 96.6445 136.831 92.9777 136.831C89.3108 136.831 86.3383 139.78 86.3383 143.417C86.3383 147.053 89.3108 150.002 92.9777 150.002Z" fill="#496294"/>
<path opacity="0.1" d="M181.426 146.205C185.093 146.205 188.065 143.257 188.065 139.62C188.065 135.983 185.093 133.035 181.426 133.035C177.759 133.035 174.786 135.983 174.786 139.62C174.786 143.257 177.759 146.205 181.426 146.205Z" fill="#496294"/>
</g>
<defs>
<linearGradient id="paint0_linear" x1="49.1867" y1="102.899" x2="49.1867" y2="35.2969" gradientUnits="userSpaceOnUse">
<stop stop-color="#808080" stop-opacity="0.25"/>
<stop offset="0.54" stop-color="#808080" stop-opacity="0.12"/>
<stop offset="1" stop-color="#808080" stop-opacity="0.1"/>
</linearGradient>
<clipPath id="clip0">
<rect width="204" height="150" fill="white"/>
</clipPath>
</defs>
</svg>
